<svg width="16" height="16" viewBox="0 0 16 16" fill="none" xmlns="http://www.w3.org/2000/svg">
<path fill-rule="evenodd" clip-rule="evenodd" d="M9.48515 8.53943C9.48064 8.53943 9.47614 8.53947 9.47164 8.53953C9.34817 8.54137 9.23078 8.56832 9.12438 8.61551C8.91469 8.70852 8.74774 8.88016 8.6613 9.09323C8.62036 9.19414 8.59748 9.30434 8.59667 9.41988C8.59661 9.42958 8.59654 9.43934 8.59647 9.44915C8.5902 10.3515 8.58172 11.6885 8.58172 12.3225C8.58172 12.3261 8.58172 12.3297 8.58173 12.3332C8.58351 12.9213 8.73167 13.4777 8.99047 13.971C9.62086 15.1726 10.9077 16 12.3341 16C14.3487 16 15.9829 14.3576 15.9829 12.3332C15.9829 10.9453 15.2156 9.67824 14.0845 9.01801C14.0466 8.9959 14.0083 8.97447 13.9696 8.95374C13.4776 8.69006 12.9221 8.53943 12.3341 8.53943H9.48515ZM2.04465 8.93252C2.51767 8.68397 3.04992 8.54266 3.61449 8.54266C3.64076 8.54266 3.66825 8.54267 3.69687 8.54271C4.37349 8.54352 5.6862 8.55369 6.5775 8.56122C6.59128 8.56134 6.60496 8.56145 6.61854 8.56157C6.73895 8.56259 6.85353 8.58752 6.95782 8.63181C7.1555 8.71577 7.31621 8.86932 7.40956 9.0616C7.46136 9.1683 7.49242 9.28693 7.49754 9.41222C7.49804 9.42447 7.49829 9.43678 7.49829 9.44915V12.3332C7.49829 12.9149 7.34456 13.4651 7.07811 13.9538C6.41729 15.1659 5.06315 16 3.6412 16C1.64589 16 0.0276424 14.3587 0.0276424 12.3332C0.0276424 10.8809 0.84595 9.56238 2.04465 8.93252ZM6.94133 7.35736C7.13767 7.26925 7.29619 7.11202 7.38587 6.91669C7.43434 6.8111 7.4627 6.69438 7.46604 6.57142C7.46626 6.56326 7.46637 6.55508 7.46637 6.54687V3.69665H7.46424V3.69346C7.46371 3.11985 7.32057 2.576 7.06946 2.0913C6.43683 0.870193 5.11885 0.0245367 3.6691 0.0245368C3.18769 0.0241162 2.7109 0.118434 2.26598 0.302103C1.82105 0.485773 1.41669 0.755198 1.07598 1.095C0.735274 1.43479 0.464892 1.83831 0.280275 2.28251C0.0956583 2.7267 0.00042061 3.20288 0 3.68384C0 5.1142 0.836288 6.39774 2.04246 7.02658C2.51843 7.27473 3.05199 7.42093 3.61449 7.43397C3.64188 7.43461 3.66934 7.43493 3.69687 7.43493H6.5775C6.59448 7.43493 6.61135 7.43445 6.6281 7.43351C6.73919 7.42728 6.84483 7.40067 6.94133 7.35736ZM1.76 3.68456C1.7604 4.76874 2.67779 5.67493 3.69687 5.67493H5.70637V5.45665H5.70424V3.69665C5.70424 2.72083 4.79727 1.78454 3.6691 1.78454H3.66756C3.41705 1.78432 3.16899 1.8334 2.93755 1.92894C2.70611 2.02448 2.49588 2.16458 2.31883 2.34117C2.14177 2.51775 2.00135 2.72736 1.90549 2.95798C1.80975 3.18835 1.76033 3.43523 1.76 3.68456ZM8.97021 2.08194C8.72295 2.57025 8.58276 3.11754 8.58276 3.69346V6.57142C8.58276 6.69264 8.60707 6.80818 8.65108 6.91345C8.73619 7.117 8.89496 7.28215 9.09411 7.37563C9.2087 7.42941 9.33665 7.45948 9.47164 7.45948H12.3245V7.45735C12.3277 7.45735 12.3309 7.45734 12.3341 7.45733C12.9218 7.4557 13.4781 7.30482 13.9715 7.04182C15.1721 6.4019 16 5.09819 16 3.66571C16.0004 3.18474 15.906 2.7084 15.7222 2.26388C15.5383 1.81937 15.2687 1.41538 14.9285 1.07499C14.5884 0.734595 14.1845 0.464463 13.7399 0.280017C13.2953 0.09557 12.8187 0.000420242 12.3373 0C10.9472 0 9.69556 0.787745 9.0479 1.93665C9.02094 1.98446 8.99504 2.03291 8.97021 2.08194ZM12.3366 1.76C11.2475 1.7604 10.3428 2.67928 10.3428 3.69346V5.69948H10.5645V5.69734H12.3245C13.3052 5.69734 14.24 4.78888 14.24 3.66571V3.66417C14.2402 3.41455 14.1912 3.1673 14.0958 2.93652C14.0003 2.70573 13.8603 2.49588 13.6835 2.31898C13.5068 2.14209 13.2968 2.00162 13.0655 1.90568C12.8345 1.80984 12.5868 1.76033 12.3366 1.76ZM3.6412 14.24C4.78999 14.24 5.73829 13.2647 5.73829 12.3332V10.3145C4.94406 10.3083 4.08126 10.3027 3.61449 10.3027C2.70573 10.3027 1.78764 11.1612 1.78764 12.3332C1.78764 13.4108 2.64184 14.24 3.6412 14.24ZM10.3417 12.3225C10.3417 13.3273 11.2412 14.24 12.3341 14.24C13.3685 14.24 14.2229 13.3938 14.2229 12.3332C14.2229 11.1933 13.2924 10.2994 12.3341 10.2994H10.3509C10.3461 11.0576 10.3417 11.8719 10.3417 12.3225Z" fill="#BE5858"/>
</svg>
