<svg width="52" height="52" viewBox="0 0 52 52" fill="none" xmlns="http://www.w3.org/2000/svg">
<rect width="52" height="52" rx="12" fill="#EFF4EE"/>
<path d="M35.75 17.875V19.9276C35.75 29.808 29.9293 34.2961 22.75 34.2961H18.6799C18.4966 35.313 18.4085 36.3433 18.4167 37.375H16.25C16.25 35.9761 16.3757 34.7066 16.6248 33.5448C16.3757 32.2167 16.25 30.4145 16.25 28.1382C16.25 22.4698 21.1001 17.875 27.0833 17.875C29.25 17.875 31.4167 18.9013 35.75 17.875ZM27.0833 19.9276C24.7848 19.9276 22.5804 20.7927 20.9551 22.3324C19.3298 23.8722 18.4167 25.9606 18.4167 28.1382C18.4167 28.5097 18.4199 28.8679 18.4275 29.2117C19.786 27.1816 21.7761 25.5775 24.3793 24.1684L25.454 25.9501C22.3611 27.625 20.3093 29.5278 19.2573 32.2434H22.75C29.2663 32.2434 33.4436 28.1659 33.5801 20.3258C32.0938 20.4623 30.7125 20.3751 29.0084 20.1329C27.7626 19.9553 27.5178 19.9276 27.0833 19.9276Z" fill="#449067"/>
</svg>
