<svg width="52" height="52" viewBox="0 0 52 52" fill="none" xmlns="http://www.w3.org/2000/svg">
<rect width="52" height="52" rx="12" fill="#EFF4EE"/>
<path fill-rule="evenodd" clip-rule="evenodd" d="M30.2734 17.8767C30.5811 17.8596 30.8815 17.9744 31.0994 18.1923L35.4327 22.5256C35.6359 22.7288 35.75 23.0044 35.75 23.2917V28.7083C35.75 29.3066 35.265 29.7917 34.6667 29.7917H17.3333C16.9338 29.7917 16.5667 29.5718 16.3782 29.2195C16.1897 28.8673 16.2103 28.4398 16.4319 28.1074L20.7653 21.6074C21.0683 21.1528 21.6625 20.995 22.1511 21.2394L25.7012 23.0144L29.4874 18.2816C29.6799 18.041 29.9657 17.8937 30.2734 17.8767ZM30.4232 20.5802L26.8459 25.0518C26.5268 25.4506 25.9724 25.5724 25.5155 25.344L22.0376 23.605L19.3576 27.625H33.5833V23.7404L30.4232 20.5802ZM16.25 33.0417C16.25 32.4434 16.735 31.9583 17.3333 31.9583H34.6667C35.265 31.9583 35.75 32.4434 35.75 33.0417C35.75 33.64 35.265 34.125 34.6667 34.125H17.3333C16.735 34.125 16.25 33.64 16.25 33.0417Z" fill="#449067"/>
</svg>
