<svg width="26" height="23" viewBox="0 0 26 23" fill="none" xmlns="http://www.w3.org/2000/svg">
<path fill-rule="evenodd" clip-rule="evenodd" d="M16.505 0.110372C16.8038 -0.0368026 17.1555 -0.0367899 17.4543 0.110406L24.6796 3.67003C25.0761 3.86525 25.4097 4.16537 25.6429 4.53678C25.8761 4.9082 25.9998 5.33624 26 5.77296V19.8401C25.9998 20.2409 25.8956 20.6356 25.6974 20.9856C25.4991 21.3356 25.2134 21.6299 24.8673 21.8406C24.5211 22.0512 24.1261 22.1713 23.7197 22.1893C23.3132 22.2073 22.9089 22.1228 22.5449 21.9436L16.9796 19.2029L9.495 22.8896C9.19621 23.0368 8.84452 23.0368 8.54574 22.8896L1.32043 19.33C1.32033 19.3299 1.32053 19.33 1.32043 19.33C0.923999 19.1347 0.590247 18.8345 0.357094 18.4632C0.123884 18.0918 0.000236886 17.6638 1.26508e-07 17.227L0 3.15989C0.000217214 2.75908 0.10439 2.36442 0.302634 2.01441C0.500878 1.6644 0.786617 1.3701 1.13274 1.15944C1.47886 0.948774 1.87388 0.828727 2.28032 0.810693C2.68676 0.792659 3.09114 0.877236 3.45508 1.0564L9.02036 3.79708L16.505 0.110372ZM7.95918 5.6121L2.50635 2.92679C2.5063 2.92676 2.50639 2.92681 2.50635 2.92679C2.46595 2.90693 2.42092 2.89748 2.37582 2.89948C2.33066 2.90149 2.28677 2.91483 2.24831 2.93823C2.20985 2.96164 2.1781 2.99434 2.15607 3.03323C2.13407 3.07208 2.1225 3.11581 2.12245 3.16029V17.2261C2.1225 17.2745 2.13624 17.322 2.16213 17.3633C2.18804 17.4045 2.2251 17.4379 2.26916 17.4596L7.95918 20.2628V5.6121ZM10.0816 20.263L15.9184 17.388V2.73704L10.0816 5.61204V20.263ZM18.0408 2.73717V17.3879L23.4937 20.0732C23.4937 20.0732 23.4936 20.0732 23.4937 20.0732C23.5341 20.0931 23.5791 20.1025 23.6242 20.1005C23.6693 20.0985 23.7132 20.0852 23.7517 20.0618C23.7902 20.0384 23.8219 20.0057 23.8439 19.9668C23.8659 19.9279 23.8775 19.8841 23.8776 19.8396V5.77408C23.8775 5.72555 23.8638 5.67799 23.8379 5.63673C23.812 5.59546 23.7749 5.56211 23.7308 5.54042L18.0408 2.73717Z" fill="#319A62"/>
</svg>
