<svg width="16" height="15" viewBox="0 0 16 15" fill="none" xmlns="http://www.w3.org/2000/svg">
<path fill-rule="evenodd" clip-rule="evenodd" d="M10.1569 0.0689455C10.3408 -0.0229894 10.5572 -0.0229814 10.7411 0.068967L15.1874 2.29255C15.4315 2.41449 15.6367 2.60197 15.7802 2.83398C15.9238 3.06599 15.9999 3.33337 16 3.60618V12.3935C15.9999 12.6438 15.9358 12.8904 15.8138 13.109C15.6918 13.3277 15.5159 13.5115 15.3029 13.6431C15.0899 13.7747 14.8468 13.8497 14.5967 13.8609C14.3466 13.8722 14.0978 13.8194 13.8738 13.7074L10.449 11.9954L5.84308 14.2984C5.65921 14.3903 5.44278 14.3903 5.25892 14.2984L0.812571 12.0748C0.812511 12.0748 0.812632 12.0748 0.812571 12.0748C0.568615 11.9528 0.363229 11.7653 0.21975 11.5334C0.0762366 11.3014 0.000145776 11.034 7.7851e-08 10.7612L0 1.97388C0.00013367 1.72351 0.06424 1.47697 0.186236 1.25834C0.308233 1.0397 0.484072 0.85586 0.697069 0.724263C0.910066 0.592668 1.15316 0.517679 1.40327 0.506414C1.65339 0.495148 1.90224 0.547981 2.1262 0.659896L5.55099 2.37191L10.1569 0.0689455ZM4.89796 3.50569L1.54237 1.82827C1.54234 1.82825 1.5424 1.82828 1.54237 1.82827C1.5175 1.81586 1.4898 1.80996 1.46204 1.81121C1.43425 1.81246 1.40724 1.8208 1.38357 1.83542C1.35991 1.85004 1.34037 1.87047 1.32682 1.89476C1.31328 1.91903 1.30615 1.94634 1.30612 1.97413V10.7606C1.30616 10.7908 1.31461 10.8205 1.33054 10.8463C1.34648 10.872 1.36929 10.8929 1.39641 10.9064L4.89796 12.6575V3.50569ZM6.20408 12.6576L9.79592 10.8617V1.70974L6.20408 3.50565V12.6576ZM11.102 1.70982V10.8617L14.4576 12.5391C14.4577 12.5391 14.4576 12.5391 14.4576 12.5391C14.4825 12.5515 14.5102 12.5574 14.538 12.5561C14.5657 12.5549 14.5928 12.5465 14.6164 12.5319C14.6401 12.5173 14.6596 12.4969 14.6732 12.4726C14.6867 12.4483 14.6939 12.4209 14.6939 12.3931V3.60688C14.6939 3.57656 14.6854 3.54686 14.6695 3.52108C14.6535 3.4953 14.6307 3.47447 14.6036 3.46092L11.102 1.70982Z" fill="#319A62"/>
</svg>
