<svg width="52" height="52" viewBox="0 0 52 52" fill="none" xmlns="http://www.w3.org/2000/svg">
<rect width="52" height="52" rx="12" fill="#EFF4EE"/>
<path d="M33.5833 16.25H18.4167C17.2217 16.25 16.25 17.2217 16.25 18.4167V33.5833C16.25 34.7783 17.2217 35.75 18.4167 35.75H27.0833C27.2256 35.7502 27.3665 35.7223 27.498 35.6678C27.6294 35.6133 27.7488 35.5334 27.8492 35.4326L35.4326 27.8492C35.5217 27.7569 35.5936 27.6494 35.6449 27.5318C35.6601 27.4993 35.6688 27.4658 35.6807 27.4311C35.7115 27.3404 35.7301 27.2461 35.7359 27.1505C35.7381 27.1278 35.75 27.1061 35.75 27.0833V18.4167C35.75 17.2217 34.7783 16.25 33.5833 16.25ZM18.4167 18.4167H33.5833V26H27.0833C26.796 26 26.5205 26.1141 26.3173 26.3173C26.1141 26.5205 26 26.796 26 27.0833V33.5833H18.4167V18.4167ZM28.1667 32.0515V28.1667H32.0515L28.1667 32.0515Z" fill="#449067"/>
</svg>
