<svg width="18" height="20" viewBox="0 0 18 20" fill="none" xmlns="http://www.w3.org/2000/svg">
<path d="M13.5816 13.4987L17.1329 17.1922C17.6181 17.6968 17.6209 18.4938 17.1391 19.0018C16.624 19.545 15.7591 19.5468 15.2416 19.0057L11.5732 15.1697C10.4435 15.8225 9.13808 16.188 7.78243 16.188C3.48954 16.188 0 12.5587 0 8.094C0 3.62924 3.48954 0 7.78243 0C12.0753 0 15.59 3.62924 15.59 8.094C15.59 10.1828 14.8117 12.0888 13.5816 13.4987ZM2.58577 8.094C2.58577 11.0966 4.8954 13.4987 7.78243 13.4987C10.6695 13.4987 12.9791 11.0966 12.9791 8.094C12.9791 5.09138 10.6695 2.6893 7.78243 2.6893C4.8954 2.6893 2.58577 5.09138 2.58577 8.094Z" fill="white"/>
</svg>
