<svg width="109" height="109" viewBox="0 0 109 109" fill="none" xmlns="http://www.w3.org/2000/svg">
<path d="M0 40C0 17.9086 17.9086 0 40 0H69C91.0914 0 109 17.9086 109 40V69C109 91.0914 91.0914 109 69 109H40C17.9086 109 0 91.0914 0 69V40Z" fill="#A6B4A5"/>
<path d="M73.05 73.9195C72.3472 73.9195 71.6731 73.6434 71.1762 73.1521C70.6792 72.6608 70.4 71.9944 70.4 71.2995C70.4 70.6046 70.6792 69.9382 71.1762 69.4469C71.6731 68.9556 72.3472 68.6795 73.05 68.6795C73.7528 68.6795 74.4269 68.4035 74.9238 67.9122C75.4208 67.4208 75.7 66.7544 75.7 66.0596V45.0998C75.7 44.405 75.4208 43.7386 74.9238 43.2472C74.4269 42.7559 73.7528 42.4799 73.05 42.4799H52.9498L51.7016 38.9848C51.5181 38.4741 51.1791 38.032 50.7311 37.7196C50.2831 37.4071 49.7482 37.2395 49.2 37.2399H35.95C35.2472 37.2399 34.5731 37.516 34.0762 38.0073C33.5792 38.4986 33.3 39.165 33.3 39.8599V66.0596C33.3 66.7544 33.5792 67.4208 34.0762 67.9122C34.5731 68.4035 35.2472 68.6795 35.95 68.6795C36.6528 68.6795 37.3269 68.9556 37.8238 69.4469C38.3208 69.9382 38.6 70.6046 38.6 71.2995C38.6 71.9944 38.3208 72.6608 37.8238 73.1521C37.3269 73.6434 36.6528 73.9195 35.95 73.9195C33.8415 73.9195 31.8194 73.0914 30.3285 71.6174C28.8376 70.1433 28 68.1441 28 66.0596V39.8599C28 37.7753 28.8376 35.7761 30.3285 34.3021C31.8194 32.8281 33.8415 32 35.95 32H49.2C52.6609 32 55.6051 34.1877 56.6995 37.2399H73.05C75.1585 37.2399 77.1806 38.068 78.6715 39.542C80.1624 41.0161 81 43.0153 81 45.0998V66.0596C81 68.1441 80.1624 70.1433 78.6715 71.6174C77.1806 73.0914 75.1585 73.9195 73.05 73.9195ZM59.7735 73.6679C57.0335 75.4453 53.7247 76.1562 50.4858 75.6633C47.2468 75.1705 44.3073 73.5089 42.2347 70.9993C40.162 68.4897 39.1031 65.31 39.2624 62.0739C39.4216 58.8378 40.7878 55.7747 43.0971 53.4759C45.4186 51.1785 48.5205 49.8155 51.8009 49.6513C55.0814 49.4872 58.3067 50.5336 60.8509 52.5875C63.3952 54.6414 65.0771 57.5565 65.5704 60.7671C66.0637 63.9777 65.3332 67.2551 63.5206 69.9633L71.2056 77.5612C71.688 78.0557 71.9546 78.7177 71.9481 79.4046C71.9416 80.0916 71.6624 80.7485 71.1707 81.2339C70.679 81.7194 70.0142 81.9944 69.3193 81.9999C68.6245 82.0054 67.9553 81.7408 67.4559 81.2632L59.7709 73.6679H59.7735ZM58.0881 68.297C58.8327 67.5683 59.4244 66.7012 59.829 65.7457C60.2337 64.7902 60.4434 63.765 60.446 62.7292C60.4487 61.6933 60.2443 60.6671 59.8446 59.7096C59.4448 58.752 58.8577 57.882 58.1168 57.1495C57.3759 56.417 56.4959 55.8365 55.5274 55.4413C54.5589 55.0461 53.5209 54.844 52.4732 54.8467C51.4254 54.8493 50.3885 55.0566 49.422 55.4567C48.4556 55.8567 47.5786 56.4417 46.8415 57.1779C45.3505 58.652 44.5128 60.6514 44.5128 62.7361C44.5128 64.8209 45.3505 66.8203 46.8415 68.2944C48.3325 69.7685 50.3548 70.5967 52.4635 70.5967C54.5721 70.5967 56.5944 69.7685 58.0855 68.2944L58.0881 68.297Z" fill="white"/>
</svg>
