<svg width="12" height="12" viewBox="0 0 12 12" fill="none" xmlns="http://www.w3.org/2000/svg">
<path opacity="0.75" d="M12 0V1.26316C12 7.34337 8.418 10.1053 4 10.1053H1.49533C1.3825 10.7311 1.32829 11.3651 1.33333 12H0C0 11.1392 0.0773333 10.3579 0.230667 9.64295C0.0773333 8.82568 0 7.71663 0 6.31579C0 2.82758 2.98467 0 6.66667 0C8 0 9.33333 0.631579 12 0ZM6.66667 1.26316C5.25218 1.26316 3.89562 1.79549 2.89543 2.74304C1.89524 3.69059 1.33333 4.97575 1.33333 6.31579C1.33333 6.54442 1.33533 6.76484 1.34 6.97642C2.176 5.72716 3.40067 4.74 5.00267 3.87284L5.664 4.96926C3.76067 6 2.498 7.17095 1.85067 8.84211H4C8.01 8.84211 10.5807 6.33284 10.6647 1.50821C9.75 1.59221 8.9 1.53853 7.85133 1.38947C7.08467 1.28021 6.934 1.26316 6.66667 1.26316Z" fill="#4F4F4F"/>
</svg>
