<svg width="177" height="172" viewBox="0 0 177 172" fill="none" xmlns="http://www.w3.org/2000/svg">
<g filter="url(#filter0_d)">
<path d="M12 14C12 11.7909 13.7909 10 16 10H161C163.209 10 165 11.7909 165 14V154C165 156.209 163.209 158 161 158H16C13.7909 158 12 156.209 12 154V14Z" fill="white"/>
<path d="M12.5 14C12.5 12.067 14.067 10.5 16 10.5H161C162.933 10.5 164.5 12.067 164.5 14V154C164.5 155.933 162.933 157.5 161 157.5H16C14.067 157.5 12.5 155.933 12.5 154V14Z" stroke="white"/>
</g>
<path d="M29.21 31.05V32H24.76V25.05H25.82V31.05H29.21ZM30.4698 29.72C30.5498 30.1733 30.7464 30.53 31.0598 30.79C31.3798 31.05 31.7631 31.18 32.2098 31.18C32.6098 31.18 32.9231 31.11 33.1498 30.97C33.3831 30.83 33.5598 30.62 33.6798 30.34L34.5498 30.89C34.3498 31.2367 34.0631 31.53 33.6898 31.77C33.3164 32.0033 32.8131 32.12 32.1798 32.12C31.7664 32.12 31.3898 32.05 31.0498 31.91C30.7098 31.77 30.4198 31.58 30.1798 31.34C29.9398 31.0933 29.7531 30.8033 29.6198 30.47C29.4864 30.13 29.4198 29.7633 29.4198 29.37C29.4198 28.99 29.4898 28.6333 29.6298 28.3C29.7698 27.96 29.9598 27.6667 30.1998 27.42C30.4398 27.1667 30.7231 26.97 31.0498 26.83C31.3764 26.6833 31.7264 26.61 32.0998 26.61C32.5064 26.61 32.8731 26.6833 33.1998 26.83C33.5264 26.9767 33.8031 27.1733 34.0298 27.42C34.2564 27.6667 34.4298 27.95 34.5498 28.27C34.6764 28.5833 34.7398 28.91 34.7398 29.25C34.7398 29.3433 34.7364 29.4333 34.7298 29.52C34.7298 29.6 34.7264 29.6667 34.7198 29.72H30.4698ZM33.6998 28.91C33.6264 28.4633 33.4498 28.1133 33.1698 27.86C32.8898 27.6 32.5464 27.47 32.1398 27.47C31.7264 27.47 31.3664 27.5967 31.0598 27.85C30.7531 28.0967 30.5598 28.45 30.4798 28.91H33.6998ZM40.9473 26.73V31.28C40.9473 31.6733 40.8839 32.03 40.7573 32.35C40.6306 32.6767 40.4473 32.9533 40.2073 33.18C39.9739 33.4133 39.6839 33.5933 39.3373 33.72C38.9973 33.8467 38.6106 33.91 38.1773 33.91C37.4773 33.91 36.9173 33.7667 36.4973 33.48C36.0839 33.1933 35.7906 32.8067 35.6173 32.32L36.5173 31.97C36.6439 32.3233 36.8506 32.5867 37.1373 32.76C37.4239 32.9333 37.7739 33.02 38.1873 33.02C38.7406 33.02 39.1739 32.87 39.4873 32.57C39.8073 32.2767 39.9673 31.8767 39.9673 31.37V30.95C39.7673 31.25 39.5106 31.4867 39.1973 31.66C38.8839 31.8267 38.5206 31.91 38.1073 31.91C37.7273 31.91 37.3773 31.8433 37.0573 31.71C36.7439 31.57 36.4706 31.3833 36.2373 31.15C36.0106 30.91 35.8306 30.63 35.6973 30.31C35.5706 29.9833 35.5073 29.6367 35.5073 29.27C35.5073 28.9033 35.5706 28.56 35.6973 28.24C35.8306 27.9133 36.0106 27.63 36.2373 27.39C36.4706 27.15 36.7473 26.9633 37.0673 26.83C37.3873 26.69 37.7339 26.62 38.1073 26.62C38.5206 26.62 38.8839 26.7033 39.1973 26.87C39.5106 27.0367 39.7673 27.27 39.9673 27.57V26.73H40.9473ZM38.2273 31.09C38.4739 31.09 38.6973 31.0467 38.8973 30.96C39.1039 30.8733 39.2806 30.7533 39.4273 30.6C39.5806 30.44 39.6973 30.2533 39.7773 30.04C39.8639 29.82 39.9073 29.58 39.9073 29.32C39.9073 29.0667 39.8639 28.8333 39.7773 28.62C39.6973 28.4 39.5839 28.2133 39.4373 28.06C39.2906 27.9 39.1139 27.7767 38.9073 27.69C38.7073 27.5967 38.4839 27.55 38.2373 27.55C37.9973 27.55 37.7739 27.5967 37.5673 27.69C37.3673 27.7767 37.1906 27.9 37.0373 28.06C36.8906 28.22 36.7739 28.4067 36.6873 28.62C36.6006 28.8333 36.5573 29.0667 36.5573 29.32C36.5573 29.5733 36.5973 29.81 36.6773 30.03C36.7639 30.2433 36.8806 30.43 37.0273 30.59C37.1806 30.7433 37.3573 30.8667 37.5573 30.96C37.7639 31.0467 37.9873 31.09 38.2273 31.09ZM43.0428 29.72C43.1228 30.1733 43.3195 30.53 43.6328 30.79C43.9528 31.05 44.3361 31.18 44.7828 31.18C45.1828 31.18 45.4961 31.11 45.7228 30.97C45.9561 30.83 46.1328 30.62 46.2528 30.34L47.1228 30.89C46.9228 31.2367 46.6361 31.53 46.2628 31.77C45.8895 32.0033 45.3861 32.12 44.7528 32.12C44.3395 32.12 43.9628 32.05 43.6228 31.91C43.2828 31.77 42.9928 31.58 42.7528 31.34C42.5128 31.0933 42.3261 30.8033 42.1928 30.47C42.0595 30.13 41.9928 29.7633 41.9928 29.37C41.9928 28.99 42.0628 28.6333 42.2028 28.3C42.3428 27.96 42.5328 27.6667 42.7728 27.42C43.0128 27.1667 43.2961 26.97 43.6228 26.83C43.9495 26.6833 44.2995 26.61 44.6728 26.61C45.0795 26.61 45.4461 26.6833 45.7728 26.83C46.0995 26.9767 46.3761 27.1733 46.6028 27.42C46.8295 27.6667 47.0028 27.95 47.1228 28.27C47.2495 28.5833 47.3128 28.91 47.3128 29.25C47.3128 29.3433 47.3095 29.4333 47.3028 29.52C47.3028 29.6 47.2995 29.6667 47.2928 29.72H43.0428ZM46.2728 28.91C46.1995 28.4633 46.0228 28.1133 45.7428 27.86C45.4628 27.6 45.1195 27.47 44.7128 27.47C44.2995 27.47 43.9395 27.5967 43.6328 27.85C43.3261 28.0967 43.1328 28.45 43.0528 28.91H46.2728ZM51.1103 26.61C51.4436 26.61 51.7403 26.6633 52.0003 26.77C52.2603 26.87 52.4803 27.0133 52.6603 27.2C52.847 27.3867 52.987 27.6133 53.0803 27.88C53.1803 28.14 53.2303 28.43 53.2303 28.75V32H52.1703V28.94C52.1703 28.5 52.047 28.16 51.8003 27.92C51.5603 27.6733 51.2303 27.5533 50.8103 27.56C50.6103 27.56 50.427 27.5933 50.2603 27.66C50.0936 27.7267 49.947 27.8167 49.8203 27.93C49.7003 28.0433 49.6036 28.1767 49.5303 28.33C49.4636 28.4767 49.4303 28.63 49.4303 28.79V32H48.3703V26.73H49.3703V27.4C49.5503 27.1667 49.787 26.9767 50.0803 26.83C50.3736 26.6833 50.717 26.61 51.1103 26.61ZM59.7238 24.69V32H58.7438V31.18C58.5372 31.48 58.2738 31.7133 57.9538 31.88C57.6405 32.04 57.2838 32.12 56.8838 32.12C56.5038 32.12 56.1538 32.05 55.8338 31.91C55.5205 31.77 55.2472 31.5767 55.0138 31.33C54.7872 31.0833 54.6072 30.7933 54.4738 30.46C54.3472 30.12 54.2838 29.7533 54.2838 29.36C54.2838 28.9667 54.3472 28.6033 54.4738 28.27C54.6005 27.9367 54.7772 27.65 55.0038 27.41C55.2305 27.1633 55.5005 26.97 55.8138 26.83C56.1338 26.69 56.4805 26.62 56.8538 26.62C57.2338 26.62 57.5772 26.6933 57.8838 26.84C58.1905 26.9867 58.4505 27.1933 58.6638 27.46V24.69H59.7238ZM57.0138 31.18C57.2672 31.18 57.4972 31.1367 57.7038 31.05C57.9105 30.9567 58.0872 30.83 58.2338 30.67C58.3805 30.51 58.4938 30.32 58.5738 30.1C58.6605 29.8733 58.7038 29.6267 58.7038 29.36C58.7038 29.0933 58.6638 28.85 58.5838 28.63C58.5038 28.41 58.3872 28.22 58.2338 28.06C58.0872 27.9 57.9105 27.7767 57.7038 27.69C57.4972 27.5967 57.2672 27.55 57.0138 27.55C56.7738 27.55 56.5505 27.5967 56.3438 27.69C56.1438 27.7833 55.9672 27.91 55.8138 28.07C55.6672 28.23 55.5505 28.42 55.4638 28.64C55.3772 28.86 55.3338 29.1 55.3338 29.36C55.3338 29.62 55.3738 29.8633 55.4538 30.09C55.5405 30.31 55.6572 30.5033 55.8038 30.67C55.9572 30.83 56.1372 30.9567 56.3438 31.05C56.5505 31.1367 56.7738 31.18 57.0138 31.18ZM66.2691 26.73V32H65.2891V31.14C65.0891 31.4467 64.8325 31.6867 64.5191 31.86C64.2058 32.0333 63.8425 32.12 63.4291 32.12C63.0491 32.12 62.6991 32.05 62.3791 31.91C62.0658 31.77 61.7925 31.5767 61.5591 31.33C61.3325 31.0833 61.1525 30.7933 61.0191 30.46C60.8925 30.12 60.8291 29.7533 60.8291 29.36C60.8291 28.9667 60.8925 28.6067 61.0191 28.28C61.1525 27.9533 61.3325 27.6733 61.5591 27.44C61.7925 27.2 62.0691 27.0133 62.3891 26.88C62.7091 26.7467 63.0558 26.68 63.4291 26.68C63.8425 26.68 64.2058 26.7633 64.5191 26.93C64.8325 27.09 65.0891 27.32 65.2891 27.62V26.73H66.2691ZM63.5591 31.18C63.8125 31.18 64.0425 31.1367 64.2491 31.05C64.4558 30.9567 64.6325 30.83 64.7791 30.67C64.9258 30.51 65.0391 30.32 65.1191 30.1C65.2058 29.8733 65.2491 29.6267 65.2491 29.36C65.2491 29.0933 65.2091 28.85 65.1291 28.63C65.0491 28.41 64.9325 28.22 64.7791 28.06C64.6325 27.9 64.4558 27.7767 64.2491 27.69C64.0425 27.5967 63.8125 27.55 63.5591 27.55C63.3191 27.55 63.0958 27.5967 62.8891 27.69C62.6891 27.7833 62.5125 27.91 62.3591 28.07C62.2125 28.23 62.0958 28.42 62.0091 28.64C61.9225 28.86 61.8791 29.1 61.8791 29.36C61.8791 29.62 61.9191 29.8633 61.9991 30.09C62.0858 30.31 62.2025 30.5033 62.3491 30.67C62.5025 30.83 62.6825 30.9567 62.8891 31.05C63.0958 31.1367 63.3191 31.18 63.5591 31.18Z" fill="#4F4F4F"/>
<path d="M25.3333 123H34.6667C35.402 123 36 122.462 36 121.8V115.2C36 115.041 35.9298 114.888 35.8047 114.776C35.6797 114.663 35.5101 114.6 35.3333 114.6H33.3333V114C33.3333 112.346 31.838 111 30 111C28.162 111 26.6667 112.346 26.6667 114V114.6H24.6667C24.4899 114.6 24.3203 114.663 24.1953 114.776C24.0702 114.888 24 115.041 24 115.2V121.8C24 122.462 24.598 123 25.3333 123ZM28 114C28 113.008 28.8973 112.2 30 112.2C31.1027 112.2 32 113.008 32 114V114.6H28V114ZM25.3333 115.8H26.6667V117H28V115.8H32V117H33.3333V115.8H34.6667L34.668 121.8H25.3333V115.8Z" fill="#838173"/>
<path d="M44.1406 121L41.7188 114.672H41.6797C41.7253 115.173 41.748 115.769 41.748 116.459V121H40.9814V113.861H42.2314L44.4922 119.75H44.5312L46.8115 113.861H48.0518V121H47.2217V116.4C47.2217 115.873 47.2445 115.3 47.29 114.682H47.251L44.8096 121H44.1406ZM52.2533 121.098C51.4623 121.098 50.8373 120.857 50.3783 120.375C49.9226 119.893 49.6947 119.224 49.6947 118.368C49.6947 117.506 49.9063 116.82 50.3295 116.312C50.7559 115.805 51.3272 115.551 52.0434 115.551C52.7139 115.551 53.2445 115.772 53.6352 116.215C54.0258 116.654 54.2211 117.235 54.2211 117.958V118.471H50.5346C50.5508 119.099 50.7087 119.576 51.0082 119.901C51.3109 120.227 51.7357 120.39 52.2826 120.39C52.8588 120.39 53.4285 120.269 53.9916 120.028V120.751C53.7051 120.875 53.4333 120.963 53.1762 121.015C52.9223 121.07 52.6146 121.098 52.2533 121.098ZM52.0336 116.229C51.6039 116.229 51.2605 116.369 51.0033 116.649C50.7494 116.929 50.5997 117.317 50.5541 117.812H53.352C53.352 117.3 53.238 116.91 53.0102 116.64C52.7823 116.366 52.4568 116.229 52.0336 116.229ZM62.5291 121V117.519C62.5291 117.092 62.438 116.773 62.2557 116.562C62.0734 116.347 61.7902 116.239 61.4061 116.239C60.9015 116.239 60.5288 116.384 60.2879 116.674C60.047 116.964 59.9266 117.41 59.9266 118.012V121H59.116V117.519C59.116 117.092 59.0249 116.773 58.8426 116.562C58.6603 116.347 58.3755 116.239 57.9881 116.239C57.4803 116.239 57.1076 116.392 56.8699 116.698C56.6355 117.001 56.5184 117.499 56.5184 118.192V121H55.7078V115.648H56.367L56.4988 116.381H56.5379C56.6909 116.12 56.9057 115.917 57.1824 115.771C57.4624 115.624 57.7749 115.551 58.1199 115.551C58.9565 115.551 59.5034 115.854 59.7605 116.459H59.7996C59.9591 116.179 60.1902 115.958 60.493 115.795C60.7957 115.632 61.1408 115.551 61.5281 115.551C62.1336 115.551 62.5861 115.707 62.8855 116.02C63.1883 116.329 63.3396 116.825 63.3396 117.509V121H62.5291ZM65.925 121H65.1145V115.648H65.925V121ZM65.0461 114.198C65.0461 114.013 65.0917 113.878 65.1828 113.793C65.274 113.705 65.3879 113.661 65.5246 113.661C65.6548 113.661 65.7671 113.705 65.8615 113.793C65.9559 113.881 66.0031 114.016 66.0031 114.198C66.0031 114.381 65.9559 114.517 65.8615 114.608C65.7671 114.696 65.6548 114.74 65.5246 114.74C65.3879 114.74 65.274 114.696 65.1828 114.608C65.0917 114.517 65.0461 114.381 65.0461 114.198ZM68.5543 121H67.7437V113.402H68.5543V121ZM71.1836 121H70.373V115.648H71.1836V121ZM70.3047 114.198C70.3047 114.013 70.3503 113.878 70.4414 113.793C70.5326 113.705 70.6465 113.661 70.7832 113.661C70.9134 113.661 71.0257 113.705 71.1201 113.793C71.2145 113.881 71.2617 114.016 71.2617 114.198C71.2617 114.381 71.2145 114.517 71.1201 114.608C71.0257 114.696 70.9134 114.74 70.7832 114.74C70.6465 114.74 70.5326 114.696 70.4414 114.608C70.3503 114.517 70.3047 114.381 70.3047 114.198ZM73.8031 118.261C73.9431 118.062 74.1563 117.802 74.4428 117.479L76.1713 115.648H77.1332L74.9652 117.929L77.2846 121H76.3031L74.4135 118.471L73.8031 118.998V121H73.0023V113.402H73.8031V117.431C73.8031 117.61 73.7901 117.886 73.7641 118.261H73.8031ZM79.1668 121H78.3563V115.648H79.1668V121ZM78.2879 114.198C78.2879 114.013 78.3335 113.878 78.4246 113.793C78.5158 113.705 78.6297 113.661 78.7664 113.661C78.8966 113.661 79.0089 113.705 79.1033 113.793C79.1977 113.881 79.2449 114.016 79.2449 114.198C79.2449 114.381 79.1977 114.517 79.1033 114.608C79.0089 114.696 78.8966 114.74 78.7664 114.74C78.6297 114.74 78.5158 114.696 78.4246 114.608C78.3335 114.517 78.2879 114.381 78.2879 114.198ZM88.9615 121H87.985L85.3824 117.538L84.6354 118.202V121H83.8053V113.861H84.6354V117.401L87.8727 113.861H88.8541L85.983 116.962L88.9615 121ZM94.5449 118.319C94.5449 119.192 94.3252 119.874 93.8857 120.365C93.4463 120.854 92.8392 121.098 92.0645 121.098C91.5859 121.098 91.1611 120.985 90.79 120.761C90.4189 120.536 90.1325 120.214 89.9307 119.794C89.7288 119.374 89.6279 118.882 89.6279 118.319C89.6279 117.447 89.846 116.768 90.2822 116.283C90.7184 115.795 91.3239 115.551 92.0986 115.551C92.8473 115.551 93.4414 115.8 93.8809 116.298C94.3236 116.796 94.5449 117.47 94.5449 118.319ZM90.4678 118.319C90.4678 119.003 90.6045 119.524 90.8779 119.882C91.1514 120.24 91.5534 120.419 92.084 120.419C92.6146 120.419 93.0166 120.242 93.29 119.887C93.5667 119.529 93.7051 119.006 93.7051 118.319C93.7051 117.639 93.5667 117.123 93.29 116.771C93.0166 116.417 92.6113 116.239 92.0742 116.239C91.5436 116.239 91.1432 116.413 90.873 116.762C90.6029 117.11 90.4678 117.629 90.4678 118.319ZM98.5609 121.098C98.2126 121.098 97.8936 121.034 97.6039 120.907C97.3174 120.777 97.0766 120.578 96.8812 120.312H96.8227C96.8617 120.624 96.8812 120.92 96.8812 121.2V123.402H96.0707V115.648H96.7299L96.8422 116.381H96.8812C97.0896 116.088 97.3321 115.876 97.6088 115.746C97.8855 115.616 98.2029 115.551 98.5609 115.551C99.2706 115.551 99.8174 115.793 100.202 116.278C100.589 116.763 100.783 117.444 100.783 118.319C100.783 119.198 100.586 119.882 100.192 120.37C99.8012 120.855 99.2576 121.098 98.5609 121.098ZM98.4437 116.239C97.8969 116.239 97.5014 116.391 97.2572 116.693C97.0131 116.996 96.8878 117.478 96.8812 118.139V118.319C96.8812 119.071 97.0066 119.61 97.2572 119.936C97.5079 120.258 97.9099 120.419 98.4633 120.419C98.9255 120.419 99.2868 120.232 99.5473 119.857C99.8109 119.483 99.9428 118.967 99.9428 118.31C99.9428 117.642 99.8109 117.131 99.5473 116.776C99.2868 116.418 98.919 116.239 98.4437 116.239ZM104.564 121.098C103.773 121.098 103.148 120.857 102.689 120.375C102.234 119.893 102.006 119.224 102.006 118.368C102.006 117.506 102.217 116.82 102.64 116.312C103.067 115.805 103.638 115.551 104.354 115.551C105.025 115.551 105.555 115.772 105.946 116.215C106.337 116.654 106.532 117.235 106.532 117.958V118.471H102.846C102.862 119.099 103.02 119.576 103.319 119.901C103.622 120.227 104.047 120.39 104.594 120.39C105.17 120.39 105.739 120.269 106.303 120.028V120.751C106.016 120.875 105.744 120.963 105.487 121.015C105.233 121.07 104.926 121.098 104.564 121.098ZM104.345 116.229C103.915 116.229 103.571 116.369 103.314 116.649C103.06 116.929 102.911 117.317 102.865 117.812H105.663C105.663 117.3 105.549 116.91 105.321 116.64C105.093 116.366 104.768 116.229 104.345 116.229ZM110.46 115.551C110.698 115.551 110.911 115.57 111.1 115.609L110.988 116.361C110.766 116.312 110.571 116.288 110.402 116.288C109.969 116.288 109.598 116.464 109.288 116.815C108.982 117.167 108.829 117.605 108.829 118.129V121H108.019V115.648H108.688L108.78 116.64H108.82C109.018 116.291 109.257 116.023 109.537 115.834C109.817 115.645 110.125 115.551 110.46 115.551ZM115.492 121L115.331 120.238H115.292C115.025 120.574 114.758 120.801 114.491 120.922C114.227 121.039 113.897 121.098 113.5 121.098C112.969 121.098 112.552 120.961 112.25 120.688C111.95 120.414 111.8 120.025 111.8 119.521C111.8 118.44 112.665 117.873 114.393 117.821L115.301 117.792V117.46C115.301 117.04 115.21 116.731 115.028 116.532C114.849 116.33 114.561 116.229 114.164 116.229C113.718 116.229 113.213 116.366 112.65 116.64L112.401 116.02C112.665 115.876 112.953 115.764 113.265 115.683C113.581 115.601 113.897 115.561 114.213 115.561C114.851 115.561 115.323 115.702 115.629 115.985C115.938 116.269 116.092 116.723 116.092 117.348V121H115.492ZM113.661 120.429C114.165 120.429 114.561 120.29 114.847 120.014C115.137 119.737 115.282 119.35 115.282 118.852V118.368L114.471 118.402C113.827 118.425 113.361 118.526 113.075 118.705C112.792 118.881 112.65 119.156 112.65 119.53C112.65 119.823 112.738 120.046 112.914 120.199C113.093 120.352 113.342 120.429 113.661 120.429ZM121.319 119.54C121.319 120.038 121.134 120.422 120.763 120.692C120.392 120.963 119.871 121.098 119.2 121.098C118.491 121.098 117.937 120.985 117.54 120.761V120.009C117.797 120.139 118.072 120.242 118.365 120.316C118.661 120.391 118.946 120.429 119.22 120.429C119.643 120.429 119.968 120.362 120.196 120.229C120.424 120.092 120.538 119.885 120.538 119.608C120.538 119.4 120.447 119.223 120.265 119.076C120.086 118.926 119.734 118.751 119.21 118.549C118.712 118.363 118.357 118.202 118.146 118.065C117.937 117.925 117.781 117.768 117.677 117.592C117.576 117.416 117.525 117.206 117.525 116.962C117.525 116.526 117.703 116.182 118.058 115.932C118.412 115.678 118.899 115.551 119.518 115.551C120.094 115.551 120.657 115.668 121.207 115.902L120.919 116.562C120.382 116.34 119.895 116.229 119.459 116.229C119.075 116.229 118.785 116.29 118.59 116.41C118.395 116.531 118.297 116.697 118.297 116.908C118.297 117.051 118.333 117.174 118.404 117.274C118.479 117.375 118.598 117.471 118.761 117.562C118.924 117.654 119.236 117.785 119.698 117.958C120.333 118.189 120.761 118.422 120.982 118.656C121.207 118.891 121.319 119.185 121.319 119.54ZM123.553 121H122.743V115.648H123.553V121ZM122.674 114.198C122.674 114.013 122.72 113.878 122.811 113.793C122.902 113.705 123.016 113.661 123.153 113.661C123.283 113.661 123.395 113.705 123.49 113.793C123.584 113.881 123.631 114.016 123.631 114.198C123.631 114.381 123.584 114.517 123.49 114.608C123.395 114.696 123.283 114.74 123.153 114.74C123.016 114.74 122.902 114.696 122.811 114.608C122.72 114.517 122.674 114.381 122.674 114.198Z" fill="#4F4F4F"/>
<path d="M28.55 138.141C29.0642 138.141 29.5669 137.99 29.9945 137.708C30.4221 137.425 30.7553 137.024 30.9521 136.554C31.1489 136.084 31.2004 135.568 31.1 135.069C30.9997 134.57 30.7521 134.112 30.3885 133.753C30.0249 133.393 29.5616 133.149 29.0572 133.049C28.5529 132.95 28.0301 133.001 27.555 133.196C27.0799 133.39 26.6739 133.72 26.3882 134.142C26.1025 134.565 25.95 135.062 25.95 135.57C25.95 136.252 26.2239 136.906 26.7115 137.388C27.1991 137.87 27.8604 138.141 28.55 138.141ZM28.55 134.285C28.8071 134.285 29.0585 134.361 29.2722 134.502C29.486 134.643 29.6527 134.844 29.751 135.079C29.8494 135.313 29.8752 135.572 29.825 135.821C29.7749 136.07 29.651 136.299 29.4692 136.479C29.2874 136.659 29.0558 136.781 28.8036 136.831C28.5514 136.881 28.2901 136.855 28.0525 136.758C27.815 136.661 27.6119 136.496 27.4691 136.284C27.3262 136.073 27.25 135.825 27.25 135.57C27.25 135.23 27.387 134.903 27.6308 134.662C27.8746 134.421 28.2052 134.285 28.55 134.285ZM33.75 139.426C34.1357 139.426 34.5127 139.313 34.8334 139.101C35.154 138.889 35.404 138.588 35.5516 138.236C35.6992 137.884 35.7378 137.496 35.6625 137.122C35.5873 136.748 35.4016 136.405 35.1289 136.135C34.8561 135.865 34.5087 135.682 34.1304 135.607C33.7522 135.533 33.3601 135.571 33.0038 135.717C32.6475 135.863 32.3429 136.11 32.1286 136.427C31.9144 136.744 31.8 137.117 31.8 137.498C31.8 138.01 32.0054 138.5 32.3711 138.861C32.7368 139.223 33.2328 139.426 33.75 139.426ZM33.75 136.856C33.8786 136.856 34.0042 136.893 34.1111 136.964C34.218 137.035 34.3013 137.135 34.3505 137.252C34.3997 137.37 34.4126 137.499 34.3875 137.624C34.3624 137.748 34.3005 137.863 34.2096 137.953C34.1187 138.042 34.0029 138.104 33.8768 138.128C33.7507 138.153 33.62 138.141 33.5013 138.092C33.3825 138.043 33.281 137.961 33.2095 137.855C33.1381 137.75 33.1 137.625 33.1 137.498C33.1 137.328 33.1685 137.164 33.2904 137.044C33.4123 136.923 33.5776 136.856 33.75 136.856ZM33.75 140.069C33.0297 140.069 32.33 140.307 31.761 140.743C31.1243 140.116 30.3141 139.69 29.4326 139.518C28.551 139.345 27.6376 139.435 26.8075 139.775C25.9774 140.115 25.2678 140.691 24.7681 141.429C24.2685 142.168 24.0012 143.036 24 143.924C24.0127 143.924 24 144.095 24 143.924C24.1724 143.924 25.3 143.924 25.3 143.924C25.3 143.072 25.6424 142.255 26.2519 141.652C26.8614 141.05 27.688 140.711 28.55 140.711C29.412 140.711 30.2386 141.05 30.8481 141.652C31.4576 142.255 31.8 143.072 31.8 143.924L33.1 143.924C33.1016 143.171 32.9092 142.431 32.541 141.772C32.8283 141.547 33.1736 141.407 33.5375 141.368C33.9015 141.328 34.2693 141.391 34.5989 141.549C34.9285 141.706 35.2065 141.952 35.4013 142.259C35.596 142.565 35.6995 142.92 35.7 143.282H37C37 142.43 36.6576 141.612 36.0481 141.01C35.4386 140.407 34.612 140.069 33.75 140.069Z" fill="#838173"/>
<path d="M43.1787 143H42.3486V136.599H40.0879V135.861H45.4395V136.599H43.1787V143ZM47.307 143H46.4965V137.648H47.307V143ZM46.4281 136.198C46.4281 136.013 46.4737 135.878 46.5648 135.793C46.656 135.705 46.7699 135.661 46.9066 135.661C47.0368 135.661 47.1492 135.705 47.2436 135.793C47.338 135.881 47.3852 136.016 47.3852 136.198C47.3852 136.381 47.338 136.517 47.2436 136.608C47.1492 136.696 47.0368 136.74 46.9066 136.74C46.7699 136.74 46.656 136.696 46.5648 136.608C46.4737 136.517 46.4281 136.381 46.4281 136.198ZM52.7684 142.282H52.7244C52.3501 142.826 51.7902 143.098 51.0447 143.098C50.3449 143.098 49.7996 142.858 49.409 142.38C49.0216 141.901 48.8279 141.221 48.8279 140.339C48.8279 139.457 49.0232 138.771 49.4139 138.283C49.8045 137.795 50.3481 137.551 51.0447 137.551C51.7706 137.551 52.3273 137.814 52.7146 138.342H52.7781L52.7439 137.956L52.7244 137.58V135.402H53.535V143H52.8758L52.7684 142.282ZM51.1473 142.419C51.7007 142.419 52.101 142.269 52.3484 141.97C52.5991 141.667 52.7244 141.18 52.7244 140.51V140.339C52.7244 139.58 52.5975 139.04 52.3436 138.718C52.0929 138.392 51.6909 138.229 51.1375 138.229C50.6622 138.229 50.2977 138.415 50.0437 138.786C49.7931 139.154 49.6678 139.675 49.6678 140.349C49.6678 141.032 49.7931 141.548 50.0437 141.896C50.2944 142.245 50.6622 142.419 51.1473 142.419ZM58.6496 143L58.4885 142.238H58.4494C58.1825 142.574 57.9156 142.801 57.6486 142.922C57.385 143.039 57.0546 143.098 56.6574 143.098C56.1268 143.098 55.7102 142.961 55.4074 142.688C55.1079 142.414 54.9582 142.025 54.9582 141.521C54.9582 140.44 55.8225 139.873 57.551 139.821L58.4592 139.792V139.46C58.4592 139.04 58.368 138.731 58.1857 138.532C58.0067 138.33 57.7186 138.229 57.3215 138.229C56.8755 138.229 56.371 138.366 55.8078 138.64L55.5588 138.02C55.8225 137.876 56.1105 137.764 56.423 137.683C56.7388 137.601 57.0546 137.561 57.3703 137.561C58.0083 137.561 58.4803 137.702 58.7863 137.985C59.0956 138.269 59.2502 138.723 59.2502 139.348V143H58.6496ZM56.8186 142.429C57.3231 142.429 57.7186 142.29 58.0051 142.014C58.2948 141.737 58.4396 141.35 58.4396 140.852V140.368L57.6291 140.402C56.9846 140.425 56.5191 140.526 56.2326 140.705C55.9494 140.881 55.8078 141.156 55.8078 141.53C55.8078 141.823 55.8957 142.046 56.0715 142.199C56.2505 142.352 56.4995 142.429 56.8186 142.429ZM61.8258 140.261C61.9658 140.062 62.179 139.802 62.4654 139.479L64.1939 137.648H65.1559L62.9879 139.929L65.3072 143H64.3258L62.4361 140.471L61.8258 140.998V143H61.025V135.402H61.8258V139.431C61.8258 139.61 61.8128 139.886 61.7867 140.261H61.8258ZM72.3578 143L69.9359 136.672H69.8969C69.9424 137.173 69.9652 137.769 69.9652 138.459V143H69.1986V135.861H70.4486L72.7094 141.75H72.7484L75.0287 135.861H76.2689V143H75.4389V138.4C75.4389 137.873 75.4617 137.3 75.5072 136.682H75.4682L73.0268 143H72.3578ZM80.4705 143.098C79.6795 143.098 79.0545 142.857 78.5955 142.375C78.1398 141.893 77.9119 141.224 77.9119 140.368C77.9119 139.506 78.1235 138.82 78.5467 138.312C78.9731 137.805 79.5444 137.551 80.2605 137.551C80.9311 137.551 81.4617 137.772 81.8523 138.215C82.243 138.654 82.4383 139.235 82.4383 139.958V140.471H78.7518C78.768 141.099 78.9259 141.576 79.2254 141.901C79.5281 142.227 79.9529 142.39 80.4998 142.39C81.076 142.39 81.6456 142.269 82.2088 142.028V142.751C81.9223 142.875 81.6505 142.963 81.3934 143.015C81.1395 143.07 80.8318 143.098 80.4705 143.098ZM80.2508 138.229C79.8211 138.229 79.4777 138.369 79.2205 138.649C78.9666 138.929 78.8169 139.317 78.7713 139.812H81.5691C81.5691 139.3 81.4552 138.91 81.2273 138.64C80.9995 138.366 80.674 138.229 80.2508 138.229ZM90.7463 143V139.519C90.7463 139.092 90.6551 138.773 90.4729 138.562C90.2906 138.347 90.0074 138.239 89.6232 138.239C89.1187 138.239 88.746 138.384 88.5051 138.674C88.2642 138.964 88.1437 139.41 88.1437 140.012V143H87.3332V139.519C87.3332 139.092 87.2421 138.773 87.0598 138.562C86.8775 138.347 86.5926 138.239 86.2053 138.239C85.6975 138.239 85.3247 138.392 85.0871 138.698C84.8527 139.001 84.7355 139.499 84.7355 140.192V143H83.925V137.648H84.5842L84.716 138.381H84.7551C84.9081 138.12 85.1229 137.917 85.3996 137.771C85.6796 137.624 85.9921 137.551 86.3371 137.551C87.1737 137.551 87.7206 137.854 87.9777 138.459H88.0168C88.1763 138.179 88.4074 137.958 88.7102 137.795C89.0129 137.632 89.3579 137.551 89.7453 137.551C90.3508 137.551 90.8033 137.707 91.1027 138.02C91.4055 138.329 91.5568 138.825 91.5568 139.509V143H90.7463ZM94.1422 143H93.3316V137.648H94.1422V143ZM93.2633 136.198C93.2633 136.013 93.3089 135.878 93.4 135.793C93.4911 135.705 93.6051 135.661 93.7418 135.661C93.872 135.661 93.9843 135.705 94.0787 135.793C94.1731 135.881 94.2203 136.016 94.2203 136.198C94.2203 136.381 94.1731 136.517 94.0787 136.608C93.9843 136.696 93.872 136.74 93.7418 136.74C93.6051 136.74 93.4911 136.696 93.4 136.608C93.3089 136.517 93.2633 136.381 93.2633 136.198ZM96.7715 143H95.9609V135.402H96.7715V143ZM99.4008 143H98.5902V137.648H99.4008V143ZM98.5219 136.198C98.5219 136.013 98.5674 135.878 98.6586 135.793C98.7497 135.705 98.8637 135.661 99.0004 135.661C99.1306 135.661 99.2429 135.705 99.3373 135.793C99.4317 135.881 99.4789 136.016 99.4789 136.198C99.4789 136.381 99.4317 136.517 99.3373 136.608C99.2429 136.696 99.1306 136.74 99.0004 136.74C98.8637 136.74 98.7497 136.696 98.6586 136.608C98.5674 136.517 98.5219 136.381 98.5219 136.198ZM102.02 140.261C102.16 140.062 102.374 139.802 102.66 139.479L104.388 137.648H105.35L103.182 139.929L105.502 143H104.52L102.631 140.471L102.02 140.998V143H101.22V135.402H102.02V139.431C102.02 139.61 102.007 139.886 101.981 140.261H102.02ZM107.384 143H106.573V137.648H107.384V143ZM106.505 136.198C106.505 136.013 106.551 135.878 106.642 135.793C106.733 135.705 106.847 135.661 106.984 135.661C107.114 135.661 107.226 135.705 107.321 135.793C107.415 135.881 107.462 136.016 107.462 136.198C107.462 136.381 107.415 136.517 107.321 136.608C107.226 136.696 107.114 136.74 106.984 136.74C106.847 136.74 106.733 136.696 106.642 136.608C106.551 136.517 106.505 136.381 106.505 136.198ZM117.179 143H116.202L113.6 139.538L112.853 140.202V143H112.022V135.861H112.853V139.401L116.09 135.861H117.071L114.2 138.962L117.179 143ZM122.762 140.319C122.762 141.192 122.542 141.874 122.103 142.365C121.663 142.854 121.056 143.098 120.282 143.098C119.803 143.098 119.378 142.985 119.007 142.761C118.636 142.536 118.35 142.214 118.148 141.794C117.946 141.374 117.845 140.882 117.845 140.319C117.845 139.447 118.063 138.768 118.499 138.283C118.936 137.795 119.541 137.551 120.316 137.551C121.065 137.551 121.659 137.8 122.098 138.298C122.541 138.796 122.762 139.47 122.762 140.319ZM118.685 140.319C118.685 141.003 118.822 141.524 119.095 141.882C119.369 142.24 119.771 142.419 120.301 142.419C120.832 142.419 121.234 142.242 121.507 141.887C121.784 141.529 121.922 141.006 121.922 140.319C121.922 139.639 121.784 139.123 121.507 138.771C121.234 138.417 120.829 138.239 120.291 138.239C119.761 138.239 119.36 138.413 119.09 138.762C118.82 139.11 118.685 139.629 118.685 140.319ZM126.778 143.098C126.43 143.098 126.111 143.034 125.821 142.907C125.535 142.777 125.294 142.578 125.098 142.312H125.04C125.079 142.624 125.098 142.92 125.098 143.2V145.402H124.288V137.648H124.947L125.059 138.381H125.098C125.307 138.088 125.549 137.876 125.826 137.746C126.103 137.616 126.42 137.551 126.778 137.551C127.488 137.551 128.035 137.793 128.419 138.278C128.806 138.763 129 139.444 129 140.319C129 141.198 128.803 141.882 128.409 142.37C128.018 142.855 127.475 143.098 126.778 143.098ZM126.661 138.239C126.114 138.239 125.719 138.391 125.474 138.693C125.23 138.996 125.105 139.478 125.098 140.139V140.319C125.098 141.071 125.224 141.61 125.474 141.936C125.725 142.258 126.127 142.419 126.68 142.419C127.143 142.419 127.504 142.232 127.764 141.857C128.028 141.483 128.16 140.967 128.16 140.31C128.16 139.642 128.028 139.131 127.764 138.776C127.504 138.418 127.136 138.239 126.661 138.239ZM132.781 143.098C131.99 143.098 131.365 142.857 130.906 142.375C130.451 141.893 130.223 141.224 130.223 140.368C130.223 139.506 130.434 138.82 130.858 138.312C131.284 137.805 131.855 137.551 132.571 137.551C133.242 137.551 133.773 137.772 134.163 138.215C134.554 138.654 134.749 139.235 134.749 139.958V140.471H131.063C131.079 141.099 131.237 141.576 131.536 141.901C131.839 142.227 132.264 142.39 132.811 142.39C133.387 142.39 133.957 142.269 134.52 142.028V142.751C134.233 142.875 133.961 142.963 133.704 143.015C133.45 143.07 133.143 143.098 132.781 143.098ZM132.562 138.229C132.132 138.229 131.789 138.369 131.531 138.649C131.278 138.929 131.128 139.317 131.082 139.812H133.88C133.88 139.3 133.766 138.91 133.538 138.64C133.31 138.366 132.985 138.229 132.562 138.229ZM138.677 137.551C138.915 137.551 139.128 137.57 139.317 137.609L139.205 138.361C138.983 138.312 138.788 138.288 138.619 138.288C138.186 138.288 137.815 138.464 137.505 138.815C137.199 139.167 137.046 139.605 137.046 140.129V143H136.236V137.648H136.905L136.998 138.64H137.037C137.235 138.291 137.475 138.023 137.754 137.834C138.034 137.645 138.342 137.551 138.677 137.551ZM143.709 143L143.548 142.238H143.509C143.242 142.574 142.975 142.801 142.708 142.922C142.444 143.039 142.114 143.098 141.717 143.098C141.186 143.098 140.77 142.961 140.467 142.688C140.167 142.414 140.018 142.025 140.018 141.521C140.018 140.44 140.882 139.873 142.61 139.821L143.519 139.792V139.46C143.519 139.04 143.427 138.731 143.245 138.532C143.066 138.33 142.778 138.229 142.381 138.229C141.935 138.229 141.43 138.366 140.867 138.64L140.618 138.02C140.882 137.876 141.17 137.764 141.482 137.683C141.798 137.601 142.114 137.561 142.43 137.561C143.068 137.561 143.54 137.702 143.846 137.985C144.155 138.269 144.31 138.723 144.31 139.348V143H143.709ZM141.878 142.429C142.382 142.429 142.778 142.29 143.064 142.014C143.354 141.737 143.499 141.35 143.499 140.852V140.368L142.688 140.402C142.044 140.425 141.578 140.526 141.292 140.705C141.009 140.881 140.867 141.156 140.867 141.53C140.867 141.823 140.955 142.046 141.131 142.199C141.31 142.352 141.559 142.429 141.878 142.429ZM149.537 141.54C149.537 142.038 149.351 142.422 148.98 142.692C148.609 142.963 148.088 143.098 147.417 143.098C146.708 143.098 146.154 142.985 145.757 142.761V142.009C146.014 142.139 146.289 142.242 146.582 142.316C146.879 142.391 147.163 142.429 147.437 142.429C147.86 142.429 148.186 142.362 148.413 142.229C148.641 142.092 148.755 141.885 148.755 141.608C148.755 141.4 148.664 141.223 148.482 141.076C148.303 140.926 147.951 140.751 147.427 140.549C146.929 140.363 146.574 140.202 146.363 140.065C146.154 139.925 145.998 139.768 145.894 139.592C145.793 139.416 145.743 139.206 145.743 138.962C145.743 138.526 145.92 138.182 146.275 137.932C146.63 137.678 147.116 137.551 147.735 137.551C148.311 137.551 148.874 137.668 149.424 137.902L149.136 138.562C148.599 138.34 148.112 138.229 147.676 138.229C147.292 138.229 147.002 138.29 146.807 138.41C146.612 138.531 146.514 138.697 146.514 138.908C146.514 139.051 146.55 139.174 146.621 139.274C146.696 139.375 146.815 139.471 146.978 139.562C147.141 139.654 147.453 139.785 147.915 139.958C148.55 140.189 148.978 140.422 149.2 140.656C149.424 140.891 149.537 141.185 149.537 141.54ZM151.77 143H150.96V137.648H151.77V143ZM150.891 136.198C150.891 136.013 150.937 135.878 151.028 135.793C151.119 135.705 151.233 135.661 151.37 135.661C151.5 135.661 151.612 135.705 151.707 135.793C151.801 135.881 151.848 136.016 151.848 136.198C151.848 136.381 151.801 136.517 151.707 136.608C151.612 136.696 151.5 136.74 151.37 136.74C151.233 136.74 151.119 136.696 151.028 136.608C150.937 136.517 150.891 136.381 150.891 136.198Z" fill="#4F4F4F"/>
<path d="M46.1377 55H45.1611L42.5586 51.5381L41.8115 52.2021V55H40.9814V47.8613H41.8115V51.4014L45.0488 47.8613H46.0303L43.1592 50.9619L46.1377 55ZM49.3627 55.0977C48.5717 55.0977 47.9467 54.8568 47.4877 54.375C47.032 53.8932 46.8041 53.2243 46.8041 52.3682C46.8041 51.5055 47.0157 50.8203 47.4389 50.3125C47.8653 49.8047 48.4366 49.5508 49.1527 49.5508C49.8233 49.5508 50.3539 49.7721 50.7445 50.2148C51.1352 50.6543 51.3305 51.2354 51.3305 51.958V52.4707H47.6439C47.6602 53.099 47.8181 53.5758 48.1176 53.9014C48.4203 54.2269 48.8451 54.3896 49.392 54.3896C49.9682 54.3896 50.5378 54.2692 51.101 54.0283V54.751C50.8145 54.8747 50.5427 54.9626 50.2855 55.0146C50.0316 55.07 49.724 55.0977 49.3627 55.0977ZM49.143 50.2295C48.7133 50.2295 48.3699 50.3695 48.1127 50.6494C47.8588 50.9294 47.709 51.3167 47.6635 51.8115H50.4613C50.4613 51.3005 50.3474 50.9098 50.1195 50.6396C49.8917 50.3662 49.5661 50.2295 49.143 50.2295ZM53.6277 55H52.8172V47.4023H53.6277V55ZM58.7375 55L58.5764 54.2383H58.5373C58.2704 54.5736 58.0035 54.8014 57.7365 54.9219C57.4729 55.0391 57.1424 55.0977 56.7453 55.0977C56.2147 55.0977 55.798 54.9609 55.4953 54.6875C55.1958 54.4141 55.0461 54.0251 55.0461 53.5205C55.0461 52.4398 55.9104 51.8734 57.6389 51.8213L58.5471 51.792V51.46C58.5471 51.04 58.4559 50.7308 58.2736 50.5322C58.0946 50.3304 57.8065 50.2295 57.4094 50.2295C56.9634 50.2295 56.4589 50.3662 55.8957 50.6396L55.6467 50.0195C55.9104 49.8763 56.1984 49.764 56.5109 49.6826C56.8267 49.6012 57.1424 49.5605 57.4582 49.5605C58.0962 49.5605 58.5682 49.7021 58.8742 49.9854C59.1835 50.2686 59.3381 50.7227 59.3381 51.3477V55H58.7375ZM56.9064 54.4287C57.411 54.4287 57.8065 54.2904 58.093 54.0137C58.3827 53.737 58.5275 53.3496 58.5275 52.8516V52.3682L57.717 52.4023C57.0725 52.4251 56.607 52.526 56.3205 52.7051C56.0373 52.8809 55.8957 53.1559 55.8957 53.5303C55.8957 53.8232 55.9836 54.0462 56.1594 54.1992C56.3384 54.3522 56.5874 54.4287 56.9064 54.4287ZM64.565 53.54C64.565 54.0381 64.3795 54.4222 64.0084 54.6924C63.6373 54.9626 63.1165 55.0977 62.4459 55.0977C61.7363 55.0977 61.1829 54.9854 60.7857 54.7607V54.0088C61.0429 54.139 61.318 54.2415 61.6109 54.3164C61.9072 54.3913 62.192 54.4287 62.4654 54.4287C62.8886 54.4287 63.2141 54.362 63.442 54.2285C63.6699 54.0918 63.7838 53.8851 63.7838 53.6084C63.7838 53.4001 63.6926 53.2227 63.5104 53.0762C63.3313 52.9264 62.9798 52.7507 62.4557 52.5488C61.9576 52.3633 61.6028 52.2021 61.3912 52.0654C61.1829 51.9255 61.0266 51.7676 60.9225 51.5918C60.8215 51.416 60.7711 51.2061 60.7711 50.9619C60.7711 50.5257 60.9485 50.1823 61.3033 49.9316C61.6581 49.6777 62.1448 49.5508 62.7633 49.5508C63.3395 49.5508 63.9026 49.668 64.4527 49.9023L64.1646 50.5615C63.6275 50.3402 63.1409 50.2295 62.7047 50.2295C62.3206 50.2295 62.0309 50.2897 61.8355 50.4102C61.6402 50.5306 61.5426 50.6966 61.5426 50.9082C61.5426 51.0514 61.5784 51.1735 61.65 51.2744C61.7249 51.3753 61.8437 51.4714 62.0064 51.5625C62.1692 51.6536 62.4817 51.7855 62.9439 51.958C63.5787 52.1891 64.0068 52.4219 64.2281 52.6562C64.4527 52.8906 64.565 53.1852 64.565 53.54ZM73.3344 49.9414C73.3344 50.6641 73.087 51.2207 72.5922 51.6113C72.1007 51.9987 71.3959 52.1924 70.4779 52.1924H69.6381V55H68.808V47.8613H70.6586C72.4424 47.8613 73.3344 48.5547 73.3344 49.9414ZM69.6381 51.4795H70.3852C71.1208 51.4795 71.6531 51.3607 71.9818 51.123C72.3106 50.8854 72.475 50.5046 72.475 49.9805C72.475 49.5085 72.3204 49.1569 72.0111 48.9258C71.7019 48.6947 71.2201 48.5791 70.5658 48.5791H69.6381V51.4795ZM77.0721 55.0977C76.2811 55.0977 75.6561 54.8568 75.1971 54.375C74.7413 53.8932 74.5135 53.2243 74.5135 52.3682C74.5135 51.5055 74.7251 50.8203 75.1482 50.3125C75.5747 49.8047 76.146 49.5508 76.8621 49.5508C77.5327 49.5508 78.0633 49.7721 78.4539 50.2148C78.8445 50.6543 79.0398 51.2354 79.0398 51.958V52.4707H75.3533C75.3696 53.099 75.5275 53.5758 75.827 53.9014C76.1297 54.2269 76.5545 54.3896 77.1014 54.3896C77.6775 54.3896 78.2472 54.2692 78.8104 54.0283V54.751C78.5239 54.8747 78.2521 54.9626 77.9949 55.0146C77.741 55.07 77.4334 55.0977 77.0721 55.0977ZM76.8523 50.2295C76.4227 50.2295 76.0792 50.3695 75.8221 50.6494C75.5682 50.9294 75.4184 51.3167 75.3729 51.8115H78.1707C78.1707 51.3005 78.0568 50.9098 77.8289 50.6396C77.601 50.3662 77.2755 50.2295 76.8523 50.2295ZM87.3479 55V51.5186C87.3479 51.0921 87.2567 50.7731 87.0744 50.5615C86.8921 50.3467 86.6089 50.2393 86.2248 50.2393C85.7202 50.2393 85.3475 50.3841 85.1066 50.6738C84.8658 50.9635 84.7453 51.4095 84.7453 52.0117V55H83.9348V51.5186C83.9348 51.0921 83.8436 50.7731 83.6613 50.5615C83.479 50.3467 83.1942 50.2393 82.8068 50.2393C82.299 50.2393 81.9263 50.3923 81.6887 50.6982C81.4543 51.001 81.3371 51.499 81.3371 52.1924V55H80.5266V49.6484H81.1857L81.3176 50.3809H81.3566C81.5096 50.1204 81.7245 49.917 82.0012 49.7705C82.2811 49.624 82.5936 49.5508 82.9387 49.5508C83.7753 49.5508 84.3221 49.8535 84.5793 50.459H84.6184C84.7779 50.179 85.009 49.9577 85.3117 49.7949C85.6145 49.6322 85.9595 49.5508 86.3469 49.5508C86.9523 49.5508 87.4048 49.707 87.7043 50.0195C88.007 50.3288 88.1584 50.8252 88.1584 51.5088V55H87.3479ZM90.6949 49.6484V53.1201C90.6949 53.5563 90.7942 53.8818 90.9928 54.0967C91.1913 54.3115 91.5022 54.4189 91.9254 54.4189C92.4853 54.4189 92.8938 54.266 93.151 53.96C93.4114 53.654 93.5416 53.1543 93.5416 52.4609V49.6484H94.3521V55H93.6832L93.566 54.2822H93.5221C93.3561 54.5459 93.1249 54.7477 92.8287 54.8877C92.5357 55.0277 92.2005 55.0977 91.8229 55.0977C91.1718 55.0977 90.6835 54.943 90.358 54.6338C90.0357 54.3245 89.8746 53.8298 89.8746 53.1494V49.6484H90.6949ZM96.9863 55H96.1758V47.4023H96.9863V55ZM102.096 55L101.935 54.2383H101.896C101.629 54.5736 101.362 54.8014 101.095 54.9219C100.831 55.0391 100.501 55.0977 100.104 55.0977C99.5733 55.0977 99.1566 54.9609 98.8539 54.6875C98.5544 54.4141 98.4047 54.0251 98.4047 53.5205C98.4047 52.4398 99.2689 51.8734 100.997 51.8213L101.906 51.792V51.46C101.906 51.04 101.815 50.7308 101.632 50.5322C101.453 50.3304 101.165 50.2295 100.768 50.2295C100.322 50.2295 99.8174 50.3662 99.2543 50.6396L99.0053 50.0195C99.2689 49.8763 99.557 49.764 99.8695 49.6826C100.185 49.6012 100.501 49.5605 100.817 49.5605C101.455 49.5605 101.927 49.7021 102.233 49.9854C102.542 50.2686 102.697 50.7227 102.697 51.3477V55H102.096ZM100.265 54.4287C100.77 54.4287 101.165 54.2904 101.452 54.0137C101.741 53.737 101.886 53.3496 101.886 52.8516V52.3682L101.076 52.4023C100.431 52.4251 99.9656 52.526 99.6791 52.7051C99.3959 52.8809 99.2543 53.1559 99.2543 53.5303C99.2543 53.8232 99.3422 54.0462 99.518 54.1992C99.697 54.3522 99.946 54.4287 100.265 54.4287Z" fill="#4F4F4F"/>
<path fill-rule="evenodd" clip-rule="evenodd" d="M34.6667 45H25.3333C24.6 45 24 45.6 24 46.3333V55.6667C24 56.4 24.6 57 25.3333 57H34.6667C35.4 57 36 56.4 36 55.6667V46.3333C36 45.6 35.4 45 34.6667 45Z" fill="#E9775E"/>
<path d="M46.1377 77H45.1611L42.5586 73.5381L41.8115 74.2021V77H40.9814V69.8613H41.8115V73.4014L45.0488 69.8613H46.0303L43.1592 72.9619L46.1377 77ZM49.3627 77.0977C48.5717 77.0977 47.9467 76.8568 47.4877 76.375C47.032 75.8932 46.8041 75.2243 46.8041 74.3682C46.8041 73.5055 47.0157 72.8203 47.4389 72.3125C47.8653 71.8047 48.4366 71.5508 49.1527 71.5508C49.8233 71.5508 50.3539 71.7721 50.7445 72.2148C51.1352 72.6543 51.3305 73.2354 51.3305 73.958V74.4707H47.6439C47.6602 75.099 47.8181 75.5758 48.1176 75.9014C48.4203 76.2269 48.8451 76.3896 49.392 76.3896C49.9682 76.3896 50.5378 76.2692 51.101 76.0283V76.751C50.8145 76.8747 50.5427 76.9626 50.2855 77.0146C50.0316 77.07 49.724 77.0977 49.3627 77.0977ZM49.143 72.2295C48.7133 72.2295 48.3699 72.3695 48.1127 72.6494C47.8588 72.9294 47.709 73.3167 47.6635 73.8115H50.4613C50.4613 73.3005 50.3474 72.9098 50.1195 72.6396C49.8917 72.3662 49.5661 72.2295 49.143 72.2295ZM53.6277 77H52.8172V69.4023H53.6277V77ZM58.7375 77L58.5764 76.2383H58.5373C58.2704 76.5736 58.0035 76.8014 57.7365 76.9219C57.4729 77.0391 57.1424 77.0977 56.7453 77.0977C56.2147 77.0977 55.798 76.9609 55.4953 76.6875C55.1958 76.4141 55.0461 76.0251 55.0461 75.5205C55.0461 74.4398 55.9104 73.8734 57.6389 73.8213L58.5471 73.792V73.46C58.5471 73.04 58.4559 72.7308 58.2736 72.5322C58.0946 72.3304 57.8065 72.2295 57.4094 72.2295C56.9634 72.2295 56.4589 72.3662 55.8957 72.6396L55.6467 72.0195C55.9104 71.8763 56.1984 71.764 56.5109 71.6826C56.8267 71.6012 57.1424 71.5605 57.4582 71.5605C58.0962 71.5605 58.5682 71.7021 58.8742 71.9854C59.1835 72.2686 59.3381 72.7227 59.3381 73.3477V77H58.7375ZM56.9064 76.4287C57.411 76.4287 57.8065 76.2904 58.093 76.0137C58.3827 75.737 58.5275 75.3496 58.5275 74.8516V74.3682L57.717 74.4023C57.0725 74.4251 56.607 74.526 56.3205 74.7051C56.0373 74.8809 55.8957 75.1559 55.8957 75.5303C55.8957 75.8232 55.9836 76.0462 56.1594 76.1992C56.3384 76.3522 56.5874 76.4287 56.9064 76.4287ZM64.565 75.54C64.565 76.0381 64.3795 76.4222 64.0084 76.6924C63.6373 76.9626 63.1165 77.0977 62.4459 77.0977C61.7363 77.0977 61.1829 76.9854 60.7857 76.7607V76.0088C61.0429 76.139 61.318 76.2415 61.6109 76.3164C61.9072 76.3913 62.192 76.4287 62.4654 76.4287C62.8886 76.4287 63.2141 76.362 63.442 76.2285C63.6699 76.0918 63.7838 75.8851 63.7838 75.6084C63.7838 75.4001 63.6926 75.2227 63.5104 75.0762C63.3313 74.9264 62.9798 74.7507 62.4557 74.5488C61.9576 74.3633 61.6028 74.2021 61.3912 74.0654C61.1829 73.9255 61.0266 73.7676 60.9225 73.5918C60.8215 73.416 60.7711 73.2061 60.7711 72.9619C60.7711 72.5257 60.9485 72.1823 61.3033 71.9316C61.6581 71.6777 62.1448 71.5508 62.7633 71.5508C63.3395 71.5508 63.9026 71.668 64.4527 71.9023L64.1646 72.5615C63.6275 72.3402 63.1409 72.2295 62.7047 72.2295C62.3206 72.2295 62.0309 72.2897 61.8355 72.4102C61.6402 72.5306 61.5426 72.6966 61.5426 72.9082C61.5426 73.0514 61.5784 73.1735 61.65 73.2744C61.7249 73.3753 61.8437 73.4714 62.0064 73.5625C62.1692 73.6536 62.4817 73.7855 62.9439 73.958C63.5787 74.1891 64.0068 74.4219 64.2281 74.6562C64.4527 74.8906 64.565 75.1852 64.565 75.54ZM68.808 77V69.8613H69.6381V76.248H72.7875V77H68.808ZM77.2723 77L77.1111 76.2383H77.0721C76.8051 76.5736 76.5382 76.8014 76.2713 76.9219C76.0076 77.0391 75.6772 77.0977 75.2801 77.0977C74.7495 77.0977 74.3328 76.9609 74.0301 76.6875C73.7306 76.4141 73.5809 76.0251 73.5809 75.5205C73.5809 74.4398 74.4451 73.8734 76.1736 73.8213L77.0818 73.792V73.46C77.0818 73.04 76.9907 72.7308 76.8084 72.5322C76.6294 72.3304 76.3413 72.2295 75.9441 72.2295C75.4982 72.2295 74.9936 72.3662 74.4305 72.6396L74.1814 72.0195C74.4451 71.8763 74.7332 71.764 75.0457 71.6826C75.3615 71.6012 75.6772 71.5605 75.993 71.5605C76.631 71.5605 77.103 71.7021 77.409 71.9854C77.7182 72.2686 77.8729 72.7227 77.8729 73.3477V77H77.2723ZM75.4412 76.4287C75.9458 76.4287 76.3413 76.2904 76.6277 76.0137C76.9174 75.737 77.0623 75.3496 77.0623 74.8516V74.3682L76.2518 74.4023C75.6072 74.4251 75.1417 74.526 74.8553 74.7051C74.5721 74.8809 74.4305 75.1559 74.4305 75.5303C74.4305 75.8232 74.5184 76.0462 74.6941 76.1992C74.8732 76.3522 75.1222 76.4287 75.4412 76.4287ZM83.3098 77V73.5381C83.3098 73.1019 83.2105 72.7764 83.0119 72.5615C82.8133 72.3467 82.5025 72.2393 82.0793 72.2393C81.5194 72.2393 81.1092 72.3906 80.8488 72.6934C80.5884 72.9961 80.4582 73.4958 80.4582 74.1924V77H79.6477V71.6484H80.3068L80.4387 72.3809H80.4777C80.6437 72.1172 80.8765 71.9137 81.176 71.7705C81.4755 71.624 81.8091 71.5508 82.177 71.5508C82.8215 71.5508 83.3065 71.707 83.632 72.0195C83.9576 72.3288 84.1203 72.8252 84.1203 73.5088V77H83.3098ZM85.2408 79.4023C84.9316 79.4023 84.6809 79.3617 84.4889 79.2803V78.6211C84.7135 78.6862 84.9348 78.7188 85.1529 78.7188C85.4068 78.7188 85.5924 78.6488 85.7096 78.5088C85.83 78.3721 85.8902 78.1621 85.8902 77.8789V71.6484H86.7008V77.8203C86.7008 78.875 86.2141 79.4023 85.2408 79.4023ZM85.8219 70.1982C85.8219 70.0127 85.8674 69.8776 85.9586 69.793C86.0497 69.7051 86.1637 69.6611 86.3004 69.6611C86.4306 69.6611 86.5429 69.7051 86.6373 69.793C86.7317 69.8809 86.7789 70.016 86.7789 70.1982C86.7789 70.3805 86.7317 70.5173 86.6373 70.6084C86.5429 70.6963 86.4306 70.7402 86.3004 70.7402C86.1637 70.7402 86.0497 70.6963 85.9586 70.6084C85.8674 70.5173 85.8219 70.3805 85.8219 70.1982ZM89.2812 71.6484V75.1201C89.2812 75.5563 89.3805 75.8818 89.5791 76.0967C89.7777 76.3115 90.0885 76.4189 90.5117 76.4189C91.0716 76.4189 91.4801 76.266 91.7373 75.96C91.9977 75.654 92.1279 75.1543 92.1279 74.4609V71.6484H92.9385V77H92.2695L92.1523 76.2822H92.1084C91.9424 76.5459 91.7113 76.7477 91.415 76.8877C91.1221 77.0277 90.7868 77.0977 90.4092 77.0977C89.7581 77.0977 89.2699 76.943 88.9443 76.6338C88.6221 76.3245 88.4609 75.8298 88.4609 75.1494V71.6484H89.2812ZM96.4906 76.4287C96.6339 76.4287 96.7722 76.4189 96.9057 76.3994C97.0391 76.3766 97.1449 76.3538 97.223 76.3311V76.9512C97.1352 76.9935 97.0049 77.0277 96.8324 77.0537C96.6631 77.083 96.5102 77.0977 96.3734 77.0977C95.3383 77.0977 94.8207 76.5524 94.8207 75.4619V72.2783H94.0541V71.8877L94.8207 71.5508L95.1625 70.4082H95.6312V71.6484H97.184V72.2783H95.6312V75.4277C95.6312 75.75 95.7077 75.9974 95.8607 76.1699C96.0137 76.3424 96.2237 76.4287 96.4906 76.4287Z" fill="#4F4F4F"/>
<path fill-rule="evenodd" clip-rule="evenodd" d="M34.6667 67H25.3333C24.6 67 24 67.6 24 68.3333V77.6667C24 78.4 24.6 79 25.3333 79H34.6667C35.4 79 36 78.4 36 77.6667V68.3333C36 67.6 35.4 67 34.6667 67Z" fill="#306247"/>
<path d="M46.1377 99H45.1611L42.5586 95.5381L41.8115 96.2021V99H40.9814V91.8613H41.8115V95.4014L45.0488 91.8613H46.0303L43.1592 94.9619L46.1377 99ZM49.3627 99.0977C48.5717 99.0977 47.9467 98.8568 47.4877 98.375C47.032 97.8932 46.8041 97.2243 46.8041 96.3682C46.8041 95.5055 47.0157 94.8203 47.4389 94.3125C47.8653 93.8047 48.4366 93.5508 49.1527 93.5508C49.8233 93.5508 50.3539 93.7721 50.7445 94.2148C51.1352 94.6543 51.3305 95.2354 51.3305 95.958V96.4707H47.6439C47.6602 97.099 47.8181 97.5758 48.1176 97.9014C48.4203 98.2269 48.8451 98.3896 49.392 98.3896C49.9682 98.3896 50.5378 98.2692 51.101 98.0283V98.751C50.8145 98.8747 50.5427 98.9626 50.2855 99.0146C50.0316 99.07 49.724 99.0977 49.3627 99.0977ZM49.143 94.2295C48.7133 94.2295 48.3699 94.3695 48.1127 94.6494C47.8588 94.9294 47.709 95.3167 47.6635 95.8115H50.4613C50.4613 95.3005 50.3474 94.9098 50.1195 94.6396C49.8917 94.3662 49.5661 94.2295 49.143 94.2295ZM53.6277 99H52.8172V91.4023H53.6277V99ZM58.7375 99L58.5764 98.2383H58.5373C58.2704 98.5736 58.0035 98.8014 57.7365 98.9219C57.4729 99.0391 57.1424 99.0977 56.7453 99.0977C56.2147 99.0977 55.798 98.9609 55.4953 98.6875C55.1958 98.4141 55.0461 98.0251 55.0461 97.5205C55.0461 96.4398 55.9104 95.8734 57.6389 95.8213L58.5471 95.792V95.46C58.5471 95.04 58.4559 94.7308 58.2736 94.5322C58.0946 94.3304 57.8065 94.2295 57.4094 94.2295C56.9634 94.2295 56.4589 94.3662 55.8957 94.6396L55.6467 94.0195C55.9104 93.8763 56.1984 93.764 56.5109 93.6826C56.8267 93.6012 57.1424 93.5605 57.4582 93.5605C58.0962 93.5605 58.5682 93.7021 58.8742 93.9854C59.1835 94.2686 59.3381 94.7227 59.3381 95.3477V99H58.7375ZM56.9064 98.4287C57.411 98.4287 57.8065 98.2904 58.093 98.0137C58.3827 97.737 58.5275 97.3496 58.5275 96.8516V96.3682L57.717 96.4023C57.0725 96.4251 56.607 96.526 56.3205 96.7051C56.0373 96.8809 55.8957 97.1559 55.8957 97.5303C55.8957 97.8232 55.9836 98.0462 56.1594 98.1992C56.3384 98.3522 56.5874 98.4287 56.9064 98.4287ZM64.565 97.54C64.565 98.0381 64.3795 98.4222 64.0084 98.6924C63.6373 98.9626 63.1165 99.0977 62.4459 99.0977C61.7363 99.0977 61.1829 98.9854 60.7857 98.7607V98.0088C61.0429 98.139 61.318 98.2415 61.6109 98.3164C61.9072 98.3913 62.192 98.4287 62.4654 98.4287C62.8886 98.4287 63.2141 98.362 63.442 98.2285C63.6699 98.0918 63.7838 97.8851 63.7838 97.6084C63.7838 97.4001 63.6926 97.2227 63.5104 97.0762C63.3313 96.9264 62.9798 96.7507 62.4557 96.5488C61.9576 96.3633 61.6028 96.2021 61.3912 96.0654C61.1829 95.9255 61.0266 95.7676 60.9225 95.5918C60.8215 95.416 60.7711 95.2061 60.7711 94.9619C60.7711 94.5257 60.9485 94.1823 61.3033 93.9316C61.6581 93.6777 62.1448 93.5508 62.7633 93.5508C63.3395 93.5508 63.9026 93.668 64.4527 93.9023L64.1646 94.5615C63.6275 94.3402 63.1409 94.2295 62.7047 94.2295C62.3206 94.2295 62.0309 94.2897 61.8355 94.4102C61.6402 94.5306 61.5426 94.6966 61.5426 94.9082C61.5426 95.0514 61.5784 95.1735 61.65 95.2744C61.7249 95.3753 61.8437 95.4714 62.0064 95.5625C62.1692 95.6536 62.4817 95.7855 62.9439 95.958C63.5787 96.1891 64.0068 96.4219 64.2281 96.6562C64.4527 96.8906 64.565 97.1852 64.565 97.54ZM71.9672 99L69.5453 92.6719H69.5063C69.5518 93.1732 69.5746 93.7689 69.5746 94.459V99H68.808V91.8613H70.058L72.3188 97.75H72.3578L74.6381 91.8613H75.8783V99H75.0482V94.4004C75.0482 93.873 75.071 93.3001 75.1166 92.6816H75.0775L72.6361 99H71.9672ZM81.1102 99L80.949 98.2383H80.91C80.643 98.5736 80.3761 98.8014 80.1092 98.9219C79.8455 99.0391 79.5151 99.0977 79.118 99.0977C78.5874 99.0977 78.1707 98.9609 77.868 98.6875C77.5685 98.4141 77.4188 98.0251 77.4188 97.5205C77.4188 96.4398 78.283 95.8734 80.0115 95.8213L80.9197 95.792V95.46C80.9197 95.04 80.8286 94.7308 80.6463 94.5322C80.4673 94.3304 80.1792 94.2295 79.782 94.2295C79.3361 94.2295 78.8315 94.3662 78.2684 94.6396L78.0193 94.0195C78.283 93.8763 78.5711 93.764 78.8836 93.6826C79.1993 93.6012 79.5151 93.5605 79.8309 93.5605C80.4689 93.5605 80.9409 93.7021 81.2469 93.9854C81.5561 94.2686 81.7107 94.7227 81.7107 95.3477V99H81.1102ZM79.2791 98.4287C79.7837 98.4287 80.1792 98.2904 80.4656 98.0137C80.7553 97.737 80.9002 97.3496 80.9002 96.8516V96.3682L80.0896 96.4023C79.4451 96.4251 78.9796 96.526 78.6932 96.7051C78.41 96.8809 78.2684 97.1559 78.2684 97.5303C78.2684 97.8232 78.3563 98.0462 78.532 98.1992C78.7111 98.3522 78.9601 98.4287 79.2791 98.4287ZM87.1281 98.2822H87.0842C86.7098 98.8258 86.1499 99.0977 85.4045 99.0977C84.7046 99.0977 84.1594 98.8584 83.7687 98.3799C83.3814 97.9014 83.1877 97.221 83.1877 96.3389C83.1877 95.4567 83.383 94.7715 83.7736 94.2832C84.1643 93.7949 84.7079 93.5508 85.4045 93.5508C86.1304 93.5508 86.687 93.8145 87.0744 94.3418H87.1379L87.1037 93.9561L87.0842 93.5801V91.4023H87.8947V99H87.2355L87.1281 98.2822ZM85.507 98.4189C86.0604 98.4189 86.4608 98.2692 86.7082 97.9697C86.9589 97.667 87.0842 97.1803 87.0842 96.5098V96.3389C87.0842 95.5804 86.9572 95.04 86.7033 94.7178C86.4527 94.3923 86.0507 94.2295 85.4973 94.2295C85.022 94.2295 84.6574 94.415 84.4035 94.7861C84.1529 95.154 84.0275 95.6748 84.0275 96.3486C84.0275 97.0322 84.1529 97.5482 84.4035 97.8965C84.6542 98.2448 85.022 98.4189 85.507 98.4189ZM88.8688 93.6484H89.7379L90.9098 96.7002C91.1669 97.3968 91.3264 97.8997 91.3883 98.209H91.4273C91.4697 98.043 91.5576 97.7598 91.691 97.3594C91.8277 96.9557 92.2704 95.7188 93.0191 93.6484H93.8883L91.5885 99.7422C91.3606 100.344 91.0937 100.771 90.7877 101.021C90.485 101.275 90.1122 101.402 89.6695 101.402C89.4221 101.402 89.178 101.375 88.9371 101.319V100.67C89.1161 100.709 89.3163 100.729 89.5377 100.729C90.0943 100.729 90.4915 100.416 90.7291 99.791L91.027 99.0293L88.8688 93.6484ZM98.1484 99L97.9873 98.2383H97.9482C97.6813 98.5736 97.4144 98.8014 97.1475 98.9219C96.8838 99.0391 96.5534 99.0977 96.1562 99.0977C95.6257 99.0977 95.209 98.9609 94.9062 98.6875C94.6068 98.4141 94.457 98.0251 94.457 97.5205C94.457 96.4398 95.3213 95.8734 97.0498 95.8213L97.958 95.792V95.46C97.958 95.04 97.8669 94.7308 97.6846 94.5322C97.5055 94.3304 97.2174 94.2295 96.8203 94.2295C96.3743 94.2295 95.8698 94.3662 95.3066 94.6396L95.0576 94.0195C95.3213 93.8763 95.6094 93.764 95.9219 93.6826C96.2376 93.6012 96.5534 93.5605 96.8691 93.5605C97.5072 93.5605 97.9792 93.7021 98.2852 93.9854C98.5944 94.2686 98.749 94.7227 98.749 95.3477V99H98.1484ZM96.3174 98.4287C96.8219 98.4287 97.2174 98.2904 97.5039 98.0137C97.7936 97.737 97.9385 97.3496 97.9385 96.8516V96.3682L97.1279 96.4023C96.4834 96.4251 96.0179 96.526 95.7314 96.7051C95.4482 96.8809 95.3066 97.1559 95.3066 97.5303C95.3066 97.8232 95.3945 98.0462 95.5703 98.1992C95.7493 98.3522 95.9984 98.4287 96.3174 98.4287Z" fill="#4F4F4F"/>
<path fill-rule="evenodd" clip-rule="evenodd" d="M34.6667 89H25.3333C24.6 89 24 89.6 24 90.3333V99.6667C24 100.4 24.6 101 25.3333 101H34.6667C35.4 101 36 100.4 36 99.6667V90.3333C36 89.6 35.4 89 34.6667 89Z" fill="#009D57"/>
<defs>
<filter id="filter0_d" x="0" y="0" width="177" height="172" filterUnits="userSpaceOnUse" color-interpolation-filters="sRGB">
<feFlood flood-opacity="0" result="BackgroundImageFix"/>
<feColorMatrix in="SourceAlpha" type="matrix" values="0 0 0 0 0 0 0 0 0 0 0 0 0 0 0 0 0 0 127 0"/>
<feOffset dy="2"/>
<feGaussianBlur stdDeviation="6"/>
<feColorMatrix type="matrix" values="0 0 0 0 0 0 0 0 0 0 0 0 0 0 0 0 0 0 0.1 0"/>
<feBlend mode="normal" in2="BackgroundImageFix" result="effect1_dropShadow"/>
<feBlend mode="normal" in="SourceGraphic" in2="effect1_dropShadow" result="shape"/>
</filter>
</defs>
</svg>
