<svg width="16" height="14" viewBox="0 0 16 14" fill="none" xmlns="http://www.w3.org/2000/svg">
<path fill-rule="evenodd" clip-rule="evenodd" d="M0 0.777778C0 0.348223 0.339098 0 0.757396 0H3.1716C4.65304 0 6.07381 0.604339 7.12135 1.68007C8.16889 2.7558 8.7574 4.2148 8.7574 5.73611H7.2426C7.2426 4.62736 6.81369 3.56402 6.05023 2.78001C5.28677 1.99601 4.2513 1.55556 3.1716 1.55556H1.51479V2.43056C1.51479 3.53931 1.9437 4.60265 2.70716 5.38665C3.47062 6.17066 4.5061 6.61111 5.5858 6.61111H8V8.16667H5.5858C4.10435 8.16667 2.68358 7.56233 1.63604 6.4866C0.588502 5.41087 0 3.95187 0 2.43056V0.777778Z" fill="#449067"/>
<path fill-rule="evenodd" clip-rule="evenodd" d="M12.8284 4.86111C11.7487 4.86111 10.7132 5.30156 9.94977 6.08557C9.18631 6.86957 8.7574 7.93291 8.7574 9.04167H7.2426C7.2426 7.52036 7.83111 6.06135 8.87865 4.98562C9.92619 3.90989 11.347 3.30556 12.8284 3.30556H15.2426C15.6609 3.30556 16 3.65378 16 4.08333V4.90972C16 6.43103 15.4115 7.89004 14.364 8.96576C13.3164 10.0415 11.8956 10.6458 10.4142 10.6458H8V9.09028H10.4142C11.4939 9.09028 12.5294 8.64983 13.2928 7.86582C14.0563 7.08182 14.4852 6.01848 14.4852 4.90972V4.86111H12.8284Z" fill="#449067"/>
<path fill-rule="evenodd" clip-rule="evenodd" d="M8.7574 5.73611V14H7.2426V5.73611H8.7574Z" fill="#449067"/>
</svg>
