<svg width="18" height="18" viewBox="0 0 18 18" fill="none" xmlns="http://www.w3.org/2000/svg">
<path d="M13.2632 2.63356C12.429 2.63293 11.6104 2.8485 10.8947 3.25725C10.3758 2.12085 9.46458 1.18834 8.31272 0.614999C7.16087 0.0416622 5.83793 -0.137898 4.5642 0.106218C3.29046 0.350335 2.14281 1.0034 1.31235 1.95665C0.481885 2.90991 0.0187266 4.10584 0 5.34528V8.96092C0.00136027 10.2416 0.477707 11.4806 1.34468 12.4583C2.21165 13.4361 3.41331 14.0896 4.73684 14.303V17.0961C4.73684 17.3358 4.83665 17.5657 5.01432 17.7353C5.19199 17.9048 5.43295 18 5.68421 18C5.93547 18 6.17643 17.9048 6.3541 17.7353C6.53177 17.5657 6.63158 17.3358 6.63158 17.0961V14.303C7.59669 14.1432 8.50315 13.7512 9.26526 13.1641C9.60349 13.682 10.0481 14.1293 10.5724 14.4788C11.0967 14.8283 11.6897 15.0729 12.3158 15.1979V17.0961C12.3158 17.3358 12.4156 17.5657 12.5933 17.7353C12.7709 17.9048 13.0119 18 13.2632 18C13.5144 18 13.7554 17.9048 13.933 17.7353C14.1107 17.5657 14.2105 17.3358 14.2105 17.0961V15.1979C15.2805 14.9895 16.2421 14.4348 16.9326 13.6277C17.6232 12.8206 18.0002 11.8106 18 10.7687V7.1531C18 5.95444 17.5009 4.80488 16.6126 3.9573C15.7243 3.10972 14.5194 2.63356 13.2632 2.63356ZM8.52632 7.1531V10.7687C8.53538 10.9413 8.55435 11.1133 8.58316 11.284C8.07649 11.8597 7.39433 12.2705 6.63158 12.459V9.86482C6.63158 9.62509 6.53177 9.39518 6.3541 9.22567C6.17643 9.05615 5.93547 8.96092 5.68421 8.96092C5.43295 8.96092 5.19199 9.05615 5.01432 9.22567C4.83665 9.39518 4.73684 9.62509 4.73684 9.86482V12.45C3.92544 12.2501 3.20638 11.7992 2.69213 11.1679C2.17788 10.5366 1.89746 9.76048 1.89474 8.96092V5.34528C1.89227 4.62899 2.11284 3.92815 2.52847 3.33165C2.94409 2.73515 3.53605 2.26988 4.22925 1.99486C4.92244 1.71985 5.68563 1.64748 6.42199 1.78694C7.15836 1.9264 7.83472 2.2714 8.36526 2.77818C8.87812 3.2741 9.22727 3.90265 9.36947 4.586C8.82183 5.3402 8.52775 6.23558 8.52632 7.1531ZM16.1053 10.7687C16.1036 11.3282 15.9206 11.8735 15.5814 12.3298C15.2422 12.7862 14.7634 13.1313 14.2105 13.3178V9.86482C14.2105 9.62509 14.1107 9.39518 13.933 9.22567C13.7554 9.05615 13.5144 8.96092 13.2632 8.96092C13.0119 8.96092 12.7709 9.05615 12.5933 9.22567C12.4156 9.39518 12.3158 9.62509 12.3158 9.86482V13.3178C11.763 13.1313 11.2841 12.7862 10.9449 12.3298C10.6057 11.8735 10.4227 11.3282 10.4211 10.7687V7.1531C10.4211 6.43391 10.7205 5.74417 11.2535 5.23562C11.7865 4.72707 12.5094 4.44137 13.2632 4.44137C14.0169 4.44137 14.7398 4.72707 15.2728 5.23562C15.8058 5.74417 16.1053 6.43391 16.1053 7.1531V10.7687Z" fill="#BDB89A"/>
</svg>
