<svg width="16" height="12" viewBox="0 0 16 12" fill="none" xmlns="http://www.w3.org/2000/svg">
<path fill-rule="evenodd" clip-rule="evenodd" d="M15.2542 7.55203C15.1991 7.60333 15.1337 7.64403 15.0616 7.6718C14.9895 7.69957 14.9122 7.71387 14.8342 7.71387C14.7561 7.71387 14.6788 7.69957 14.6068 7.6718C14.5347 7.64403 14.4692 7.60333 14.4141 7.55203L7.71412 1.33039L1.01416 7.55202C0.902742 7.65547 0.751635 7.71358 0.594073 7.71358C0.436511 7.71358 0.285403 7.65547 0.17399 7.55202C0.0625773 7.44858 -1.3316e-05 7.30829 -1.33032e-05 7.162C-1.32904e-05 7.01571 0.0625773 6.87542 0.17399 6.77198L7.29403 0.161422C7.34915 0.110121 7.41463 0.0694187 7.48671 0.0416472C7.5588 0.0138758 7.63607 -0.000419344 7.71412 -0.000419337C7.79216 -0.000419331 7.86944 0.0138758 7.94152 0.0416473C8.01361 0.0694187 8.07908 0.110121 8.1342 0.161422L15.2542 6.77198C15.3095 6.82315 15.3533 6.88394 15.3832 6.95087C15.4132 7.0178 15.4286 7.08954 15.4286 7.162C15.4286 7.23446 15.4132 7.30621 15.3832 7.37314C15.3533 7.44006 15.3095 7.50085 15.2542 7.55203Z" fill="#319A62"/>
<path fill-rule="evenodd" clip-rule="evenodd" d="M15.2542 11.8382C15.1991 11.8895 15.1337 11.9302 15.0616 11.9579C14.9895 11.9857 14.9122 12 14.8342 12C14.7561 12 14.6788 11.9857 14.6068 11.9579C14.5347 11.9302 14.4692 11.8895 14.4141 11.8382L7.71412 5.61652L1.01416 11.8382C0.95899 11.8894 0.893498 11.93 0.821421 11.9577C0.749342 11.9854 0.67209 11.9997 0.594073 11.9997C0.516056 11.9997 0.438804 11.9854 0.366726 11.9577C0.294648 11.93 0.229157 11.8894 0.17399 11.8382C0.118824 11.7869 0.0750637 11.7261 0.045208 11.6592C0.0153532 11.5923 -1.33095e-05 11.5206 -1.33032e-05 11.4481C-1.32969e-05 11.3757 0.0153533 11.304 0.045208 11.2371C0.0750638 11.1701 0.118824 11.1093 0.17399 11.0581L7.29403 4.44755C7.34915 4.39625 7.41463 4.35555 7.48671 4.32778C7.5588 4.30001 7.63607 4.28571 7.71412 4.28571C7.79216 4.28571 7.86944 4.30001 7.94152 4.32778C8.01361 4.35555 8.07908 4.39625 8.1342 4.44755L15.2542 11.0581C15.3095 11.1093 15.3533 11.1701 15.3832 11.237C15.4132 11.3039 15.4286 11.3757 15.4286 11.4481C15.4286 11.5206 15.4132 11.5923 15.3832 11.6593C15.3533 11.7262 15.3095 11.787 15.2542 11.8382Z" fill="#319A62"/>
</svg>
