<svg width="404" height="449" viewBox="0 0 404 449" fill="none" xmlns="http://www.w3.org/2000/svg">
<mask id="mask0" mask-type="alpha" maskUnits="userSpaceOnUse" x="0" y="0" width="404" height="449">
<path d="M0 8.00001C0 3.58174 3.58172 0 8 0H404V448.603H8C3.58172 448.603 0 445.021 0 440.603V8.00001Z" fill="white"/>
</mask>
<g mask="url(#mask0)">
<rect width="808" height="448" rx="8" fill="#2C734D"/>
<path d="M276.71 0V149.42C194.182 149.42 127.29 82.5276 127.29 0H276.71Z" fill="#286347"/>
<path d="M127.289 149.42L-22.1308 149.42C-22.1308 66.8925 44.7617 -3.6074e-06 127.289 0L127.289 149.42Z" fill="#205B3B"/>
<path d="M127.29 149.79L276.71 149.79C276.71 232.317 209.817 299.21 127.29 299.21L127.29 149.79Z" fill="#266F48"/>
<path opacity="0.5" d="M276.71 449H127.29V299.58C209.817 299.58 276.71 366.472 276.71 449Z" fill="#36885C"/>
<path opacity="0.5" d="M426.129 299.58C426.129 382.107 359.237 449 276.709 449C276.709 366.472 343.602 299.58 426.129 299.58Z" fill="#449067"/>
<path d="M426.129 149.42C343.601 149.42 276.709 82.5276 276.709 -6.53136e-06C359.236 -2.92396e-06 426.129 66.8925 426.129 149.42Z" fill="#266543"/>
<path d="M127.29 449C44.7626 449 -22.13 382.107 -22.13 299.58C60.3977 299.58 127.29 366.472 127.29 449Z" fill="#206A42"/>
<path opacity="0.5" d="M276.71 149.42L276.71 0.000139525C359.237 0.00014674 426.13 66.8927 426.13 149.42L276.71 149.42Z" fill="#5BAF83" fill-opacity="0.51"/>
<path opacity="0.5" d="M127.289 299.21L276.709 299.21L276.709 448.631C194.182 448.631 127.289 381.738 127.289 299.21Z" fill="#36885C"/>
<path opacity="0.5" d="M-22.1303 298.841C-22.1303 216.313 44.7622 149.42 127.29 149.42C127.29 231.948 60.3973 298.841 -22.1303 298.841Z" fill="#449067"/>
<path opacity="0.5" d="M276.71 149.42C359.237 149.42 426.13 216.313 426.13 298.841C343.602 298.841 276.71 231.948 276.71 149.42Z" fill="#206A42"/>
</g>
</svg>
