<svg width="468" height="156" viewBox="0 0 468 156" fill="none" xmlns="http://www.w3.org/2000/svg">
<g opacity="0.44">
<path d="M312 0V156C225.838 156 156 86.1618 156 0H312Z" fill="#A2AF9F"/>
<path d="M312 156H156V0C242.162 0 312 69.8382 312 156Z" fill="#A1AF9F"/>
<path fill-rule="evenodd" clip-rule="evenodd" d="M156 0C242.162 0 312 69.8382 312 156C225.838 156 156 86.1618 156 0Z" fill="#809879"/>
<path d="M156 0C156 86.1618 86.1618 156 0 156C0 69.8382 69.8382 0 156 0Z" fill="#9EAA98"/>
<path d="M452.025 0.807733C460.817 -0.086295 468.086 7.18334 467.192 15.9745C459.193 94.631 392.769 156 312 156C312 75.2314 373.369 8.80681 452.025 0.807733Z" fill="#92A291"/>
</g>
</svg>
