<svg width="16" height="16" viewBox="0 0 16 16" fill="none" xmlns="http://www.w3.org/2000/svg">
<path fill-rule="evenodd" clip-rule="evenodd" d="M6.14922 1.93407C3.82125 1.93407 1.93407 3.82125 1.93407 6.14922C1.93407 10.5215 5.4785 14.0659 9.85078 14.0659C12.1787 14.0659 14.0659 12.1787 14.0659 9.85078C14.0659 5.4785 10.5215 1.93407 6.14922 1.93407ZM0 6.14922C1.04799e-07 2.7531 2.7531 -1.04799e-07 6.14922 0C11.5897 2.09599e-07 16 4.41034 16 9.85078C16 13.2469 13.2469 16 9.85078 16C4.41034 16 -2.09599e-07 11.5897 0 6.14922Z" fill="#806052"/>
<path fill-rule="evenodd" clip-rule="evenodd" d="M4.67884 4.67884C5.05649 4.30119 5.66878 4.30119 6.04643 4.67884L11.3212 9.95357L9.95357 11.3212L4.67884 6.04643C4.30119 5.66878 4.30119 5.05649 4.67884 4.67884Z" fill="#806052"/>
</svg>
