<svg width="16" height="14" viewBox="0 0 16 14" fill="none" xmlns="http://www.w3.org/2000/svg">
<path d="M5.6 6.54287C6.2329 6.54287 6.85159 6.351 7.37783 5.99153C7.90406 5.63206 8.31422 5.12114 8.55642 4.52336C8.79862 3.92558 8.86199 3.26781 8.73851 2.63321C8.61504 1.99861 8.31027 1.4157 7.86274 0.958182C7.41522 0.500664 6.84503 0.18909 6.22429 0.0628612C5.60355 -0.0633678 4.96014 0.00141745 4.37541 0.249025C3.79069 0.496632 3.29092 0.915939 2.9393 1.45392C2.58768 1.99191 2.4 2.62441 2.4 3.27144C2.4 4.13907 2.73714 4.97118 3.33726 5.58469C3.93738 6.1982 4.75131 6.54287 5.6 6.54287ZM5.6 1.63572C5.91645 1.63572 6.22579 1.73165 6.48891 1.91139C6.75203 2.09112 6.95711 2.34659 7.07821 2.64547C7.19931 2.94436 7.23099 3.27325 7.16926 3.59055C7.10752 3.90785 6.95514 4.1993 6.73137 4.42806C6.50761 4.65682 6.22252 4.81261 5.91215 4.87572C5.60178 4.93884 5.28007 4.90644 4.98771 4.78264C4.69535 4.65884 4.44546 4.44918 4.26965 4.18019C4.09384 3.9112 4 3.59495 4 3.27144C4 2.83762 4.16857 2.42157 4.46863 2.11481C4.76869 1.80805 5.17565 1.63572 5.6 1.63572ZM12 8.17859C12.4747 8.17859 12.9387 8.03469 13.3334 7.76508C13.728 7.49548 14.0357 7.11229 14.2173 6.66395C14.399 6.21562 14.4465 5.72229 14.3539 5.24634C14.2613 4.77039 14.0327 4.33321 13.6971 3.99007C13.3614 3.64693 12.9338 3.41325 12.4682 3.31858C12.0027 3.22391 11.5201 3.2725 11.0816 3.4582C10.643 3.64391 10.2682 3.95839 10.0045 4.36188C9.74076 4.76537 9.6 5.23974 9.6 5.72501C9.6 6.37574 9.85286 6.99982 10.3029 7.45995C10.753 7.92009 11.3635 8.17859 12 8.17859ZM12 4.90715C12.1582 4.90715 12.3129 4.95512 12.4445 5.04499C12.576 5.13485 12.6786 5.26259 12.7391 5.41203C12.7997 5.56147 12.8155 5.72592 12.7846 5.88457C12.7538 6.04322 12.6776 6.18894 12.5657 6.30332C12.4538 6.4177 12.3113 6.4956 12.1561 6.52715C12.0009 6.55871 11.84 6.54252 11.6939 6.48061C11.5477 6.41871 11.4227 6.31389 11.3348 6.17939C11.2469 6.04489 11.2 5.88677 11.2 5.72501C11.2 5.5081 11.2843 5.30008 11.4343 5.1467C11.5843 4.99332 11.7878 4.90715 12 4.90715ZM12 8.99645C11.1135 8.99745 10.2524 9.29952 9.552 9.8552C8.76841 9.05726 7.77125 8.51439 6.68626 8.29507C5.60127 8.07575 4.47706 8.18978 3.45538 8.62279C2.43371 9.05581 1.56033 9.78841 0.945393 10.7282C0.330455 11.668 0.00149616 12.7729 0 13.9036C0.015625 13.9036 0 14.1205 0 13.9036C0.212173 13.9036 1.6 13.9036 1.6 13.9036C1.6 12.819 2.02143 11.7789 2.77157 11.012C3.52172 10.2451 4.53913 9.8143 5.6 9.8143C6.66087 9.8143 7.67828 10.2451 8.42843 11.012C9.17857 11.7789 9.6 12.819 9.6 13.9036L11.2 13.9036C11.2019 12.9454 10.9651 12.0025 10.512 11.1638C10.8655 10.8782 11.2906 10.7001 11.7385 10.6499C12.1864 10.5997 12.6391 10.6794 13.0448 10.88C13.4504 11.0805 13.7927 11.3937 14.0323 11.7838C14.272 12.1739 14.3994 12.6251 14.4 13.0857H16C16 12.0012 15.5786 10.9611 14.8284 10.1942C14.0783 9.42728 13.0609 8.99645 12 8.99645Z" fill="#4F4F4F"/>
</svg>
