<svg width="52" height="52" viewBox="0 0 52 52" fill="none" xmlns="http://www.w3.org/2000/svg">
<rect width="52" height="52" rx="12" fill="#EFF4EE"/>
<path d="M33.8 35.75H18.2C17.683 35.7494 17.1873 35.5491 16.8218 35.1928C16.4562 34.8365 16.2506 34.3535 16.25 33.8496V25.0642C16.2502 24.7994 16.3071 24.5376 16.417 24.2955C16.5269 24.0534 16.6874 23.8363 16.8882 23.658L24.6876 16.747C25.0457 16.4273 25.5137 16.25 25.9994 16.25C26.4851 16.25 26.9531 16.4273 27.3113 16.7469L35.1118 23.658L35.1121 23.6582C35.3128 23.8365 35.4732 24.0536 35.5831 24.2957C35.6929 24.5378 35.7498 24.7996 35.75 25.0643V33.8496C35.7494 34.3535 35.5438 34.8365 35.1782 35.1928C34.8127 35.5491 34.317 35.7494 33.8 35.75ZM18.59 33.4696H33.41V25.2323L25.9994 18.6667L18.59 25.2323V33.4696Z" fill="#449067"/>
</svg>
