<svg width="16" height="16" viewBox="0 0 16 16" fill="none" xmlns="http://www.w3.org/2000/svg">
<path fill-rule="evenodd" clip-rule="evenodd" d="M8.73555 0.322238H8.72727V6.99143C8.72727 7.14672 8.85329 7.27273 9.00837 7.27273H15.6777V7.26445C15.6833 7.2653 15.6886 7.26678 15.694 7.26825C15.702 7.27049 15.7101 7.27273 15.7189 7.27273C15.7423 7.27273 15.765 7.26986 15.7868 7.26445C15.9091 7.23404 16 7.12329 16 6.99143C15.9959 6.59821 15.9597 6.2127 15.894 5.8374L15.8919 5.82576C15.377 2.91696 13.0832 0.623255 10.1743 0.108177L10.1622 0.10606C9.78698 0.040285 9.40153 0.00410058 9.00837 0C8.87669 0 8.76596 0.090852 8.73555 0.213335C8.73014 0.2351 8.72727 0.257864 8.72727 0.281295C8.72727 0.289959 8.72949 0.297935 8.73172 0.305957C8.73321 0.311287 8.7347 0.31665 8.73555 0.322238ZM10.1818 5.81818H14.4066C13.9305 3.72068 12.2796 2.06972 10.1818 1.59343V5.81818Z" fill="#585858"/>
<path fill-rule="evenodd" clip-rule="evenodd" d="M7.35619 8.66212C7.40772 8.71368 7.47761 8.74267 7.5505 8.74273H13.5434C13.6952 8.74273 13.8182 8.86591 13.8182 9.01771C13.8182 9.01893 13.8178 9.02005 13.8175 9.02119C13.8171 9.02238 13.8167 9.02359 13.8167 9.02497L13.8174 9.05C13.8178 9.06366 13.8182 9.07724 13.8182 9.09091C13.8182 12.9066 10.7248 16 6.90909 16C3.0934 16 0 12.9066 0 9.09091C0 5.74612 2.37699 2.95634 5.53385 2.3187C5.63237 2.2988 5.73164 2.281 5.83163 2.26534L5.83438 2.26491C6.1111 2.22169 6.39325 2.1949 6.67982 2.18555C6.70216 2.18482 6.72452 2.1842 6.74691 2.18368C6.80082 2.18244 6.85488 2.18182 6.90909 2.18182C6.92213 2.18182 6.93512 2.18229 6.94811 2.18276C6.95944 2.18317 6.97091 2.18359 6.98229 2.18368V2.18555C6.98529 2.18536 6.98815 2.18451 6.99092 2.18368C6.99407 2.18275 6.99724 2.18182 7.00075 2.18182C7.01165 2.18182 7.0224 2.18245 7.03296 2.18368C7.0374 2.1842 7.0418 2.18482 7.04617 2.18555C7.1545 2.20355 7.24148 2.28486 7.26764 2.3903C7.27292 2.41159 7.27573 2.43386 7.27573 2.4568C7.27573 2.46527 7.27356 2.47306 7.27138 2.4809C7.26993 2.48612 7.26847 2.49135 7.26764 2.49682H7.27573V8.46775C7.27573 8.54064 7.30467 8.61055 7.35619 8.66212ZM6.32729 9.69025C6.65136 10.0146 7.09094 10.1969 7.5494 10.1973H12.2514C11.74 12.6792 9.5424 14.5455 6.90909 14.5455C3.89673 14.5455 1.45455 12.1033 1.45455 9.09091C1.45455 6.45108 3.33003 4.24913 5.82118 3.74488V8.46775C5.82118 8.92622 6.00322 9.36594 6.32729 9.69025Z" fill="#585858"/>
</svg>
