<svg width="52" height="52" viewBox="0 0 52 52" fill="none" xmlns="http://www.w3.org/2000/svg">
<rect width="52" height="52" rx="12" fill="#EFF4EE"/>
<path d="M26 18.5656C26.3361 18.5656 26.6689 18.6318 26.9794 18.7604C27.2899 18.8891 27.5721 19.0776 27.8098 19.3152C28.0474 19.5529 28.2359 19.8351 28.3646 20.1456C28.4932 20.4561 28.5594 20.7889 28.5594 21.125C28.5594 21.4611 28.4932 21.7939 28.3646 22.1044C28.2359 22.4149 28.0474 22.6971 27.8098 22.9348C27.5721 23.1724 27.2899 23.3609 26.9794 23.4896C26.6689 23.6182 26.3361 23.6844 26 23.6844C25.3212 23.6844 24.6702 23.4147 24.1902 22.9348C23.7103 22.4548 23.4406 21.8038 23.4406 21.125C23.4406 20.4462 23.7103 19.7952 24.1902 19.3152C24.6702 18.8353 25.3212 18.5656 26 18.5656ZM26 29.5344C29.6197 29.5344 33.4344 31.3138 33.4344 32.0938V33.4344H18.5656V32.0938C18.5656 31.3138 22.3803 29.5344 26 29.5344ZM26 16.25C23.3066 16.25 21.125 18.4316 21.125 21.125C21.125 23.8184 23.3066 26 26 26C28.6934 26 30.875 23.8184 30.875 21.125C30.875 18.4316 28.6934 16.25 26 16.25ZM26 27.2188C22.7459 27.2188 16.25 28.8519 16.25 32.0938V34.5312C16.25 35.2016 16.7984 35.75 17.4688 35.75H34.5312C35.2016 35.75 35.75 35.2016 35.75 34.5312V32.0938C35.75 28.8519 29.2541 27.2188 26 27.2188Z" fill="#449067"/>
</svg>
