<svg width="134" height="32" viewBox="0 0 134 32" fill="none" xmlns="http://www.w3.org/2000/svg">
<path d="M43.12 22.2668C43.5585 22.2668 43.9615 22.3409 44.3289 22.4891C44.7022 22.6313 45.0222 22.8387 45.2889 23.1113C45.5556 23.3779 45.763 23.7009 45.9111 24.0802C46.0652 24.4594 46.1422 24.8831 46.1422 25.3513C46.1422 25.8194 46.0652 26.2431 45.9111 26.6224C45.763 27.0016 45.5556 27.3276 45.2889 27.6002C45.0222 27.8668 44.7022 28.0742 44.3289 28.2224C43.9615 28.3705 43.5585 28.4446 43.12 28.4446H40.8889V22.2668H43.12ZM43.1022 27.7691C43.4341 27.7691 43.7363 27.7128 44.0089 27.6002C44.2874 27.4876 44.5274 27.3276 44.7289 27.1202C44.9363 26.9128 45.0963 26.6609 45.2089 26.3646C45.3215 26.0683 45.3778 25.7335 45.3778 25.3602C45.3778 24.9928 45.3215 24.6609 45.2089 24.3646C45.0963 24.0624 44.9363 23.8076 44.7289 23.6002C44.5274 23.3868 44.2874 23.2239 44.0089 23.1113C43.7363 22.9987 43.4341 22.9424 43.1022 22.9424H41.6445V27.7691H43.1022Z" fill="white"/>
<path d="M47.5186 22.8979C47.3468 22.8979 47.2046 22.8446 47.092 22.7379C46.9794 22.6313 46.9231 22.492 46.9231 22.3202C46.9231 22.1483 46.9794 22.0061 47.092 21.8935C47.2046 21.7809 47.3468 21.7246 47.5186 21.7246C47.6905 21.7246 47.8327 21.7809 47.9453 21.8935C48.0579 22.0061 48.1142 22.1483 48.1142 22.3202C48.1142 22.492 48.0579 22.6313 47.9453 22.7379C47.8327 22.8446 47.6905 22.8979 47.5186 22.8979ZM47.1453 23.7602H47.9009V28.4446H47.1453V23.7602Z" fill="white"/>
<path d="M51.4794 23.6624C52.0838 23.6624 52.552 23.8372 52.8838 24.1868C53.2157 24.5305 53.3816 24.9957 53.3816 25.5824V28.4446H52.6261V25.7157C52.6261 25.2772 52.5076 24.9365 52.2705 24.6935C52.0335 24.4505 51.7046 24.332 51.2838 24.3379C51.0824 24.3379 50.8987 24.3735 50.7327 24.4446C50.5668 24.5098 50.4216 24.5987 50.2972 24.7113C50.1787 24.8179 50.0838 24.9454 50.0127 25.0935C49.9416 25.2357 49.9061 25.3868 49.9061 25.5468V28.4446H49.1505V23.7602H49.8616V24.4446C50.0157 24.2194 50.229 24.0328 50.5016 23.8846C50.7801 23.7365 51.1061 23.6624 51.4794 23.6624Z" fill="white"/>
<path d="M59.0645 23.7602V28.4446H58.3623V27.5468C58.1845 27.8609 57.9445 28.1068 57.6423 28.2846C57.346 28.4565 56.9994 28.5424 56.6023 28.5424C56.2705 28.5424 55.9623 28.4802 55.6779 28.3557C55.3994 28.2313 55.1564 28.0624 54.949 27.8491C54.7475 27.6298 54.5875 27.372 54.469 27.0757C54.3564 26.7735 54.3001 26.4476 54.3001 26.0979C54.3001 25.7483 54.3564 25.4283 54.469 25.1379C54.5875 24.8476 54.7475 24.5957 54.949 24.3824C55.1564 24.1691 55.3994 24.0031 55.6779 23.8846C55.9623 23.7661 56.2705 23.7068 56.6023 23.7068C56.9994 23.7068 57.346 23.7928 57.6423 23.9646C57.9445 24.1305 58.1845 24.3646 58.3623 24.6668V23.7602H59.0645ZM56.6912 27.8757C56.9342 27.8757 57.1564 27.8342 57.3579 27.7513C57.5594 27.6624 57.7312 27.5409 57.8734 27.3868C58.0216 27.2268 58.1342 27.0372 58.2112 26.8179C58.2942 26.5987 58.3357 26.3587 58.3357 26.0979C58.3357 25.8372 58.2942 25.6002 58.2112 25.3868C58.1342 25.1676 58.0216 24.9809 57.8734 24.8268C57.7312 24.6668 57.5594 24.5454 57.3579 24.4624C57.1564 24.3735 56.9342 24.3291 56.6912 24.3291C56.4542 24.3291 56.2349 24.3735 56.0334 24.4624C55.8379 24.5513 55.666 24.6757 55.5179 24.8357C55.3697 24.9957 55.2542 25.1854 55.1712 25.4046C55.0882 25.6179 55.0468 25.8491 55.0468 26.0979C55.0468 26.3528 55.0882 26.5898 55.1712 26.8091C55.2542 27.0224 55.3697 27.2091 55.5179 27.3691C55.666 27.5291 55.8379 27.6535 56.0334 27.7424C56.2349 27.8313 56.4542 27.8757 56.6912 27.8757Z" fill="white"/>
<path d="M61.8333 28.5424C61.3474 28.5424 60.9355 28.4476 60.5977 28.2579C60.26 28.0624 60.0288 27.7779 59.9044 27.4046L60.6244 27.1202C60.7014 27.3631 60.8437 27.5528 61.0511 27.6891C61.2644 27.8194 61.534 27.8846 61.86 27.8846C62.1563 27.8846 62.3903 27.8254 62.5622 27.7068C62.74 27.5883 62.8288 27.4194 62.8288 27.2002C62.8288 27.0105 62.7607 26.8624 62.6244 26.7557C62.494 26.6491 62.3281 26.5572 62.1266 26.4802C61.9311 26.4031 61.7148 26.332 61.4777 26.2668C61.2466 26.2016 61.0303 26.1187 60.8288 26.0179C60.6333 25.9113 60.4674 25.7779 60.3311 25.6179C60.2007 25.452 60.1355 25.2357 60.1355 24.9691C60.1355 24.5602 60.2866 24.2402 60.5888 24.0091C60.897 23.7779 61.3118 23.6624 61.8333 23.6624C62.26 23.6624 62.6185 23.7454 62.9088 23.9113C63.2051 24.0772 63.4037 24.3172 63.5044 24.6313L62.7844 24.9157C62.7074 24.7083 62.5859 24.5542 62.42 24.4535C62.26 24.3528 62.0614 24.3024 61.8244 24.3024C61.5518 24.3024 61.3414 24.3587 61.1933 24.4713C61.0451 24.5839 60.9711 24.735 60.9711 24.9246C60.9711 25.0965 61.0363 25.2328 61.1666 25.3335C61.3029 25.4342 61.4718 25.5202 61.6733 25.5913C61.8748 25.6565 62.0911 25.7216 62.3222 25.7868C62.5592 25.8461 62.7785 25.9291 62.98 26.0357C63.1814 26.1424 63.3474 26.2816 63.4777 26.4535C63.614 26.6254 63.6822 26.8535 63.6822 27.1379C63.6822 27.5824 63.5133 27.9291 63.1755 28.1779C62.8377 28.4209 62.3903 28.5424 61.8333 28.5424Z" fill="white"/>
<path d="M68.9548 22.2668C69.263 22.2668 69.5415 22.3113 69.7904 22.4002C70.0393 22.4831 70.2496 22.6016 70.4215 22.7557C70.5933 22.9098 70.7267 23.0994 70.8215 23.3246C70.9163 23.5439 70.9637 23.7898 70.9637 24.0624C70.9637 24.335 70.9163 24.5839 70.8215 24.8091C70.7267 25.0283 70.5904 25.2179 70.4126 25.3779C70.2407 25.532 70.0304 25.6535 69.7815 25.7424C69.5385 25.8254 69.263 25.8668 68.9548 25.8668H67.417V28.4446H66.6615V22.2668H68.9548ZM68.9193 25.1913C69.3341 25.1913 69.6482 25.0876 69.8615 24.8802C70.0807 24.6728 70.1904 24.4002 70.1904 24.0624C70.1904 23.7246 70.0807 23.452 69.8615 23.2446C69.6482 23.0372 69.3341 22.9335 68.9193 22.9335H67.417V25.1913H68.9193Z" fill="white"/>
<path d="M72.1295 26.3824C72.165 26.6016 72.2302 26.8002 72.325 26.9779C72.4258 27.1557 72.5502 27.3098 72.6984 27.4402C72.8465 27.5646 73.0154 27.6624 73.205 27.7335C73.3947 27.8046 73.5961 27.8402 73.8095 27.8402C74.1947 27.8402 74.4969 27.7691 74.7161 27.6268C74.9413 27.4846 75.1132 27.2772 75.2317 27.0046L75.8895 27.4046C75.7176 27.7365 75.4628 28.012 75.125 28.2313C74.7873 28.4446 74.3398 28.5513 73.7828 28.5513C73.4213 28.5513 73.0924 28.4891 72.7961 28.3646C72.4998 28.2402 72.245 28.0713 72.0317 27.8579C71.8184 27.6387 71.6524 27.3809 71.5339 27.0846C71.4213 26.7824 71.365 26.4565 71.365 26.1068C71.365 25.7691 71.4243 25.452 71.5428 25.1557C71.6673 24.8535 71.8361 24.5928 72.0495 24.3735C72.2628 24.1483 72.5117 23.9735 72.7961 23.8491C73.0865 23.7187 73.3976 23.6535 73.7295 23.6535C74.085 23.6535 74.405 23.7187 74.6895 23.8491C74.9739 23.9735 75.2139 24.1454 75.4095 24.3646C75.611 24.5779 75.765 24.8268 75.8717 25.1113C75.9843 25.3957 76.0406 25.692 76.0406 26.0002C76.0406 26.0654 76.0376 26.1335 76.0317 26.2046C76.0317 26.2757 76.0287 26.335 76.0228 26.3824H72.1295ZM75.2673 25.7246C75.208 25.2802 75.0391 24.9335 74.7606 24.6846C74.4821 24.4357 74.1472 24.3113 73.7561 24.3113C73.5606 24.3113 73.371 24.3439 73.1872 24.4091C73.0095 24.4742 72.8465 24.5661 72.6984 24.6846C72.5561 24.8031 72.4347 24.9513 72.3339 25.1291C72.2391 25.3009 72.1739 25.4994 72.1384 25.7246H75.2673Z" fill="white"/>
<path d="M77.6828 24.4446C77.8369 24.2254 78.0413 24.0416 78.2961 23.8935C78.551 23.7394 78.8443 23.6624 79.1761 23.6624V24.3646C78.9628 24.3646 78.7673 24.4002 78.5895 24.4713C78.4117 24.5365 78.2576 24.6283 78.1272 24.7468C78.0028 24.8594 77.905 24.9928 77.8339 25.1468C77.7628 25.295 77.7273 25.452 77.7273 25.6179V28.4446H76.9717V23.7602H77.6828V24.4446Z" fill="white"/>
<path d="M83.0158 28.4446L80.7047 26.1068V28.4446H79.9491V21.9468H80.7047V25.7246L82.918 23.7602H83.798L81.478 25.9202L83.8691 28.4446H83.0158Z" fill="white"/>
<path d="M84.534 26.3824C84.5695 26.6016 84.6347 26.8002 84.7295 26.9779C84.8303 27.1557 84.9547 27.3098 85.1029 27.4402C85.251 27.5646 85.4199 27.6624 85.6095 27.7335C85.7992 27.8046 86.0007 27.8402 86.214 27.8402C86.5992 27.8402 86.9014 27.7691 87.1207 27.6268C87.3458 27.4846 87.5177 27.2772 87.6362 27.0046L88.294 27.4046C88.1221 27.7365 87.8673 28.012 87.5295 28.2313C87.1918 28.4446 86.7444 28.5513 86.1873 28.5513C85.8258 28.5513 85.4969 28.4891 85.2007 28.3646C84.9044 28.2402 84.6495 28.0713 84.4362 27.8579C84.2229 27.6387 84.0569 27.3809 83.9384 27.0846C83.8258 26.7824 83.7695 26.4565 83.7695 26.1068C83.7695 25.7691 83.8288 25.452 83.9473 25.1557C84.0718 24.8535 84.2407 24.5928 84.454 24.3735C84.6673 24.1483 84.9162 23.9735 85.2007 23.8491C85.491 23.7187 85.8021 23.6535 86.134 23.6535C86.4895 23.6535 86.8095 23.7187 87.094 23.8491C87.3784 23.9735 87.6184 24.1454 87.814 24.3646C88.0155 24.5779 88.1695 24.8268 88.2762 25.1113C88.3888 25.3957 88.4451 25.692 88.4451 26.0002C88.4451 26.0654 88.4421 26.1335 88.4362 26.2046C88.4362 26.2757 88.4332 26.335 88.4273 26.3824H84.534ZM87.6718 25.7246C87.6125 25.2802 87.4436 24.9335 87.1651 24.6846C86.8866 24.4357 86.5518 24.3113 86.1607 24.3113C85.9651 24.3113 85.7755 24.3439 85.5918 24.4091C85.414 24.4742 85.251 24.5661 85.1029 24.6846C84.9607 24.8031 84.8392 24.9513 84.7384 25.1291C84.6436 25.3009 84.5784 25.4994 84.5429 25.7246H87.6718Z" fill="white"/>
<path d="M91.8473 23.6624C92.1792 23.6624 92.4844 23.7246 92.7629 23.8491C93.0473 23.9735 93.2903 24.1454 93.4918 24.3646C93.6992 24.5779 93.8592 24.8328 93.9718 25.1291C94.0844 25.4254 94.1407 25.7483 94.1407 26.0979C94.1407 26.4476 94.0814 26.7735 93.9629 27.0757C93.8503 27.372 93.6903 27.6298 93.4829 27.8491C93.2814 28.0624 93.0384 28.2313 92.754 28.3557C92.4695 28.4802 92.1614 28.5424 91.8295 28.5424C91.4444 28.5424 91.1036 28.4594 90.8073 28.2935C90.511 28.1276 90.2681 27.8935 90.0784 27.5913V28.4446H89.3762V21.9468H90.1318V24.5335C90.3214 24.2609 90.5614 24.0476 90.8518 23.8935C91.1421 23.7394 91.474 23.6624 91.8473 23.6624ZM91.7495 27.8757C91.9866 27.8757 92.2029 27.8313 92.3984 27.7424C92.5999 27.6535 92.7718 27.5291 92.914 27.3691C93.0621 27.2091 93.1777 27.0224 93.2607 26.8091C93.3436 26.5898 93.3851 26.3528 93.3851 26.0979C93.3851 25.8491 93.3436 25.6179 93.2607 25.4046C93.1777 25.1854 93.0621 24.9957 92.914 24.8357C92.7718 24.6757 92.5999 24.5513 92.3984 24.4624C92.1969 24.3735 91.9807 24.3291 91.7495 24.3291C91.5066 24.3291 91.2814 24.3735 91.074 24.4624C90.8725 24.5454 90.6977 24.6668 90.5495 24.8268C90.4073 24.9809 90.2947 25.1676 90.2118 25.3868C90.1347 25.6002 90.0962 25.8372 90.0962 26.0979C90.0962 26.3587 90.1347 26.5987 90.2118 26.8179C90.2947 27.0372 90.4103 27.2268 90.5584 27.3868C90.7066 27.5409 90.8814 27.6624 91.0829 27.7513C91.2844 27.8342 91.5066 27.8757 91.7495 27.8757Z" fill="white"/>
<path d="M99.2116 23.7602V28.4446H98.4916V27.7779C98.3376 27.9972 98.1242 28.1809 97.8516 28.3291C97.585 28.4713 97.2768 28.5424 96.9272 28.5424C96.625 28.5424 96.3583 28.4979 96.1272 28.4091C95.8961 28.3142 95.7005 28.1839 95.5405 28.0179C95.3864 27.8461 95.2679 27.6446 95.185 27.4135C95.102 27.1824 95.0605 26.9276 95.0605 26.6491V23.7602H95.8161V26.5602C95.8161 26.9572 95.9316 27.2772 96.1627 27.5202C96.3998 27.7572 96.7198 27.8728 97.1227 27.8668C97.3183 27.8668 97.4961 27.8342 97.6561 27.7691C97.822 27.7039 97.9642 27.6179 98.0827 27.5113C98.2013 27.3987 98.2931 27.2742 98.3583 27.1379C98.4235 26.9957 98.4561 26.8505 98.4561 26.7024V23.7602H99.2116Z" fill="white"/>
<path d="M102.79 23.6624C103.395 23.6624 103.863 23.8372 104.195 24.1868C104.526 24.5305 104.692 24.9957 104.692 25.5824V28.4446H103.937V25.7157C103.937 25.2772 103.818 24.9365 103.581 24.6935C103.344 24.4505 103.015 24.332 102.595 24.3379C102.393 24.3379 102.209 24.3735 102.043 24.4446C101.878 24.5098 101.732 24.5987 101.608 24.7113C101.489 24.8179 101.395 24.9454 101.324 25.0935C101.252 25.2357 101.217 25.3868 101.217 25.5468V28.4446H100.461V23.7602H101.172V24.4446C101.326 24.2194 101.54 24.0328 101.812 23.8846C102.091 23.7365 102.417 23.6624 102.79 23.6624Z" fill="white"/>
<path d="M110.375 23.7602V28.4446H109.673V27.5468C109.495 27.8609 109.255 28.1068 108.953 28.2846C108.657 28.4565 108.31 28.5424 107.913 28.5424C107.581 28.5424 107.273 28.4802 106.989 28.3557C106.71 28.2313 106.467 28.0624 106.26 27.8491C106.058 27.6298 105.898 27.372 105.78 27.0757C105.667 26.7735 105.611 26.4476 105.611 26.0979C105.611 25.7483 105.667 25.4283 105.78 25.1379C105.898 24.8476 106.058 24.5957 106.26 24.3824C106.467 24.1691 106.71 24.0031 106.989 23.8846C107.273 23.7661 107.581 23.7068 107.913 23.7068C108.31 23.7068 108.657 23.7928 108.953 23.9646C109.255 24.1305 109.495 24.3646 109.673 24.6668V23.7602H110.375ZM108.002 27.8757C108.245 27.8757 108.467 27.8342 108.669 27.7513C108.87 27.6624 109.042 27.5409 109.184 27.3868C109.332 27.2268 109.445 27.0372 109.522 26.8179C109.605 26.5987 109.646 26.3587 109.646 26.0979C109.646 25.8372 109.605 25.6002 109.522 25.3868C109.445 25.1676 109.332 24.9809 109.184 24.8268C109.042 24.6668 108.87 24.5454 108.669 24.4624C108.467 24.3735 108.245 24.3291 108.002 24.3291C107.765 24.3291 107.546 24.3735 107.344 24.4624C107.149 24.5513 106.977 24.6757 106.829 24.8357C106.68 24.9957 106.565 25.1854 106.482 25.4046C106.399 25.6179 106.358 25.8491 106.358 26.0979C106.358 26.3528 106.399 26.5898 106.482 26.8091C106.565 27.0224 106.68 27.2091 106.829 27.3691C106.977 27.5291 107.149 27.6535 107.344 27.7424C107.546 27.8313 107.765 27.8757 108.002 27.8757Z" fill="white"/>
<path d="M113.971 23.6624C114.575 23.6624 115.043 23.8372 115.375 24.1868C115.707 24.5305 115.873 24.9957 115.873 25.5824V28.4446H115.117V25.7157C115.117 25.2772 114.999 24.9365 114.762 24.6935C114.525 24.4505 114.196 24.332 113.775 24.3379C113.574 24.3379 113.39 24.3735 113.224 24.4446C113.058 24.5098 112.913 24.5987 112.788 24.7113C112.67 24.8179 112.575 24.9454 112.504 25.0935C112.433 25.2357 112.397 25.3868 112.397 25.5468V28.4446H111.642V23.7602H112.353V24.4446C112.507 24.2194 112.72 24.0328 112.993 23.8846C113.271 23.7365 113.597 23.6624 113.971 23.6624Z" fill="white"/>
<path d="M45.4756 3.64391C46.3645 3.64391 47.1823 3.79205 47.9289 4.08835C48.6874 4.37279 49.3334 4.78761 49.8667 5.33279C50.4119 5.86613 50.8326 6.51205 51.1289 7.27057C51.4371 8.02909 51.5911 8.8765 51.5911 9.8128C51.5911 10.7491 51.4371 11.6024 51.1289 12.3728C50.8326 13.1313 50.4119 13.7832 49.8667 14.3284C49.3334 14.8617 48.6874 15.2765 47.9289 15.5728C47.1823 15.8572 46.3645 15.9995 45.4756 15.9995H40.8889V3.64391H45.4756ZM45.4222 14.3284C46.0385 14.3284 46.6074 14.2276 47.1289 14.0261C47.6504 13.8128 48.1008 13.5165 48.48 13.1372C48.8593 12.7461 49.1556 12.2721 49.3689 11.715C49.5823 11.158 49.6889 10.5298 49.6889 9.83057C49.6889 9.13131 49.5823 8.50317 49.3689 7.94613C49.1556 7.38909 48.8593 6.91502 48.48 6.52391C48.1008 6.13279 47.6504 5.8365 47.1289 5.63502C46.6074 5.42168 46.0385 5.31502 45.4222 5.31502H42.7734V14.3284H45.4222Z" fill="white"/>
<path d="M62.6441 6.63057V15.9995H60.9018V14.4706C60.5463 15.0158 60.09 15.4424 59.5329 15.7506C58.9759 16.0587 58.33 16.2128 57.5952 16.2128C56.9196 16.2128 56.2974 16.0884 55.7285 15.8395C55.1715 15.5906 54.6855 15.2469 54.2707 14.8084C53.8678 14.3698 53.5478 13.8543 53.3107 13.2617C53.0855 12.6572 52.9729 12.0054 52.9729 11.3061C52.9729 10.6069 53.0855 9.96687 53.3107 9.38613C53.5478 8.80539 53.8678 8.30761 54.2707 7.89279C54.6855 7.46613 55.1774 7.13428 55.7463 6.89724C56.3152 6.6602 56.9315 6.54168 57.5952 6.54168C58.33 6.54168 58.9759 6.68983 59.5329 6.98613C60.09 7.27057 60.5463 7.67946 60.9018 8.21279V6.63057H62.6441ZM57.8263 14.5417C58.2766 14.5417 58.6855 14.4646 59.0529 14.3106C59.4204 14.1446 59.7344 13.9195 59.9952 13.635C60.2559 13.3506 60.4574 13.0128 60.5996 12.6217C60.7537 12.2187 60.8307 11.7802 60.8307 11.3061C60.8307 10.8321 60.7596 10.3995 60.6174 10.0084C60.4752 9.61724 60.2678 9.27946 59.9952 8.99502C59.7344 8.71057 59.4204 8.49131 59.0529 8.33724C58.6855 8.17131 58.2766 8.08835 57.8263 8.08835C57.3996 8.08835 57.0026 8.17131 56.6352 8.33724C56.2796 8.50317 55.9655 8.72835 55.6929 9.0128C55.4322 9.29724 55.2248 9.63502 55.0707 10.0261C54.9166 10.4172 54.8396 10.8439 54.8396 11.3061C54.8396 11.7684 54.9107 12.2009 55.0529 12.6039C55.207 12.995 55.4144 13.3387 55.6752 13.635C55.9478 13.9195 56.2678 14.1446 56.6352 14.3106C57.0026 14.4646 57.3996 14.5417 57.8263 14.5417Z" fill="white"/>
<path d="M68.1113 16.2128C67.1039 16.2128 66.2565 16.0172 65.5691 15.6261C64.8816 15.2232 64.4135 14.6365 64.1646 13.8661L65.8713 13.2084C66.0135 13.6706 66.2802 14.0321 66.6713 14.2928C67.0624 14.5417 67.5602 14.6661 68.1646 14.6661C68.6979 14.6661 69.1187 14.5595 69.4268 14.3461C69.735 14.1328 69.8891 13.8365 69.8891 13.4572C69.8891 13.1135 69.7587 12.8469 69.4979 12.6572C69.2372 12.4558 68.9113 12.2839 68.5202 12.1417C68.1291 11.9995 67.7024 11.8632 67.2402 11.7328C66.7898 11.6024 66.3691 11.4365 65.9779 11.235C65.5868 11.0217 65.2609 10.7491 65.0002 10.4172C64.7394 10.0854 64.6091 9.65279 64.6091 9.11946C64.6091 8.27798 64.9231 7.6202 65.5513 7.14613C66.1913 6.67205 67.0505 6.43502 68.1291 6.43502C69.0179 6.43502 69.7587 6.60687 70.3513 6.95057C70.9557 7.28242 71.3587 7.76835 71.5602 8.40835L69.8535 9.06613C69.5691 8.30761 68.9824 7.92835 68.0935 7.92835C67.6076 7.92835 67.2342 8.02909 66.9735 8.23057C66.7246 8.4202 66.6002 8.68094 66.6002 9.0128C66.6002 9.3328 66.7305 9.58168 66.9913 9.75946C67.252 9.93724 67.5779 10.0913 67.9691 10.2217C68.3602 10.3521 68.7809 10.4824 69.2313 10.6128C69.6935 10.7313 70.1202 10.8972 70.5113 11.1106C70.9024 11.3121 71.2283 11.5906 71.4891 11.9461C71.7498 12.2898 71.8802 12.7461 71.8802 13.315C71.8802 14.2395 71.5365 14.9565 70.8491 15.4661C70.1735 15.9639 69.2609 16.2128 68.1113 16.2128Z" fill="white"/>
<path d="M78.4117 6.41724C79.0043 6.41724 79.5317 6.51205 79.9939 6.70168C80.4561 6.87946 80.8473 7.13428 81.1673 7.46613C81.4991 7.79798 81.748 8.20094 81.9139 8.67502C82.0917 9.13724 82.1806 9.65279 82.1806 10.2217V15.9995H80.2961V10.5595C80.2961 9.77724 80.0769 9.17279 79.6384 8.74613C79.2117 8.30761 78.625 8.09428 77.8784 8.10613C77.5228 8.10613 77.1969 8.16539 76.9006 8.28391C76.6043 8.40242 76.3435 8.56242 76.1184 8.76391C75.905 8.96539 75.7332 9.20242 75.6028 9.47502C75.4843 9.73576 75.425 10.0084 75.425 10.2928V15.9995H73.5406V3.00391H75.425V7.67946C75.745 7.31205 76.1539 7.00983 76.6517 6.77279C77.1613 6.53576 77.748 6.41724 78.4117 6.41724Z" fill="white"/>
<path d="M89.4757 6.43502C90.1513 6.43502 90.7676 6.55946 91.3246 6.80835C91.8817 7.05724 92.3617 7.40094 92.7646 7.83946C93.1794 8.26613 93.4994 8.77576 93.7246 9.36835C93.9498 9.96094 94.0624 10.6069 94.0624 11.3061C94.0624 12.0054 93.9439 12.6572 93.7068 13.2617C93.4817 13.8543 93.1617 14.3698 92.7468 14.8084C92.3439 15.2469 91.8579 15.5906 91.2891 15.8395C90.732 16.0884 90.1157 16.2128 89.4402 16.2128C88.7172 16.2128 88.0772 16.0706 87.5202 15.7861C86.9631 15.4898 86.5009 15.0809 86.1335 14.5595V15.9995H84.3913V3.00391H86.2757V7.91057C86.655 7.44835 87.1113 7.08687 87.6446 6.82613C88.1898 6.56539 88.8002 6.43502 89.4757 6.43502ZM89.2091 14.5417C89.6357 14.5417 90.0328 14.4646 90.4002 14.3106C90.7676 14.1446 91.0817 13.9195 91.3424 13.635C91.615 13.3387 91.8224 12.995 91.9646 12.6039C92.1187 12.2009 92.1957 11.7684 92.1957 11.3061C92.1957 10.8439 92.1187 10.4172 91.9646 10.0261C91.8224 9.63502 91.615 9.29724 91.3424 9.0128C91.0817 8.72835 90.7676 8.50317 90.4002 8.33724C90.0328 8.17131 89.6357 8.08835 89.2091 8.08835C88.7587 8.08835 88.3498 8.17131 87.9824 8.33724C87.615 8.49131 87.295 8.71057 87.0224 8.99502C86.7617 9.27946 86.5542 9.61724 86.4002 10.0084C86.2579 10.3995 86.1868 10.8321 86.1868 11.3061C86.1868 11.7802 86.2579 12.2187 86.4002 12.6217C86.5542 13.0128 86.7617 13.3506 87.0224 13.635C87.295 13.9195 87.615 14.1446 87.9824 14.3106C88.3617 14.4646 88.7705 14.5417 89.2091 14.5417Z" fill="white"/>
<path d="M100.241 16.2128C99.5178 16.2128 98.8541 16.0884 98.2496 15.8395C97.657 15.5906 97.1415 15.2528 96.7029 14.8261C96.2644 14.3876 95.9207 13.8721 95.6718 13.2795C95.4348 12.675 95.3163 12.0232 95.3163 11.3239C95.3163 10.6246 95.4348 9.97872 95.6718 9.38613C95.9207 8.78168 96.2644 8.2602 96.7029 7.82168C97.1415 7.38317 97.657 7.04539 98.2496 6.80835C98.8541 6.55946 99.5178 6.43502 100.241 6.43502C100.964 6.43502 101.627 6.55946 102.232 6.80835C102.836 7.04539 103.358 7.38317 103.796 7.82168C104.235 8.2602 104.573 8.78168 104.81 9.38613C105.059 9.97872 105.183 10.6246 105.183 11.3239C105.183 12.0232 105.059 12.675 104.81 13.2795C104.573 13.8721 104.235 14.3876 103.796 14.8261C103.358 15.2528 102.836 15.5906 102.232 15.8395C101.627 16.0884 100.964 16.2128 100.241 16.2128ZM100.259 14.5239C100.709 14.5239 101.118 14.4469 101.485 14.2928C101.864 14.1269 102.184 13.9017 102.445 13.6172C102.718 13.3328 102.925 12.995 103.067 12.6039C103.221 12.2128 103.299 11.7861 103.299 11.3239C103.299 10.8498 103.221 10.4172 103.067 10.0261C102.925 9.63502 102.718 9.29724 102.445 9.0128C102.184 8.72835 101.864 8.50909 101.485 8.35502C101.118 8.18909 100.709 8.10613 100.259 8.10613C99.8081 8.10613 99.3933 8.18909 99.0141 8.35502C98.6348 8.50909 98.3089 8.72835 98.0363 9.0128C97.7755 9.29724 97.5681 9.63502 97.4141 10.0261C97.2718 10.4172 97.2007 10.8498 97.2007 11.3239C97.2007 11.7861 97.2718 12.2128 97.4141 12.6039C97.5681 12.995 97.7755 13.3328 98.0363 13.6172C98.3089 13.9017 98.6348 14.1269 99.0141 14.2928C99.3933 14.4469 99.8081 14.5239 100.259 14.5239Z" fill="white"/>
<path d="M116.116 6.63057V15.9995H114.374V14.4706C114.019 15.0158 113.562 15.4424 113.005 15.7506C112.448 16.0587 111.802 16.2128 111.067 16.2128C110.392 16.2128 109.77 16.0884 109.201 15.8395C108.644 15.5906 108.158 15.2469 107.743 14.8084C107.34 14.3698 107.02 13.8543 106.783 13.2617C106.558 12.6572 106.445 12.0054 106.445 11.3061C106.445 10.6069 106.558 9.96687 106.783 9.38613C107.02 8.80539 107.34 8.30761 107.743 7.89279C108.158 7.46613 108.65 7.13428 109.219 6.89724C109.787 6.6602 110.404 6.54168 111.067 6.54168C111.802 6.54168 112.448 6.68983 113.005 6.98613C113.562 7.27057 114.019 7.67946 114.374 8.21279V6.63057H116.116ZM111.299 14.5417C111.749 14.5417 112.158 14.4646 112.525 14.3106C112.893 14.1446 113.207 13.9195 113.467 13.635C113.728 13.3506 113.93 13.0128 114.072 12.6217C114.226 12.2187 114.303 11.7802 114.303 11.3061C114.303 10.8321 114.232 10.3995 114.09 10.0084C113.947 9.61724 113.74 9.27946 113.467 8.99502C113.207 8.71057 112.893 8.49131 112.525 8.33724C112.158 8.17131 111.749 8.08835 111.299 8.08835C110.872 8.08835 110.475 8.17131 110.107 8.33724C109.752 8.50317 109.438 8.72835 109.165 9.0128C108.904 9.29724 108.697 9.63502 108.543 10.0261C108.389 10.4172 108.312 10.8439 108.312 11.3061C108.312 11.7684 108.383 12.2009 108.525 12.6039C108.679 12.995 108.887 13.3387 109.147 13.635C109.42 13.9195 109.74 14.1446 110.107 14.3106C110.475 14.4646 110.872 14.5417 111.299 14.5417Z" fill="white"/>
<path d="M120.197 7.82168C120.505 7.41872 120.908 7.08687 121.406 6.82613C121.904 6.55354 122.461 6.41724 123.077 6.41724V8.17724C122.235 8.18909 121.56 8.41428 121.05 8.8528C120.552 9.29131 120.304 9.84242 120.304 10.5061V15.9995H118.419V6.63057H120.197V7.82168Z" fill="white"/>
<path d="M133.269 3.00391V15.9995H131.527V14.5417C131.159 15.075 130.691 15.4898 130.122 15.7861C129.565 16.0706 128.931 16.2128 128.22 16.2128C127.545 16.2128 126.922 16.0884 126.354 15.8395C125.796 15.5906 125.311 15.2469 124.896 14.8084C124.493 14.3698 124.173 13.8543 123.936 13.2617C123.711 12.6572 123.598 12.0054 123.598 11.3061C123.598 10.6069 123.711 9.96094 123.936 9.36835C124.161 8.77576 124.475 8.26613 124.878 7.83946C125.281 7.40094 125.761 7.05724 126.318 6.80835C126.887 6.55946 127.503 6.43502 128.167 6.43502C128.842 6.43502 129.453 6.56539 129.998 6.82613C130.543 7.08687 131.005 7.45428 131.385 7.92835V3.00391H133.269ZM128.451 14.5417C128.902 14.5417 129.311 14.4646 129.678 14.3106C130.045 14.1446 130.359 13.9195 130.62 13.635C130.881 13.3506 131.082 13.0128 131.225 12.6217C131.379 12.2187 131.456 11.7802 131.456 11.3061C131.456 10.8321 131.385 10.3995 131.242 10.0084C131.1 9.61724 130.893 9.27946 130.62 8.99502C130.359 8.71057 130.045 8.49131 129.678 8.33724C129.311 8.17131 128.902 8.08835 128.451 8.08835C128.025 8.08835 127.628 8.17131 127.26 8.33724C126.905 8.50317 126.591 8.72835 126.318 9.0128C126.057 9.29724 125.85 9.63502 125.696 10.0261C125.542 10.4172 125.465 10.8439 125.465 11.3061C125.465 11.7684 125.536 12.2009 125.678 12.6039C125.832 12.995 126.039 13.3387 126.3 13.635C126.573 13.9195 126.893 14.1446 127.26 14.3106C127.628 14.4646 128.025 14.5417 128.451 14.5417Z" fill="white"/>
<path fill-rule="evenodd" clip-rule="evenodd" d="M0 15.1111H16.8889V32H16C7.16292 32 0 24.8371 0 16V15.1111ZM1.8051 16.8889C2.24575 24.036 7.96398 29.7542 15.1111 30.1949V16.8889H1.8051Z" fill="white"/>
<path fill-rule="evenodd" clip-rule="evenodd" d="M0 0H0.888889C9.72597 0 16.8889 7.16292 16.8889 16V16.8889H0V0ZM1.77778 1.8051V15.1111H15.0838C14.6431 7.96398 8.92491 2.24575 1.77778 1.8051Z" fill="white"/>
<path fill-rule="evenodd" clip-rule="evenodd" d="M30.1931 16.918C29.7393 24.0419 24.0419 29.7393 16.918 30.1931C17.3718 23.0693 23.0693 17.3718 30.1931 16.918ZM15.1111 31.1111C15.1111 22.274 22.274 15.1111 31.1111 15.1111H32V16C32 24.8371 24.8371 32 16 32H15.1111V31.1111Z" fill="white"/>
<path fill-rule="evenodd" clip-rule="evenodd" d="M15.1111 0H16C24.8371 0 32 7.16292 32 16V16.8889H31.1111C22.274 16.8889 15.1111 9.72597 15.1111 0.888889V0ZM30.1931 15.082C23.0693 14.6282 17.3718 8.93074 16.918 1.80693C24.0419 2.26069 29.7393 7.95815 30.1931 15.082Z" fill="white"/>
</svg>
