<svg width="16" height="15" viewBox="0 0 16 15" fill="none" xmlns="http://www.w3.org/2000/svg">
<path fill-rule="evenodd" clip-rule="evenodd" d="M10.1569 0.0958568C10.3408 0.00384747 10.5572 0.00385542 10.7411 0.0958783L15.1874 2.32126C15.4315 2.4433 15.6367 2.63093 15.7802 2.86313C15.9238 3.09533 15.9999 3.36293 16 3.63596V12.4304C15.9999 12.6809 15.9358 12.9277 15.8138 13.1465C15.6918 13.3653 15.5159 13.5493 15.3029 13.681C15.0899 13.8127 14.8468 13.8877 14.5967 13.899C14.3466 13.9103 14.0978 13.8574 13.8738 13.7454L10.449 12.032L5.84308 14.3368C5.65921 14.4288 5.44278 14.4288 5.25892 14.3368L0.812571 12.1114C0.812511 12.1114 0.812632 12.1115 0.812571 12.1114C0.568615 11.9894 0.363229 11.8017 0.21975 11.5696C0.0762366 11.3374 0.000145776 11.0698 7.7851e-08 10.7967L0 2.00233C0.00013367 1.75176 0.06424 1.50503 0.186236 1.28621C0.308233 1.0674 0.484072 0.883408 0.697069 0.751705C0.910066 0.620003 1.15316 0.544953 1.40327 0.533679C1.65339 0.522405 1.90224 0.57528 2.1262 0.687286L5.55099 2.40069L10.1569 0.0958568ZM4.89796 3.53539L1.54237 1.8566C1.54234 1.85659 1.5424 1.85662 1.54237 1.8566C1.5175 1.84419 1.4898 1.83828 1.46204 1.83954C1.43425 1.84079 1.40724 1.84913 1.38357 1.86376C1.35991 1.87839 1.34037 1.89884 1.32682 1.92315C1.31328 1.94744 1.30615 1.97478 1.30612 2.00259V10.7961C1.30616 10.8264 1.31461 10.8561 1.33054 10.8819C1.34648 10.9077 1.36929 10.9286 1.39641 10.9421L4.89796 12.6946V3.53539ZM6.20408 12.6947L9.79592 10.8973V1.73798L6.20408 3.53535V12.6947ZM11.102 1.73806V10.8973L14.4576 12.5761C14.4577 12.5761 14.4576 12.5761 14.4576 12.5761C14.4825 12.5885 14.5102 12.5944 14.538 12.5932C14.5657 12.5919 14.5928 12.5836 14.6164 12.5689C14.6401 12.5543 14.6596 12.5339 14.6732 12.5095C14.6867 12.4852 14.6939 12.4579 14.6939 12.43V3.63666C14.6939 3.60632 14.6854 3.57658 14.6695 3.55079C14.6535 3.52499 14.6307 3.50414 14.6036 3.49058L11.102 1.73806Z" fill="#585858"/>
</svg>
