<svg width="12" height="13" viewBox="0 0 12 13" fill="none" xmlns="http://www.w3.org/2000/svg">
<path d="M8.00051 8.52925L9.03383 7.4954C9.173 7.35788 9.34909 7.26375 9.5407 7.22442C9.73232 7.1851 9.93123 7.20227 10.1133 7.27387L11.3726 7.77694C11.5566 7.85166 11.7143 7.97918 11.826 8.14345C11.9376 8.30772 11.9982 8.50138 12 8.70002V11.0077C11.9989 11.1428 11.9705 11.2764 11.9165 11.4002C11.8625 11.5241 11.784 11.6357 11.6858 11.7284C11.5875 11.8211 11.4715 11.893 11.3448 11.9397C11.218 11.9863 11.0831 12.0069 10.9482 12C2.12352 11.4508 0.342894 3.97386 0.00614338 1.11233C-0.00948881 0.971805 0.0047939 0.829564 0.0480519 0.694962C0.0913098 0.560359 0.162563 0.436446 0.257123 0.331374C0.351683 0.226302 0.467407 0.142452 0.596683 0.0853406C0.725958 0.0282294 0.865855 -0.000848843 1.00717 1.88626e-05H3.23526C3.43408 0.000607687 3.62819 0.0606961 3.7926 0.172555C3.95702 0.284415 4.08422 0.44293 4.15786 0.627711L4.66068 1.88771C4.73461 2.06913 4.75347 2.26832 4.71491 2.46039C4.67635 2.65247 4.58208 2.82892 4.44387 2.96771L3.41055 4.00156C3.41055 4.00156 4.00563 8.03079 8.00051 8.52925Z" fill="white"/>
</svg>
