<svg width="367" height="88" viewBox="0 0 367 88" fill="none" xmlns="http://www.w3.org/2000/svg">
<g filter="url(#filter0_d)">
<path d="M12 14C12 11.7909 13.7909 10 16 10H351C353.209 10 355 11.7909 355 14V70C355 72.2091 353.209 74 351 74H16C13.7909 74 12 72.2091 12 70V14Z" fill="white"/>
<path d="M12.5 14C12.5 12.067 14.067 10.5 16 10.5H351C352.933 10.5 354.5 12.067 354.5 14V70C354.5 71.933 352.933 73.5 351 73.5H16C14.067 73.5 12.5 71.933 12.5 70V14Z" stroke="white"/>
</g>
<path d="M33.21 35.05V36H28.76V29.05H29.82V35.05H33.21ZM34.4698 33.72C34.5498 34.1733 34.7464 34.53 35.0598 34.79C35.3798 35.05 35.7631 35.18 36.2098 35.18C36.6098 35.18 36.9231 35.11 37.1498 34.97C37.3831 34.83 37.5598 34.62 37.6798 34.34L38.5498 34.89C38.3498 35.2367 38.0631 35.53 37.6898 35.77C37.3164 36.0033 36.8131 36.12 36.1798 36.12C35.7664 36.12 35.3898 36.05 35.0498 35.91C34.7098 35.77 34.4198 35.58 34.1798 35.34C33.9398 35.0933 33.7531 34.8033 33.6198 34.47C33.4864 34.13 33.4198 33.7633 33.4198 33.37C33.4198 32.99 33.4898 32.6333 33.6298 32.3C33.7698 31.96 33.9598 31.6667 34.1998 31.42C34.4398 31.1667 34.7231 30.97 35.0498 30.83C35.3764 30.6833 35.7264 30.61 36.0998 30.61C36.5064 30.61 36.8731 30.6833 37.1998 30.83C37.5264 30.9767 37.8031 31.1733 38.0298 31.42C38.2564 31.6667 38.4298 31.95 38.5498 32.27C38.6764 32.5833 38.7398 32.91 38.7398 33.25C38.7398 33.3433 38.7364 33.4333 38.7298 33.52C38.7298 33.6 38.7264 33.6667 38.7198 33.72H34.4698ZM37.6998 32.91C37.6264 32.4633 37.4498 32.1133 37.1698 31.86C36.8898 31.6 36.5464 31.47 36.1398 31.47C35.7264 31.47 35.3664 31.5967 35.0598 31.85C34.7531 32.0967 34.5598 32.45 34.4798 32.91H37.6998ZM44.9473 30.73V35.28C44.9473 35.6733 44.8839 36.03 44.7573 36.35C44.6306 36.6767 44.4473 36.9533 44.2073 37.18C43.9739 37.4133 43.6839 37.5933 43.3373 37.72C42.9973 37.8467 42.6106 37.91 42.1773 37.91C41.4773 37.91 40.9173 37.7667 40.4973 37.48C40.0839 37.1933 39.7906 36.8067 39.6173 36.32L40.5173 35.97C40.6439 36.3233 40.8506 36.5867 41.1373 36.76C41.4239 36.9333 41.7739 37.02 42.1873 37.02C42.7406 37.02 43.1739 36.87 43.4873 36.57C43.8073 36.2767 43.9673 35.8767 43.9673 35.37V34.95C43.7673 35.25 43.5106 35.4867 43.1973 35.66C42.8839 35.8267 42.5206 35.91 42.1073 35.91C41.7273 35.91 41.3773 35.8433 41.0573 35.71C40.7439 35.57 40.4706 35.3833 40.2373 35.15C40.0106 34.91 39.8306 34.63 39.6973 34.31C39.5706 33.9833 39.5073 33.6367 39.5073 33.27C39.5073 32.9033 39.5706 32.56 39.6973 32.24C39.8306 31.9133 40.0106 31.63 40.2373 31.39C40.4706 31.15 40.7473 30.9633 41.0673 30.83C41.3873 30.69 41.7339 30.62 42.1073 30.62C42.5206 30.62 42.8839 30.7033 43.1973 30.87C43.5106 31.0367 43.7673 31.27 43.9673 31.57V30.73H44.9473ZM42.2273 35.09C42.4739 35.09 42.6973 35.0467 42.8973 34.96C43.1039 34.8733 43.2806 34.7533 43.4273 34.6C43.5806 34.44 43.6973 34.2533 43.7773 34.04C43.8639 33.82 43.9073 33.58 43.9073 33.32C43.9073 33.0667 43.8639 32.8333 43.7773 32.62C43.6973 32.4 43.5839 32.2133 43.4373 32.06C43.2906 31.9 43.1139 31.7767 42.9073 31.69C42.7073 31.5967 42.4839 31.55 42.2373 31.55C41.9973 31.55 41.7739 31.5967 41.5673 31.69C41.3673 31.7767 41.1906 31.9 41.0373 32.06C40.8906 32.22 40.7739 32.4067 40.6873 32.62C40.6006 32.8333 40.5573 33.0667 40.5573 33.32C40.5573 33.5733 40.5973 33.81 40.6773 34.03C40.7639 34.2433 40.8806 34.43 41.0273 34.59C41.1806 34.7433 41.3573 34.8667 41.5573 34.96C41.7639 35.0467 41.9873 35.09 42.2273 35.09ZM47.0428 33.72C47.1228 34.1733 47.3195 34.53 47.6328 34.79C47.9528 35.05 48.3361 35.18 48.7828 35.18C49.1828 35.18 49.4961 35.11 49.7228 34.97C49.9561 34.83 50.1328 34.62 50.2528 34.34L51.1228 34.89C50.9228 35.2367 50.6361 35.53 50.2628 35.77C49.8895 36.0033 49.3861 36.12 48.7528 36.12C48.3395 36.12 47.9628 36.05 47.6228 35.91C47.2828 35.77 46.9928 35.58 46.7528 35.34C46.5128 35.0933 46.3261 34.8033 46.1928 34.47C46.0595 34.13 45.9928 33.7633 45.9928 33.37C45.9928 32.99 46.0628 32.6333 46.2028 32.3C46.3428 31.96 46.5328 31.6667 46.7728 31.42C47.0128 31.1667 47.2961 30.97 47.6228 30.83C47.9495 30.6833 48.2995 30.61 48.6728 30.61C49.0795 30.61 49.4461 30.6833 49.7728 30.83C50.0995 30.9767 50.3761 31.1733 50.6028 31.42C50.8295 31.6667 51.0028 31.95 51.1228 32.27C51.2495 32.5833 51.3128 32.91 51.3128 33.25C51.3128 33.3433 51.3095 33.4333 51.3028 33.52C51.3028 33.6 51.2995 33.6667 51.2928 33.72H47.0428ZM50.2728 32.91C50.1995 32.4633 50.0228 32.1133 49.7428 31.86C49.4628 31.6 49.1195 31.47 48.7128 31.47C48.2995 31.47 47.9395 31.5967 47.6328 31.85C47.3261 32.0967 47.1328 32.45 47.0528 32.91H50.2728ZM55.1103 30.61C55.4436 30.61 55.7403 30.6633 56.0003 30.77C56.2603 30.87 56.4803 31.0133 56.6603 31.2C56.847 31.3867 56.987 31.6133 57.0803 31.88C57.1803 32.14 57.2303 32.43 57.2303 32.75V36H56.1703V32.94C56.1703 32.5 56.047 32.16 55.8003 31.92C55.5603 31.6733 55.2303 31.5533 54.8103 31.56C54.6103 31.56 54.427 31.5933 54.2603 31.66C54.0936 31.7267 53.947 31.8167 53.8203 31.93C53.7003 32.0433 53.6036 32.1767 53.5303 32.33C53.4636 32.4767 53.4303 32.63 53.4303 32.79V36H52.3703V30.73H53.3703V31.4C53.5503 31.1667 53.787 30.9767 54.0803 30.83C54.3736 30.6833 54.717 30.61 55.1103 30.61ZM63.7238 28.69V36H62.7438V35.18C62.5372 35.48 62.2738 35.7133 61.9538 35.88C61.6405 36.04 61.2838 36.12 60.8838 36.12C60.5038 36.12 60.1538 36.05 59.8338 35.91C59.5205 35.77 59.2472 35.5767 59.0138 35.33C58.7872 35.0833 58.6072 34.7933 58.4738 34.46C58.3472 34.12 58.2838 33.7533 58.2838 33.36C58.2838 32.9667 58.3472 32.6033 58.4738 32.27C58.6005 31.9367 58.7772 31.65 59.0038 31.41C59.2305 31.1633 59.5005 30.97 59.8138 30.83C60.1338 30.69 60.4805 30.62 60.8538 30.62C61.2338 30.62 61.5772 30.6933 61.8838 30.84C62.1905 30.9867 62.4505 31.1933 62.6638 31.46V28.69H63.7238ZM61.0138 35.18C61.2672 35.18 61.4972 35.1367 61.7038 35.05C61.9105 34.9567 62.0872 34.83 62.2338 34.67C62.3805 34.51 62.4938 34.32 62.5738 34.1C62.6605 33.8733 62.7038 33.6267 62.7038 33.36C62.7038 33.0933 62.6638 32.85 62.5838 32.63C62.5038 32.41 62.3872 32.22 62.2338 32.06C62.0872 31.9 61.9105 31.7767 61.7038 31.69C61.4972 31.5967 61.2672 31.55 61.0138 31.55C60.7738 31.55 60.5505 31.5967 60.3438 31.69C60.1438 31.7833 59.9672 31.91 59.8138 32.07C59.6672 32.23 59.5505 32.42 59.4638 32.64C59.3772 32.86 59.3338 33.1 59.3338 33.36C59.3338 33.62 59.3738 33.8633 59.4538 34.09C59.5405 34.31 59.6572 34.5033 59.8038 34.67C59.9572 34.83 60.1372 34.9567 60.3438 35.05C60.5505 35.1367 60.7738 35.18 61.0138 35.18ZM70.2691 30.73V36H69.2891V35.14C69.0891 35.4467 68.8325 35.6867 68.5191 35.86C68.2058 36.0333 67.8425 36.12 67.4291 36.12C67.0491 36.12 66.6991 36.05 66.3791 35.91C66.0658 35.77 65.7925 35.5767 65.5591 35.33C65.3325 35.0833 65.1525 34.7933 65.0191 34.46C64.8925 34.12 64.8291 33.7533 64.8291 33.36C64.8291 32.9667 64.8925 32.6067 65.0191 32.28C65.1525 31.9533 65.3325 31.6733 65.5591 31.44C65.7925 31.2 66.0691 31.0133 66.3891 30.88C66.7091 30.7467 67.0558 30.68 67.4291 30.68C67.8425 30.68 68.2058 30.7633 68.5191 30.93C68.8325 31.09 69.0891 31.32 69.2891 31.62V30.73H70.2691ZM67.5591 35.18C67.8125 35.18 68.0425 35.1367 68.2491 35.05C68.4558 34.9567 68.6325 34.83 68.7791 34.67C68.9258 34.51 69.0391 34.32 69.1191 34.1C69.2058 33.8733 69.2491 33.6267 69.2491 33.36C69.2491 33.0933 69.2091 32.85 69.1291 32.63C69.0491 32.41 68.9325 32.22 68.7791 32.06C68.6325 31.9 68.4558 31.7767 68.2491 31.69C68.0425 31.5967 67.8125 31.55 67.5591 31.55C67.3191 31.55 67.0958 31.5967 66.8891 31.69C66.6891 31.7833 66.5125 31.91 66.3591 32.07C66.2125 32.23 66.0958 32.42 66.0091 32.64C65.9225 32.86 65.8791 33.1 65.8791 33.36C65.8791 33.62 65.9191 33.8633 65.9991 34.09C66.0858 34.31 66.2025 34.5033 66.3491 34.67C66.5025 34.83 66.6825 34.9567 66.8891 35.05C67.0958 35.1367 67.3191 35.18 67.5591 35.18Z" fill="#4F4F4F"/>
<path fill-rule="evenodd" clip-rule="evenodd" d="M38.6667 46H29.3333C28.6 46 28 46.6 28 47.3333V56.6667C28 57.4 28.6 58 29.3333 58H38.6667C39.4 58 40 57.4 40 56.6667V47.3333C40 46.6 39.4 46 38.6667 46Z" fill="#009D57"/>
<path d="M49.0098 53.1006C49.0098 53.7288 48.7819 54.2188 48.3262 54.5703C47.8704 54.9219 47.252 55.0977 46.4707 55.0977C45.6243 55.0977 44.9733 54.9886 44.5176 54.7705V53.9697C44.8105 54.0934 45.1296 54.1911 45.4746 54.2627C45.8197 54.3343 46.1615 54.3701 46.5 54.3701C47.0534 54.3701 47.4701 54.266 47.75 54.0576C48.0299 53.846 48.1699 53.5531 48.1699 53.1787C48.1699 52.9313 48.1195 52.7295 48.0186 52.5732C47.9209 52.4137 47.7549 52.2673 47.5205 52.1338C47.2894 52.0003 46.9362 51.849 46.4609 51.6797C45.7969 51.4421 45.3216 51.1605 45.0352 50.835C44.752 50.5094 44.6104 50.0846 44.6104 49.5605C44.6104 49.0104 44.8171 48.5726 45.2305 48.2471C45.6439 47.9215 46.1908 47.7588 46.8711 47.7588C47.5807 47.7588 48.2334 47.889 48.8291 48.1494L48.5703 48.8721C47.9811 48.6247 47.4082 48.501 46.8516 48.501C46.4121 48.501 46.0687 48.5954 45.8213 48.7842C45.5739 48.973 45.4502 49.235 45.4502 49.5703C45.4502 49.8177 45.4958 50.0212 45.5869 50.1807C45.6781 50.3369 45.8311 50.4818 46.0459 50.6152C46.264 50.7454 46.596 50.8903 47.042 51.0498C47.7907 51.3167 48.305 51.6032 48.585 51.9092C48.8682 52.2152 49.0098 52.6123 49.0098 53.1006ZM52.7084 55.0977C51.9174 55.0977 51.2924 54.8568 50.8334 54.375C50.3777 53.8932 50.1498 53.2243 50.1498 52.3682C50.1498 51.5055 50.3614 50.8203 50.7846 50.3125C51.211 49.8047 51.7823 49.5508 52.4984 49.5508C53.169 49.5508 53.6996 49.7721 54.0902 50.2148C54.4809 50.6543 54.6762 51.2354 54.6762 51.958V52.4707H50.9896C51.0059 53.099 51.1638 53.5758 51.4633 53.9014C51.766 54.2269 52.1908 54.3896 52.7377 54.3896C53.3139 54.3896 53.8835 54.2692 54.4467 54.0283V54.751C54.1602 54.8747 53.8884 54.9626 53.6312 55.0146C53.3773 55.07 53.0697 55.0977 52.7084 55.0977ZM52.4887 50.2295C52.059 50.2295 51.7156 50.3695 51.4584 50.6494C51.2045 50.9294 51.0548 51.3167 51.0092 51.8115H53.807C53.807 51.3005 53.6931 50.9098 53.4652 50.6396C53.2374 50.3662 52.9118 50.2295 52.4887 50.2295ZM59.615 53.54C59.615 54.0381 59.4295 54.4222 59.0584 54.6924C58.6873 54.9626 58.1665 55.0977 57.4959 55.0977C56.7863 55.0977 56.2329 54.9854 55.8357 54.7607V54.0088C56.0929 54.139 56.368 54.2415 56.6609 54.3164C56.9572 54.3913 57.242 54.4287 57.5154 54.4287C57.9386 54.4287 58.2641 54.362 58.492 54.2285C58.7199 54.0918 58.8338 53.8851 58.8338 53.6084C58.8338 53.4001 58.7426 53.2227 58.5604 53.0762C58.3813 52.9264 58.0298 52.7507 57.5057 52.5488C57.0076 52.3633 56.6528 52.2021 56.4412 52.0654C56.2329 51.9255 56.0766 51.7676 55.9725 51.5918C55.8715 51.416 55.8211 51.2061 55.8211 50.9619C55.8211 50.5257 55.9985 50.1823 56.3533 49.9316C56.7081 49.6777 57.1948 49.5508 57.8133 49.5508C58.3895 49.5508 58.9526 49.668 59.5027 49.9023L59.2146 50.5615C58.6775 50.3402 58.1909 50.2295 57.7547 50.2295C57.3706 50.2295 57.0809 50.2897 56.8855 50.4102C56.6902 50.5306 56.5926 50.6966 56.5926 50.9082C56.5926 51.0514 56.6284 51.1735 56.7 51.2744C56.7749 51.3753 56.8937 51.4714 57.0564 51.5625C57.2192 51.6536 57.5317 51.7855 57.9939 51.958C58.6287 52.1891 59.0568 52.4219 59.2781 52.6562C59.5027 52.8906 59.615 53.1852 59.615 53.54ZM61.8 49.6484V53.1201C61.8 53.5563 61.8993 53.8818 62.0979 54.0967C62.2964 54.3115 62.6073 54.4189 63.0305 54.4189C63.5904 54.4189 63.9989 54.266 64.2561 53.96C64.5165 53.654 64.6467 53.1543 64.6467 52.4609V49.6484H65.4572V55H64.7883L64.6711 54.2822H64.6271C64.4611 54.5459 64.23 54.7477 63.9338 54.8877C63.6408 55.0277 63.3055 55.0977 62.9279 55.0977C62.2769 55.0977 61.7886 54.943 61.4631 54.6338C61.1408 54.3245 60.9797 53.8298 60.9797 53.1494V49.6484H61.8ZM70.5719 55L70.4107 54.2383H70.3717C70.1048 54.5736 69.8378 54.8014 69.5709 54.9219C69.3072 55.0391 68.9768 55.0977 68.5797 55.0977C68.0491 55.0977 67.6324 54.9609 67.3297 54.6875C67.0302 54.4141 66.8805 54.0251 66.8805 53.5205C66.8805 52.4398 67.7447 51.8734 69.4732 51.8213L70.3814 51.792V51.46C70.3814 51.04 70.2903 50.7308 70.108 50.5322C69.929 50.3304 69.6409 50.2295 69.2437 50.2295C68.7978 50.2295 68.2932 50.3662 67.7301 50.6396L67.4811 50.0195C67.7447 49.8763 68.0328 49.764 68.3453 49.6826C68.6611 49.6012 68.9768 49.5605 69.2926 49.5605C69.9306 49.5605 70.4026 49.7021 70.7086 49.9854C71.0178 50.2686 71.1725 50.7227 71.1725 51.3477V55H70.5719ZM68.7408 54.4287C69.2454 54.4287 69.6409 54.2904 69.9273 54.0137C70.2171 53.737 70.3619 53.3496 70.3619 52.8516V52.3682L69.5514 52.4023C68.9068 52.4251 68.4413 52.526 68.1549 52.7051C67.8717 52.8809 67.7301 53.1559 67.7301 53.5303C67.7301 53.8232 67.818 54.0462 67.9937 54.1992C68.1728 54.3522 68.4218 54.4287 68.7408 54.4287ZM73.7578 55H72.9473V49.6484H73.7578V55ZM72.8789 48.1982C72.8789 48.0127 72.9245 47.8776 73.0156 47.793C73.1068 47.7051 73.2207 47.6611 73.3574 47.6611C73.4876 47.6611 73.5999 47.7051 73.6943 47.793C73.7887 47.8809 73.8359 48.016 73.8359 48.1982C73.8359 48.3805 73.7887 48.5173 73.6943 48.6084C73.5999 48.6963 73.4876 48.7402 73.3574 48.7402C73.2207 48.7402 73.1068 48.6963 73.0156 48.6084C72.9245 48.5173 72.8789 48.3805 72.8789 48.1982Z" fill="#4F4F4F"/>
<path d="M103.038 48.501C102.254 48.501 101.633 48.763 101.178 49.2871C100.725 49.8079 100.499 50.5225 100.499 51.4307C100.499 52.3649 100.717 53.0876 101.153 53.5986C101.593 54.1064 102.218 54.3604 103.028 54.3604C103.526 54.3604 104.094 54.2708 104.732 54.0918V54.8193C104.238 55.0049 103.627 55.0977 102.901 55.0977C101.85 55.0977 101.038 54.7786 100.465 54.1406C99.8952 53.5026 99.6104 52.596 99.6104 51.4209C99.6104 50.6852 99.7471 50.0407 100.021 49.4873C100.297 48.9339 100.694 48.5075 101.212 48.208C101.733 47.9085 102.345 47.7588 103.048 47.7588C103.797 47.7588 104.451 47.8955 105.011 48.1689L104.659 48.8818C104.119 48.6279 103.578 48.501 103.038 48.501ZM107.03 49.6484V53.1201C107.03 53.5563 107.129 53.8818 107.328 54.0967C107.526 54.3115 107.837 54.4189 108.26 54.4189C108.82 54.4189 109.229 54.266 109.486 53.96C109.746 53.654 109.876 53.1543 109.876 52.4609V49.6484H110.687V55H110.018L109.901 54.2822H109.857C109.691 54.5459 109.46 54.7477 109.163 54.8877C108.871 55.0277 108.535 55.0977 108.158 55.0977C107.507 55.0977 107.018 54.943 106.693 54.6338C106.371 54.3245 106.209 53.8298 106.209 53.1494V49.6484H107.03ZM113.311 52.2607C113.451 52.0622 113.665 51.8018 113.951 51.4795L115.679 49.6484H116.641L114.473 51.9287L116.793 55H115.811L113.922 52.4707L113.311 52.998V55H112.511V47.4023H113.311V51.4307C113.311 51.6097 113.298 51.8864 113.272 52.2607H113.311ZM118.626 49.6484V53.1201C118.626 53.5563 118.725 53.8818 118.924 54.0967C119.123 54.3115 119.433 54.4189 119.857 54.4189C120.417 54.4189 120.825 54.266 121.082 53.96C121.343 53.654 121.473 53.1543 121.473 52.4609V49.6484H122.283V55H121.614L121.497 54.2822H121.453C121.287 54.5459 121.056 54.7477 120.76 54.8877C120.467 55.0277 120.132 55.0977 119.754 55.0977C119.103 55.0977 118.615 54.943 118.289 54.6338C117.967 54.3245 117.806 53.8298 117.806 53.1494V49.6484H118.626ZM126.597 55.0977C126.249 55.0977 125.93 55.0342 125.64 54.9072C125.354 54.777 125.113 54.5785 124.918 54.3115H124.859C124.898 54.624 124.918 54.9202 124.918 55.2002V57.4023H124.107V49.6484H124.766L124.879 50.3809H124.918C125.126 50.0879 125.368 49.8763 125.645 49.7461C125.922 49.6159 126.239 49.5508 126.597 49.5508C127.307 49.5508 127.854 49.7933 128.238 50.2783C128.625 50.7633 128.819 51.4437 128.819 52.3193C128.819 53.1982 128.622 53.8818 128.228 54.3701C127.837 54.8551 127.294 55.0977 126.597 55.0977ZM126.48 50.2393C125.933 50.2393 125.538 50.3906 125.294 50.6934C125.049 50.9961 124.924 51.4779 124.918 52.1387V52.3193C124.918 53.0713 125.043 53.61 125.294 53.9355C125.544 54.2578 125.946 54.4189 126.5 54.4189C126.962 54.4189 127.323 54.2318 127.584 53.8574C127.847 53.4831 127.979 52.9671 127.979 52.3096C127.979 51.6423 127.847 51.1312 127.584 50.7764C127.323 50.4183 126.955 50.2393 126.48 50.2393ZM137.188 53.1006C137.188 53.7288 136.96 54.2188 136.504 54.5703C136.049 54.9219 135.43 55.0977 134.649 55.0977C133.802 55.0977 133.151 54.9886 132.696 54.7705V53.9697C132.989 54.0934 133.308 54.1911 133.653 54.2627C133.998 54.3343 134.34 54.3701 134.678 54.3701C135.232 54.3701 135.648 54.266 135.928 54.0576C136.208 53.846 136.348 53.5531 136.348 53.1787C136.348 52.9313 136.298 52.7295 136.197 52.5732C136.099 52.4137 135.933 52.2673 135.699 52.1338C135.468 52.0003 135.114 51.849 134.639 51.6797C133.975 51.4421 133.5 51.1605 133.213 50.835C132.93 50.5094 132.788 50.0846 132.788 49.5605C132.788 49.0104 132.995 48.5726 133.409 48.2471C133.822 47.9215 134.369 47.7588 135.049 47.7588C135.759 47.7588 136.412 47.889 137.007 48.1494L136.748 48.8721C136.159 48.6247 135.586 48.501 135.03 48.501C134.59 48.501 134.247 48.5954 133.999 48.7842C133.752 48.973 133.628 49.235 133.628 49.5703C133.628 49.8177 133.674 50.0212 133.765 50.1807C133.856 50.3369 134.009 50.4818 134.224 50.6152C134.442 50.7454 134.774 50.8903 135.22 51.0498C135.969 51.3167 136.483 51.6032 136.763 51.9092C137.046 52.2152 137.188 52.6123 137.188 53.1006ZM140.887 55.0977C140.096 55.0977 139.471 54.8568 139.012 54.375C138.556 53.8932 138.328 53.2243 138.328 52.3682C138.328 51.5055 138.54 50.8203 138.963 50.3125C139.389 49.8047 139.96 49.5508 140.677 49.5508C141.347 49.5508 141.878 49.7721 142.268 50.2148C142.659 50.6543 142.854 51.2354 142.854 51.958V52.4707H139.168C139.184 53.099 139.342 53.5758 139.641 53.9014C139.944 54.2269 140.369 54.3896 140.916 54.3896C141.492 54.3896 142.062 54.2692 142.625 54.0283V54.751C142.338 54.8747 142.067 54.9626 141.809 55.0146C141.555 55.07 141.248 55.0977 140.887 55.0977ZM140.667 50.2295C140.237 50.2295 139.894 50.3695 139.637 50.6494C139.383 50.9294 139.233 51.3167 139.187 51.8115H141.985C141.985 51.3005 141.871 50.9098 141.643 50.6396C141.415 50.3662 141.09 50.2295 140.667 50.2295ZM147.793 53.54C147.793 54.0381 147.608 54.4222 147.237 54.6924C146.865 54.9626 146.345 55.0977 145.674 55.0977C144.964 55.0977 144.411 54.9854 144.014 54.7607V54.0088C144.271 54.139 144.546 54.2415 144.839 54.3164C145.135 54.3913 145.42 54.4287 145.694 54.4287C146.117 54.4287 146.442 54.362 146.67 54.2285C146.898 54.0918 147.012 53.8851 147.012 53.6084C147.012 53.4001 146.921 53.2227 146.738 53.0762C146.559 52.9264 146.208 52.7507 145.684 52.5488C145.186 52.3633 144.831 52.2021 144.619 52.0654C144.411 51.9255 144.255 51.7676 144.151 51.5918C144.05 51.416 143.999 51.2061 143.999 50.9619C143.999 50.5257 144.177 50.1823 144.531 49.9316C144.886 49.6777 145.373 49.5508 145.991 49.5508C146.568 49.5508 147.131 49.668 147.681 49.9023L147.393 50.5615C146.856 50.3402 146.369 50.2295 145.933 50.2295C145.549 50.2295 145.259 50.2897 145.064 50.4102C144.868 50.5306 144.771 50.6966 144.771 50.9082C144.771 51.0514 144.807 51.1735 144.878 51.2744C144.953 51.3753 145.072 51.4714 145.235 51.5625C145.397 51.6536 145.71 51.7855 146.172 51.958C146.807 52.1891 147.235 52.4219 147.456 52.6562C147.681 52.8906 147.793 53.1852 147.793 53.54ZM149.978 49.6484V53.1201C149.978 53.5563 150.077 53.8818 150.276 54.0967C150.475 54.3115 150.785 54.4189 151.209 54.4189C151.768 54.4189 152.177 54.266 152.434 53.96C152.695 53.654 152.825 53.1543 152.825 52.4609V49.6484H153.635V55H152.966L152.849 54.2822H152.805C152.639 54.5459 152.408 54.7477 152.112 54.8877C151.819 55.0277 151.484 55.0977 151.106 55.0977C150.455 55.0977 149.967 54.943 149.641 54.6338C149.319 54.3245 149.158 53.8298 149.158 53.1494V49.6484H149.978ZM158.75 55L158.589 54.2383H158.55C158.283 54.5736 158.016 54.8014 157.749 54.9219C157.485 55.0391 157.155 55.0977 156.758 55.0977C156.227 55.0977 155.811 54.9609 155.508 54.6875C155.208 54.4141 155.059 54.0251 155.059 53.5205C155.059 52.4398 155.923 51.8734 157.651 51.8213L158.56 51.792V51.46C158.56 51.04 158.468 50.7308 158.286 50.5322C158.107 50.3304 157.819 50.2295 157.422 50.2295C156.976 50.2295 156.471 50.3662 155.908 50.6396L155.659 50.0195C155.923 49.8763 156.211 49.764 156.523 49.6826C156.839 49.6012 157.155 49.5605 157.471 49.5605C158.109 49.5605 158.581 49.7021 158.887 49.9854C159.196 50.2686 159.351 50.7227 159.351 51.3477V55H158.75ZM156.919 54.4287C157.424 54.4287 157.819 54.2904 158.105 54.0137C158.395 53.737 158.54 53.3496 158.54 52.8516V52.3682L157.729 52.4023C157.085 52.4251 156.619 52.526 156.333 52.7051C156.05 52.8809 155.908 53.1559 155.908 53.5303C155.908 53.8232 155.996 54.0462 156.172 54.1992C156.351 54.3522 156.6 54.4287 156.919 54.4287ZM161.936 55H161.125V49.6484H161.936V55ZM161.057 48.1982C161.057 48.0127 161.103 47.8776 161.194 47.793C161.285 47.7051 161.399 47.6611 161.536 47.6611C161.666 47.6611 161.778 47.7051 161.872 47.793C161.967 47.8809 162.014 48.016 162.014 48.1982C162.014 48.3805 161.967 48.5173 161.872 48.6084C161.778 48.6963 161.666 48.7402 161.536 48.7402C161.399 48.7402 161.285 48.6963 161.194 48.6084C161.103 48.5173 161.057 48.3805 161.057 48.1982Z" fill="#4F4F4F"/>
<path fill-rule="evenodd" clip-rule="evenodd" d="M93.6667 46H84.3333C83.6 46 83 46.6 83 47.3333V56.6667C83 57.4 83.6 58 84.3333 58H93.6667C94.4 58 95 57.4 95 56.6667V47.3333C95 46.6 94.4 46 93.6667 46Z" fill="#FFD039"/>
<path d="M193.138 55H192.161L189.559 51.5381L188.812 52.2021V55H187.981V47.8613H188.812V51.4014L192.049 47.8613H193.03L190.159 50.9619L193.138 55ZM194.864 49.6484V53.1201C194.864 53.5563 194.963 53.8818 195.162 54.0967C195.36 54.3115 195.671 54.4189 196.094 54.4189C196.654 54.4189 197.063 54.266 197.32 53.96C197.58 53.654 197.71 53.1543 197.71 52.4609V49.6484H198.521V55H197.852L197.735 54.2822H197.691C197.525 54.5459 197.294 54.7477 196.997 54.8877C196.704 55.0277 196.369 55.0977 195.992 55.0977C195.341 55.0977 194.852 54.943 194.527 54.6338C194.204 54.3245 194.043 53.8298 194.043 53.1494V49.6484H194.864ZM202.786 49.5508C203.024 49.5508 203.237 49.5703 203.426 49.6094L203.313 50.3613C203.092 50.3125 202.897 50.2881 202.727 50.2881C202.294 50.2881 201.923 50.4639 201.614 50.8154C201.308 51.167 201.155 51.6048 201.155 52.1289V55H200.345V49.6484H201.013L201.106 50.6396H201.145C201.344 50.2913 201.583 50.0228 201.863 49.834C202.143 49.6452 202.451 49.5508 202.786 49.5508ZM207.818 55L207.656 54.2383H207.617C207.35 54.5736 207.084 54.8014 206.817 54.9219C206.553 55.0391 206.223 55.0977 205.825 55.0977C205.295 55.0977 204.878 54.9609 204.575 54.6875C204.276 54.4141 204.126 54.0251 204.126 53.5205C204.126 52.4398 204.99 51.8734 206.719 51.8213L207.627 51.792V51.46C207.627 51.04 207.536 50.7308 207.354 50.5322C207.175 50.3304 206.887 50.2295 206.489 50.2295C206.043 50.2295 205.539 50.3662 204.976 50.6396L204.727 50.0195C204.99 49.8763 205.279 49.764 205.591 49.6826C205.907 49.6012 206.223 49.5605 206.538 49.5605C207.176 49.5605 207.648 49.7021 207.954 49.9854C208.264 50.2686 208.418 50.7227 208.418 51.3477V55H207.818ZM205.987 54.4287C206.491 54.4287 206.887 54.2904 207.173 54.0137C207.463 53.737 207.608 53.3496 207.608 52.8516V52.3682L206.797 52.4023C206.153 52.4251 205.687 52.526 205.401 52.7051C205.117 52.8809 204.976 53.1559 204.976 53.5303C204.976 53.8232 205.064 54.0462 205.239 54.1992C205.418 54.3522 205.668 54.4287 205.987 54.4287ZM213.855 55V51.5381C213.855 51.1019 213.756 50.7764 213.557 50.5615C213.359 50.3467 213.048 50.2393 212.625 50.2393C212.065 50.2393 211.655 50.3906 211.394 50.6934C211.134 50.9961 211.004 51.4958 211.004 52.1924V55H210.193V49.6484H210.852L210.984 50.3809H211.023C211.189 50.1172 211.422 49.9137 211.721 49.7705C212.021 49.624 212.354 49.5508 212.722 49.5508C213.367 49.5508 213.852 49.707 214.177 50.0195C214.503 50.3288 214.666 50.8252 214.666 51.5088V55H213.855ZM220.815 49.6484V50.1611L219.824 50.2783C219.915 50.3923 219.997 50.542 220.068 50.7275C220.14 50.9098 220.176 51.1165 220.176 51.3477C220.176 51.8717 219.997 52.29 219.639 52.6025C219.281 52.915 218.789 53.0713 218.164 53.0713C218.005 53.0713 217.855 53.0583 217.715 53.0322C217.37 53.2145 217.197 53.444 217.197 53.7207C217.197 53.8672 217.257 53.9762 217.378 54.0479C217.498 54.1162 217.705 54.1504 217.998 54.1504H218.945C219.525 54.1504 219.969 54.2725 220.278 54.5166C220.591 54.7607 220.747 55.1156 220.747 55.5811C220.747 56.1735 220.509 56.6243 220.034 56.9336C219.559 57.2461 218.866 57.4023 217.954 57.4023C217.254 57.4023 216.714 57.2721 216.333 57.0117C215.955 56.7513 215.767 56.3835 215.767 55.9082C215.767 55.5827 215.871 55.3011 216.079 55.0635C216.287 54.8258 216.58 54.6647 216.958 54.5801C216.821 54.5182 216.706 54.4222 216.611 54.292C216.52 54.1618 216.475 54.0104 216.475 53.8379C216.475 53.6426 216.527 53.4717 216.631 53.3252C216.735 53.1787 216.899 53.0371 217.124 52.9004C216.847 52.7865 216.621 52.5928 216.445 52.3193C216.273 52.0459 216.187 51.7334 216.187 51.3818C216.187 50.7959 216.362 50.3451 216.714 50.0293C217.065 49.7103 217.563 49.5508 218.208 49.5508C218.488 49.5508 218.74 49.5833 218.965 49.6484H220.815ZM216.548 55.8984C216.548 56.1882 216.67 56.4079 216.914 56.5576C217.158 56.7074 217.508 56.7822 217.964 56.7822C218.644 56.7822 219.147 56.6797 219.473 56.4746C219.801 56.2728 219.966 55.9977 219.966 55.6494C219.966 55.3597 219.876 55.1579 219.697 55.0439C219.518 54.9333 219.181 54.8779 218.687 54.8779H217.715C217.347 54.8779 217.061 54.9658 216.855 55.1416C216.65 55.3174 216.548 55.5697 216.548 55.8984ZM216.987 51.3623C216.987 51.7367 217.093 52.0199 217.305 52.2119C217.516 52.404 217.811 52.5 218.188 52.5C218.979 52.5 219.375 52.1159 219.375 51.3477C219.375 50.5436 218.975 50.1416 218.174 50.1416C217.793 50.1416 217.5 50.2441 217.295 50.4492C217.09 50.6543 216.987 50.9587 216.987 51.3623ZM228.862 53.1006C228.862 53.7288 228.634 54.2188 228.179 54.5703C227.723 54.9219 227.104 55.0977 226.323 55.0977C225.477 55.0977 224.826 54.9886 224.37 54.7705V53.9697C224.663 54.0934 224.982 54.1911 225.327 54.2627C225.672 54.3343 226.014 54.3701 226.352 54.3701C226.906 54.3701 227.322 54.266 227.602 54.0576C227.882 53.846 228.022 53.5531 228.022 53.1787C228.022 52.9313 227.972 52.7295 227.871 52.5732C227.773 52.4137 227.607 52.2673 227.373 52.1338C227.142 52.0003 226.789 51.849 226.313 51.6797C225.649 51.4421 225.174 51.1605 224.888 50.835C224.604 50.5094 224.463 50.0846 224.463 49.5605C224.463 49.0104 224.669 48.5726 225.083 48.2471C225.496 47.9215 226.043 47.7588 226.723 47.7588C227.433 47.7588 228.086 47.889 228.681 48.1494L228.423 48.8721C227.833 48.6247 227.261 48.501 226.704 48.501C226.264 48.501 225.921 48.5954 225.674 48.7842C225.426 48.973 225.303 49.235 225.303 49.5703C225.303 49.8177 225.348 50.0212 225.439 50.1807C225.53 50.3369 225.683 50.4818 225.898 50.6152C226.116 50.7454 226.448 50.8903 226.894 51.0498C227.643 51.3167 228.157 51.6032 228.437 51.9092C228.721 52.2152 228.862 52.6123 228.862 53.1006ZM232.561 55.0977C231.77 55.0977 231.145 54.8568 230.686 54.375C230.23 53.8932 230.002 53.2243 230.002 52.3682C230.002 51.5055 230.214 50.8203 230.637 50.3125C231.063 49.8047 231.635 49.5508 232.351 49.5508C233.021 49.5508 233.552 49.7721 233.943 50.2148C234.333 50.6543 234.529 51.2354 234.529 51.958V52.4707H230.842C230.858 53.099 231.016 53.5758 231.316 53.9014C231.618 54.2269 232.043 54.3896 232.59 54.3896C233.166 54.3896 233.736 54.2692 234.299 54.0283V54.751C234.013 54.8747 233.741 54.9626 233.484 55.0146C233.23 55.07 232.922 55.0977 232.561 55.0977ZM232.341 50.2295C231.911 50.2295 231.568 50.3695 231.311 50.6494C231.057 50.9294 230.907 51.3167 230.862 51.8115H233.659C233.659 51.3005 233.545 50.9098 233.318 50.6396C233.09 50.3662 232.764 50.2295 232.341 50.2295ZM239.467 53.54C239.467 54.0381 239.282 54.4222 238.911 54.6924C238.54 54.9626 238.019 55.0977 237.348 55.0977C236.639 55.0977 236.085 54.9854 235.688 54.7607V54.0088C235.945 54.139 236.22 54.2415 236.513 54.3164C236.81 54.3913 237.094 54.4287 237.368 54.4287C237.791 54.4287 238.116 54.362 238.344 54.2285C238.572 54.0918 238.686 53.8851 238.686 53.6084C238.686 53.4001 238.595 53.2227 238.413 53.0762C238.234 52.9264 237.882 52.7507 237.358 52.5488C236.86 52.3633 236.505 52.2021 236.294 52.0654C236.085 51.9255 235.929 51.7676 235.825 51.5918C235.724 51.416 235.673 51.2061 235.673 50.9619C235.673 50.5257 235.851 50.1823 236.206 49.9316C236.56 49.6777 237.047 49.5508 237.666 49.5508C238.242 49.5508 238.805 49.668 239.355 49.9023L239.067 50.5615C238.53 50.3402 238.043 50.2295 237.607 50.2295C237.223 50.2295 236.933 50.2897 236.738 50.4102C236.543 50.5306 236.445 50.6966 236.445 50.9082C236.445 51.0514 236.481 51.1735 236.552 51.2744C236.627 51.3753 236.746 51.4714 236.909 51.5625C237.072 51.6536 237.384 51.7855 237.846 51.958C238.481 52.1891 238.909 52.4219 239.13 52.6562C239.355 52.8906 239.467 53.1852 239.467 53.54ZM241.652 49.6484V53.1201C241.652 53.5563 241.752 53.8818 241.95 54.0967C242.149 54.3115 242.46 54.4189 242.883 54.4189C243.443 54.4189 243.851 54.266 244.108 53.96C244.369 53.654 244.499 53.1543 244.499 52.4609V49.6484H245.31V55H244.641L244.523 54.2822H244.479C244.313 54.5459 244.082 54.7477 243.786 54.8877C243.493 55.0277 243.158 55.0977 242.78 55.0977C242.129 55.0977 241.641 54.943 241.315 54.6338C240.993 54.3245 240.832 53.8298 240.832 53.1494V49.6484H241.652ZM250.424 55L250.263 54.2383H250.224C249.957 54.5736 249.69 54.8014 249.423 54.9219C249.16 55.0391 248.829 55.0977 248.432 55.0977C247.901 55.0977 247.485 54.9609 247.182 54.6875C246.883 54.4141 246.733 54.0251 246.733 53.5205C246.733 52.4398 247.597 51.8734 249.326 51.8213L250.234 51.792V51.46C250.234 51.04 250.143 50.7308 249.96 50.5322C249.781 50.3304 249.493 50.2295 249.096 50.2295C248.65 50.2295 248.146 50.3662 247.582 50.6396L247.333 50.0195C247.597 49.8763 247.885 49.764 248.198 49.6826C248.513 49.6012 248.829 49.5605 249.145 49.5605C249.783 49.5605 250.255 49.7021 250.561 49.9854C250.87 50.2686 251.025 50.7227 251.025 51.3477V55H250.424ZM248.593 54.4287C249.098 54.4287 249.493 54.2904 249.78 54.0137C250.069 53.737 250.214 53.3496 250.214 52.8516V52.3682L249.404 52.4023C248.759 52.4251 248.294 52.526 248.007 52.7051C247.724 52.8809 247.582 53.1559 247.582 53.5303C247.582 53.8232 247.67 54.0462 247.846 54.1992C248.025 54.3522 248.274 54.4287 248.593 54.4287ZM253.61 55H252.8V49.6484H253.61V55ZM252.731 48.1982C252.731 48.0127 252.777 47.8776 252.868 47.793C252.959 47.7051 253.073 47.6611 253.21 47.6611C253.34 47.6611 253.452 47.7051 253.547 47.793C253.641 47.8809 253.688 48.016 253.688 48.1982C253.688 48.3805 253.641 48.5173 253.547 48.6084C253.452 48.6963 253.34 48.7402 253.21 48.7402C253.073 48.7402 252.959 48.6963 252.868 48.6084C252.777 48.5173 252.731 48.3805 252.731 48.1982Z" fill="#4F4F4F"/>
<path fill-rule="evenodd" clip-rule="evenodd" d="M181.667 46H172.333C171.6 46 171 46.6 171 47.3333V56.6667C171 57.4 171.6 58 172.333 58H181.667C182.4 58 183 57.4 183 56.6667V47.3333C183 46.6 182.4 46 181.667 46Z" fill="#E9775E"/>
<path d="M283.179 55H282.349V48.5986H280.088V47.8613H285.439V48.5986H283.179V55ZM287.307 55H286.496V49.6484H287.307V55ZM286.428 48.1982C286.428 48.0127 286.474 47.8776 286.565 47.793C286.656 47.7051 286.77 47.6611 286.907 47.6611C287.037 47.6611 287.149 47.7051 287.244 47.793C287.338 47.8809 287.385 48.016 287.385 48.1982C287.385 48.3805 287.338 48.5173 287.244 48.6084C287.149 48.6963 287.037 48.7402 286.907 48.7402C286.77 48.7402 286.656 48.6963 286.565 48.6084C286.474 48.5173 286.428 48.3805 286.428 48.1982ZM292.768 54.2822H292.724C292.35 54.8258 291.79 55.0977 291.045 55.0977C290.345 55.0977 289.8 54.8584 289.409 54.3799C289.022 53.9014 288.828 53.221 288.828 52.3389C288.828 51.4567 289.023 50.7715 289.414 50.2832C289.804 49.7949 290.348 49.5508 291.045 49.5508C291.771 49.5508 292.327 49.8145 292.715 50.3418H292.778L292.744 49.9561L292.724 49.5801V47.4023H293.535V55H292.876L292.768 54.2822ZM291.147 54.4189C291.701 54.4189 292.101 54.2692 292.348 53.9697C292.599 53.667 292.724 53.1803 292.724 52.5098V52.3389C292.724 51.5804 292.597 51.04 292.344 50.7178C292.093 50.3923 291.691 50.2295 291.137 50.2295C290.662 50.2295 290.298 50.415 290.044 50.7861C289.793 51.154 289.668 51.6748 289.668 52.3486C289.668 53.0322 289.793 53.5482 290.044 53.8965C290.294 54.2448 290.662 54.4189 291.147 54.4189ZM298.65 55L298.488 54.2383H298.449C298.182 54.5736 297.916 54.8014 297.649 54.9219C297.385 55.0391 297.055 55.0977 296.657 55.0977C296.127 55.0977 295.71 54.9609 295.407 54.6875C295.108 54.4141 294.958 54.0251 294.958 53.5205C294.958 52.4398 295.822 51.8734 297.551 51.8213L298.459 51.792V51.46C298.459 51.04 298.368 50.7308 298.186 50.5322C298.007 50.3304 297.719 50.2295 297.321 50.2295C296.876 50.2295 296.371 50.3662 295.808 50.6396L295.559 50.0195C295.822 49.8763 296.111 49.764 296.423 49.6826C296.739 49.6012 297.055 49.5605 297.37 49.5605C298.008 49.5605 298.48 49.7021 298.786 49.9854C299.096 50.2686 299.25 50.7227 299.25 51.3477V55H298.65ZM296.819 54.4287C297.323 54.4287 297.719 54.2904 298.005 54.0137C298.295 53.737 298.44 53.3496 298.44 52.8516V52.3682L297.629 52.4023C296.985 52.4251 296.519 52.526 296.233 52.7051C295.949 52.8809 295.808 53.1559 295.808 53.5303C295.808 53.8232 295.896 54.0462 296.071 54.1992C296.251 54.3522 296.5 54.4287 296.819 54.4287ZM301.826 52.2607C301.966 52.0622 302.179 51.8018 302.465 51.4795L304.194 49.6484H305.156L302.988 51.9287L305.307 55H304.326L302.436 52.4707L301.826 52.998V55H301.025V47.4023H301.826V51.4307C301.826 51.6097 301.813 51.8864 301.787 52.2607H301.826ZM313.227 53.1006C313.227 53.7288 312.999 54.2188 312.543 54.5703C312.088 54.9219 311.469 55.0977 310.688 55.0977C309.842 55.0977 309.19 54.9886 308.735 54.7705V53.9697C309.028 54.0934 309.347 54.1911 309.692 54.2627C310.037 54.3343 310.379 54.3701 310.717 54.3701C311.271 54.3701 311.687 54.266 311.967 54.0576C312.247 53.846 312.387 53.5531 312.387 53.1787C312.387 52.9313 312.337 52.7295 312.236 52.5732C312.138 52.4137 311.972 52.2673 311.738 52.1338C311.507 52.0003 311.153 51.849 310.678 51.6797C310.014 51.4421 309.539 51.1605 309.252 50.835C308.969 50.5094 308.828 50.0846 308.828 49.5605C308.828 49.0104 309.034 48.5726 309.448 48.2471C309.861 47.9215 310.408 47.7588 311.088 47.7588C311.798 47.7588 312.451 47.889 313.046 48.1494L312.788 48.8721C312.198 48.6247 311.625 48.501 311.069 48.501C310.629 48.501 310.286 48.5954 310.038 48.7842C309.791 48.973 309.667 49.235 309.667 49.5703C309.667 49.8177 309.713 50.0212 309.804 50.1807C309.895 50.3369 310.048 50.4818 310.263 50.6152C310.481 50.7454 310.813 50.8903 311.259 51.0498C312.008 51.3167 312.522 51.6032 312.802 51.9092C313.085 52.2152 313.227 52.6123 313.227 53.1006ZM316.926 55.0977C316.135 55.0977 315.51 54.8568 315.051 54.375C314.595 53.8932 314.367 53.2243 314.367 52.3682C314.367 51.5055 314.579 50.8203 315.002 50.3125C315.428 49.8047 315.999 49.5508 316.716 49.5508C317.386 49.5508 317.917 49.7721 318.307 50.2148C318.698 50.6543 318.893 51.2354 318.893 51.958V52.4707H315.207C315.223 53.099 315.381 53.5758 315.68 53.9014C315.983 54.2269 316.408 54.3896 316.955 54.3896C317.531 54.3896 318.101 54.2692 318.664 54.0283V54.751C318.377 54.8747 318.106 54.9626 317.848 55.0146C317.595 55.07 317.287 55.0977 316.926 55.0977ZM316.706 50.2295C316.276 50.2295 315.933 50.3695 315.676 50.6494C315.422 50.9294 315.272 51.3167 315.226 51.8115H318.024C318.024 51.3005 317.91 50.9098 317.682 50.6396C317.455 50.3662 317.129 50.2295 316.706 50.2295ZM323.832 53.54C323.832 54.0381 323.647 54.4222 323.276 54.6924C322.904 54.9626 322.384 55.0977 321.713 55.0977C321.003 55.0977 320.45 54.9854 320.053 54.7607V54.0088C320.31 54.139 320.585 54.2415 320.878 54.3164C321.174 54.3913 321.459 54.4287 321.733 54.4287C322.156 54.4287 322.481 54.362 322.709 54.2285C322.937 54.0918 323.051 53.8851 323.051 53.6084C323.051 53.4001 322.96 53.2227 322.778 53.0762C322.599 52.9264 322.247 52.7507 321.723 52.5488C321.225 52.3633 320.87 52.2021 320.658 52.0654C320.45 51.9255 320.294 51.7676 320.19 51.5918C320.089 51.416 320.038 51.2061 320.038 50.9619C320.038 50.5257 320.216 50.1823 320.571 49.9316C320.925 49.6777 321.412 49.5508 322.03 49.5508C322.607 49.5508 323.17 49.668 323.72 49.9023L323.432 50.5615C322.895 50.3402 322.408 50.2295 321.972 50.2295C321.588 50.2295 321.298 50.2897 321.103 50.4102C320.907 50.5306 320.81 50.6966 320.81 50.9082C320.81 51.0514 320.846 51.1735 320.917 51.2744C320.992 51.3753 321.111 51.4714 321.274 51.5625C321.436 51.6536 321.749 51.7855 322.211 51.958C322.846 52.1891 323.274 52.4219 323.495 52.6562C323.72 52.8906 323.832 53.1852 323.832 53.54ZM326.017 49.6484V53.1201C326.017 53.5563 326.116 53.8818 326.315 54.0967C326.514 54.3115 326.824 54.4189 327.248 54.4189C327.808 54.4189 328.216 54.266 328.473 53.96C328.734 53.654 328.864 53.1543 328.864 52.4609V49.6484H329.674V55H329.005L328.888 54.2822H328.844C328.678 54.5459 328.447 54.7477 328.151 54.8877C327.858 55.0277 327.523 55.0977 327.145 55.0977C326.494 55.0977 326.006 54.943 325.68 54.6338C325.358 54.3245 325.197 53.8298 325.197 53.1494V49.6484H326.017ZM334.789 55L334.628 54.2383H334.589C334.322 54.5736 334.055 54.8014 333.788 54.9219C333.524 55.0391 333.194 55.0977 332.797 55.0977C332.266 55.0977 331.85 54.9609 331.547 54.6875C331.247 54.4141 331.098 54.0251 331.098 53.5205C331.098 52.4398 331.962 51.8734 333.69 51.8213L334.599 51.792V51.46C334.599 51.04 334.507 50.7308 334.325 50.5322C334.146 50.3304 333.858 50.2295 333.461 50.2295C333.015 50.2295 332.51 50.3662 331.947 50.6396L331.698 50.0195C331.962 49.8763 332.25 49.764 332.562 49.6826C332.878 49.6012 333.194 49.5605 333.51 49.5605C334.148 49.5605 334.62 49.7021 334.926 49.9854C335.235 50.2686 335.39 50.7227 335.39 51.3477V55H334.789ZM332.958 54.4287C333.463 54.4287 333.858 54.2904 334.145 54.0137C334.434 53.737 334.579 53.3496 334.579 52.8516V52.3682L333.769 52.4023C333.124 52.4251 332.659 52.526 332.372 52.7051C332.089 52.8809 331.947 53.1559 331.947 53.5303C331.947 53.8232 332.035 54.0462 332.211 54.1992C332.39 54.3522 332.639 54.4287 332.958 54.4287ZM337.975 55H337.164V49.6484H337.975V55ZM337.096 48.1982C337.096 48.0127 337.142 47.8776 337.233 47.793C337.324 47.7051 337.438 47.6611 337.575 47.6611C337.705 47.6611 337.817 47.7051 337.912 47.793C338.006 47.8809 338.053 48.016 338.053 48.1982C338.053 48.3805 338.006 48.5173 337.912 48.6084C337.817 48.6963 337.705 48.7402 337.575 48.7402C337.438 48.7402 337.324 48.6963 337.233 48.6084C337.142 48.5173 337.096 48.3805 337.096 48.1982Z" fill="#4F4F4F"/>
<path fill-rule="evenodd" clip-rule="evenodd" d="M274.667 46H265.333C264.6 46 264 46.6 264 47.3333V56.6667C264 57.4 264.6 58 265.333 58H274.667C275.4 58 276 57.4 276 56.6667V47.3333C276 46.6 275.4 46 274.667 46Z" fill="#656565"/>
<defs>
<filter id="filter0_d" x="0" y="0" width="367" height="88" filterUnits="userSpaceOnUse" color-interpolation-filters="sRGB">
<feFlood flood-opacity="0" result="BackgroundImageFix"/>
<feColorMatrix in="SourceAlpha" type="matrix" values="0 0 0 0 0 0 0 0 0 0 0 0 0 0 0 0 0 0 127 0"/>
<feOffset dy="2"/>
<feGaussianBlur stdDeviation="6"/>
<feColorMatrix type="matrix" values="0 0 0 0 0 0 0 0 0 0 0 0 0 0 0 0 0 0 0.1 0"/>
<feBlend mode="normal" in2="BackgroundImageFix" result="effect1_dropShadow"/>
<feBlend mode="normal" in="SourceGraphic" in2="effect1_dropShadow" result="shape"/>
</filter>
</defs>
</svg>
